SplineFontDB: 3.2
FontName: CommonGrotesk-Regular
FullName: Common Grotesk Regular
FamilyName: Common Grotesk
Weight: Regular
Copyright: Copyleft Adam Coulombe 2020
Version: 1.000
ItalicAngle: 0
UnderlinePosition: -401
UnderlineWidth: 50
Ascent: 800
Descent: 200
InvalidEm: 0
sfntRevision: 0x00010000
LayerCount: 2
Layer: 0 1 "Back" 1
Layer: 1 1 "Fore" 0
XUID: [1021 546 857309995 15922]
StyleMap: 0x0040
FSType: 0
OS2Version: 1
OS2_WeightWidthSlopeOnly: 0
OS2_UseTypoMetrics: 0
CreationTime: 1203284335
ModificationTime: 1582940817
PfmFamily: 17
TTFWeight: 400
TTFWidth: 5
LineGap: 90
VLineGap: 0
Panose: 2 11 5 4 2 2 2 2 2 4
OS2TypoAscent: 800
OS2TypoAOffset: 0
OS2TypoDescent: -200
OS2TypoDOffset: 0
OS2TypoLinegap: 0
OS2WinAscent: 1000
OS2WinAOffset: 0
OS2WinDescent: 300
OS2WinDOffset: 0
HheadAscent: 1000
HheadAOffset: 0
HheadDescent: -300
HheadDOffset: 0
OS2SubXSize: 650
OS2SubYSize: 699
OS2SubXOff: 47
OS2SubYOff: 140
OS2SupXSize: 650
OS2SupYSize: 699
OS2SupXOff: -163
OS2SupYOff: 479
OS2StrikeYSize: 49
OS2StrikeYPos: 258
OS2Vendor: 'GNU '
OS2CodePages: 600001bf.dff70000
OS2UnicodeRanges: e4078eff.4200fdff.000030a0.00000000
Lookup: 258 0 0 "'kern' Horizontal Kerning in Cyrillic lookup 0" { "'kern' Horizontal Kerning in Cyrillic lookup 0 kerning class 0"  "'kern' Horizontal Kerning in Cyrillic lookup 0 kerning class 1"  } ['kern' ('cyrl' <'dflt' > ) ]
Lookup: 258 0 0 "'kern' Horizontal Kerning in Latin lookup 1" { "'kern' Horizontal Kerning in Latin lookup 1 kerning class 0"  "'kern' Horizontal Kerning in Latin lookup 1 kerning class 1"  "'kern' Horizontal Kerning in Latin lookup 1 kerning class 2"  "'kern' Horizontal Kerning in Latin lookup 1 kerning class 3"  } ['kern' ('DFLT' <'dflt' > 'latn' <'dflt' > ) ]
MarkAttachClasses: 1
DEI: 91125
KernClass2: 3 2 "'kern' Horizontal Kerning in Cyrillic lookup 0 kerning class 0"
 0 
 0 
 0 
 0 {} 0 {} 0 {} -43 {} 0 {} -21 {}
KernClass2: 6 6 "'kern' Horizontal Kerning in Cyrillic lookup 0 kerning class 1"
 0 
 0 
 0 
 0 
 0 
 0 

StartChar: .notdef
Encoding: 65536 -1 0
Width: 371
Flags: W
LayerCount: 2
Fore
SplineSet
28 0 m 1,0,-1
 28 666 l 1,1,-1
 303 666 l 1,2,-1
 303 0 l 1,3,-1
 28 0 l 1,0,-1
62 33 m 1,4,-1
 269 33 l 1,5,-1
 269 633 l 1,6,-1
 62 633 l 1,7,-1
 62 33 l 1,4,-1
EndSplineSet
Validated: 1
EndChar

StartChar: exclam
Encoding: 33 33 36
Width: 291
GlyphClass: 2
Flags: W
LayerCount: 2
Fore
SplineSet
210 729 m 1,0,-1
 210 391 l 1,1,-1
 187 168 l 1,2,-1
 146 168 l 1,3,-1
 123 391 l 1,4,-1
 123 729 l 1,5,-1
 210 729 l 1,0,-1
210 104 m 1,6,-1
 210 0 l 1,7,-1
 122 0 l 1,8,-1
 122 104 l 1,9,-1
 210 104 l 1,6,-1
EndSplineSet
Validated: 1
EndChar

StartChar: quotedbl
Encoding: 34 34 37
Width: 375
GlyphClass: 2
Flags: W
LayerCount: 2
Fore
SplineSet
47 709 m 1,0,-1
 144 709 l 1,1,-1
 144 598 l 1,2,-1
 116 464 l 1,3,-1
 75 464 l 1,4,-1
 47 598 l 1,5,-1
 47 709 l 1,0,-1
213 709 m 1,6,-1
 310 709 l 1,7,-1
 310 598 l 1,8,-1
 282 464 l 1,9,-1
 241 464 l 1,10,-1
 213 598 l 1,11,-1
 213 709 l 1,6,-1
EndSplineSet
Validated: 1
EndChar

StartChar: numbersign
Encoding: 35 35 38
Width: 588
GlyphClass: 2
Flags: W
LayerCount: 2
Fore
SplineSet
493 697 m 1,0,-1
 456 501 l 1,1,-1
 553 501 l 1,2,-1
 553 433 l 1,3,-1
 442 433 l 1,4,-1
 410 259 l 1,5,-1
 519 259 l 1,6,-1
 519 191 l 1,7,-1
 398 191 l 1,8,-1
 357 -20 l 1,9,-1
 278 -20 l 1,10,-1
 318 191 l 1,11,-1
 189 191 l 1,12,-1
 148 -20 l 1,13,-1
 69 -20 l 1,14,-1
 108 191 l 1,15,-1
 3 191 l 1,16,-1
 3 259 l 1,17,-1
 122 259 l 1,18,-1
 154 433 l 1,19,-1
 42 433 l 1,20,-1
 42 501 l 1,21,-1
 168 501 l 1,22,-1
 205 697 l 1,23,-1
 284 697 l 1,24,-1
 247 501 l 1,25,-1
 377 501 l 1,26,-1
 413 697 l 1,27,-1
 493 697 l 1,0,-1
363 433 m 1,28,-1
 234 433 l 1,29,-1
 201 259 l 1,30,-1
 331 259 l 1,31,-1
 363 433 l 1,28,-1
EndSplineSet
Validated: 1
EndChar

StartChar: dollar
Encoding: 36 36 39
Width: 588
GlyphClass: 2
Flags: W
LayerCount: 2
Fore
SplineSet
528 195 m 0,0,1
 528 99 528 99 470 41.5 c 128,-1,2
 412 -16 412 -16 303 -23 c 1,3,-1
 303 -126 l 1,4,-1
 242 -126 l 1,5,-1
 242 -23 l 1,6,7
 137 -16 137 -16 80 39 c 128,-1,8
 23 94 23 94 23 191 c 2,9,-1
 23 208 l 1,10,-1
 105 208 l 1,11,12
 108 188 108 188 108.5 181.5 c 128,-1,13
 109 175 109 175 112 156.5 c 128,-1,14
 115 138 115 138 118.5 130.5 c 128,-1,15
 122 123 122 123 129 108 c 128,-1,16
 136 93 136 93 145 85.5 c 128,-1,17
 154 78 154 78 167.5 69 c 128,-1,18
 181 60 181 60 200 54.5 c 128,-1,19
 219 49 219 49 242 46 c 1,20,-1
 242 318 l 1,21,22
 145 346 145 346 111 370 c 0,23,24
 37 421 37 421 37 516 c 0,25,26
 37 601 37 601 89.5 652.5 c 128,-1,27
 142 704 142 704 242 716 c 1,28,-1
 242 770 l 1,29,-1
 303 770 l 1,30,-1
 303 716 l 1,31,32
 398 709 398 709 451.5 656.5 c 128,-1,33
 505 604 505 604 505 519 c 1,34,-1
 423 519 l 1,35,36
 422 574 422 574 388.5 609 c 128,-1,37
 355 644 355 644 303 646 c 1,38,-1
 303 397 l 1,39,40
 307 396 307 396 334 389 c 128,-1,41
 361 382 361 382 375.5 377 c 128,-1,42
 390 372 390 372 416.5 361 c 128,-1,43
 443 350 443 350 459.5 336.5 c 128,-1,44
 476 323 476 323 493.5 303.5 c 128,-1,45
 511 284 511 284 519.5 256 c 128,-1,46
 528 228 528 228 528 195 c 0,0,1
242 405 m 1,47,-1
 242 645 l 1,48,49
 183 637 183 637 152 606 c 128,-1,50
 121 575 121 575 121 526 c 0,51,52
 121 436 121 436 242 405 c 1,47,-1
303 46 m 1,53,54
 373 54 373 54 407.5 91 c 128,-1,55
 442 128 442 128 442 183 c 0,56,57
 442 232 442 232 412.5 259 c 128,-1,58
 383 286 383 286 303 309 c 1,59,-1
 303 46 l 1,53,54
EndSplineSet
Validated: 1
EndChar

StartChar: percent
Encoding: 37 37 40
Width: 942
GlyphClass: 2
Flags: W
LayerCount: 2
Fore
SplineSet
189 685 m 0,0,1
 264 685 264 685 315.5 635 c 128,-1,2
 367 585 367 585 367 512 c 0,3,4
 367 443 367 443 315 393 c 128,-1,5
 263 343 263 343 190 343 c 128,-1,6
 117 343 117 343 64.5 393.5 c 128,-1,7
 12 444 12 444 12 514 c 128,-1,8
 12 584 12 584 64 634.5 c 128,-1,9
 116 685 116 685 189 685 c 0,0,1
189 615 m 0,10,11
 147 615 147 615 115.5 585.5 c 128,-1,12
 84 556 84 556 84 514 c 0,13,14
 84 473 84 473 115.5 443 c 128,-1,15
 147 413 147 413 190 413 c 256,16,17
 233 413 233 413 264 442.5 c 128,-1,18
 295 472 295 472 295 513 c 0,19,20
 295 556 295 556 264.5 585.5 c 128,-1,21
 234 615 234 615 189 615 c 0,10,11
616 709 m 1,22,-1
 684 709 l 1,23,-1
 273 -20 l 1,24,-1
 205 -20 l 1,25,-1
 616 709 l 1,22,-1
698 322 m 0,26,27
 773 322 773 322 824.5 272 c 128,-1,28
 876 222 876 222 876 150 c 0,29,30
 876 81 876 81 823.5 31 c 128,-1,31
 771 -19 771 -19 699 -19 c 0,32,33
 625 -19 625 -19 573 31.5 c 128,-1,34
 521 82 521 82 521 152 c 128,-1,35
 521 222 521 222 573 272 c 128,-1,36
 625 322 625 322 698 322 c 0,26,27
698 252 m 0,37,38
 655 252 655 252 624 222.5 c 128,-1,39
 593 193 593 193 593 152 c 0,40,41
 593 110 593 110 624 80.5 c 128,-1,42
 655 51 655 51 699 51 c 0,43,44
 741 51 741 51 772.5 80.5 c 128,-1,45
 804 110 804 110 804 150 c 0,46,47
 804 193 804 193 773 222.5 c 128,-1,48
 742 252 742 252 698 252 c 0,37,38
EndSplineSet
Validated: 1
EndChar

StartChar: ampersand
Encoding: 38 38 41
Width: 704
GlyphClass: 2
Flags: W
LayerCount: 2
Fore
SplineSet
471 78 m 1,0,1
 419 29 419 29 386 11 c 0,2,3
 324 -23 324 -23 254 -23 c 0,4,5
 158 -23 158 -23 99 31.5 c 128,-1,6
 40 86 40 86 40 176 c 0,7,8
 40 244 40 244 76 289.5 c 128,-1,9
 112 335 112 335 209 389 c 1,10,11
 160 448 160 448 142.5 482.5 c 128,-1,12
 125 517 125 517 125 552 c 0,13,14
 125 618 125 618 177 663.5 c 128,-1,15
 229 709 229 709 302.5 709 c 128,-1,16
 376 709 376 709 424 665 c 128,-1,17
 472 621 472 621 472 552 c 0,18,19
 472 498 472 498 441 460 c 128,-1,20
 410 422 410 422 328 378 c 1,21,-1
 467 215 l 1,22,23
 499 270 499 270 499 330 c 2,24,-1
 499 334 l 1,25,-1
 582 334 l 1,26,27
 582 240 582 240 522 151 c 1,28,-1
 649 0 l 1,29,-1
 535 0 l 1,30,-1
 471 78 l 1,0,1
283 431 m 1,31,32
 344 468 344 468 367 494 c 128,-1,33
 390 520 390 520 390 554 c 0,34,35
 390 591 390 591 364.5 615 c 128,-1,36
 339 639 339 639 299 639 c 256,37,38
 259 639 259 639 234.5 615.5 c 128,-1,39
 210 592 210 592 210 553 c 0,40,41
 210 526 210 526 223 504.5 c 128,-1,42
 236 483 236 483 283 431 c 1,31,32
421 137 m 1,43,-1
 255 337 l 1,44,45
 184 294 184 294 156 259.5 c 128,-1,46
 128 225 128 225 128 183 c 0,47,48
 128 130 128 130 168 92.5 c 128,-1,49
 208 55 208 55 264 55 c 0,50,51
 340 55 340 55 421 137 c 1,43,-1
EndSplineSet
Validated: 1
EndChar

StartChar: quotesingle
Encoding: 39 39 42
Width: 199
GlyphClass: 2
Flags: W
LayerCount: 2
Fore
SplineSet
46 709 m 1,0,-1
 144 709 l 1,1,-1
 144 598 l 1,2,-1
 116 464 l 1,3,-1
 74 464 l 1,4,-1
 46 598 l 1,5,-1
 46 709 l 1,0,-1
EndSplineSet
Validated: 1
EndChar

StartChar: parenleft
Encoding: 40 40 43
Width: 351
GlyphClass: 2
Flags: W
LayerCount: 2
Fore
SplineSet
238 729 m 1,0,-1
 295 729 l 1,1,2
 153 508 153 508 153 259 c 0,3,4
 153 11 153 11 295 -212 c 1,5,-1
 238 -212 l 1,6,7
 160 -114 160 -114 114.5 13.5 c 128,-1,8
 69 141 69 141 69 259 c 128,-1,9
 69 377 69 377 114.5 504 c 128,-1,10
 160 631 160 631 238 729 c 1,0,-1
EndSplineSet
Validated: 1
EndChar

StartChar: parenright
Encoding: 41 41 44
Width: 352
GlyphClass: 2
Flags: W
LayerCount: 2
Fore
SplineSet
91 -212 m 1,0,-1
 34 -212 l 1,1,2
 176 9 176 9 176 258 c 0,3,4
 176 506 176 506 34 729 c 1,5,-1
 91 729 l 1,6,7
 169 631 169 631 214.5 503.5 c 128,-1,8
 260 376 260 376 260 258 c 128,-1,9
 260 140 260 140 214.5 13 c 128,-1,10
 169 -114 169 -114 91 -212 c 1,0,-1
EndSplineSet
Validated: 1
EndChar

StartChar: asterisk
Encoding: 42 42 45
Width: 410
GlyphClass: 2
Flags: W
LayerCount: 2
Fore
SplineSet
159 729 m 1,0,-1
 224 729 l 1,1,-1
 219 617 l 1,2,-1
 329 655 l 1,3,-1
 349 596 l 1,4,-1
 237 566 l 1,5,-1
 310 477 l 1,6,-1
 256 441 l 1,7,-1
 192 534 l 1,8,-1
 126 441 l 1,9,-1
 74 477 l 1,10,-1
 146 566 l 1,11,-1
 34 596 l 1,12,-1
 54 655 l 1,13,-1
 164 617 l 1,14,-1
 159 729 l 1,0,-1
EndSplineSet
Validated: 1
EndChar

StartChar: plus
Encoding: 43 43 46
Width: 618
GlyphClass: 2
Flags: W
LayerCount: 2
Fore
SplineSet
544 267 m 1,0,-1
 544 197 l 1,1,-1
 328 197 l 1,2,-1
 328 -10 l 1,3,-1
 256 -10 l 1,4,-1
 256 197 l 1,5,-1
 40 197 l 1,6,-1
 40 267 l 1,7,-1
 256 267 l 1,8,-1
 256 474 l 1,9,-1
 328 474 l 1,10,-1
 328 267 l 1,11,-1
 544 267 l 1,0,-1
EndSplineSet
Validated: 1
EndChar

StartChar: comma
Encoding: 44 44 47
Width: 292
GlyphClass: 2
Flags: W
LayerCount: 2
Fore
SplineSet
85 104 m 1,0,-1
 194 104 l 1,1,-1
 194 -16 l 2,2,3
 194 -147 194 -147 85 -147 c 1,4,-1
 85 -109 l 1,5,6
 121 -108 121 -108 134 -89 c 128,-1,7
 147 -70 147 -70 147 -18 c 2,8,-1
 147 0 l 1,9,-1
 85 0 l 1,10,-1
 85 104 l 1,0,-1
EndSplineSet
Validated: 1
EndChar

StartChar: hyphen
Encoding: 45 45 48
Width: 351
GlyphClass: 2
Flags: W
LayerCount: 2
Fore
SplineSet
289 312 m 1,0,-1
 289 240 l 1,1,-1
 41 240 l 1,2,-1
 41 312 l 1,3,-1
 289 312 l 1,0,-1
EndSplineSet
Validated: 1
EndChar

StartChar: period
Encoding: 46 46 49
Width: 292
GlyphClass: 2
Flags: W
LayerCount: 2
Fore
SplineSet
193 104 m 1,0,-1
 193 0 l 1,1,-1
 85 0 l 1,2,-1
 85 104 l 1,3,-1
 193 104 l 1,0,-1
EndSplineSet
Validated: 1
EndChar

StartChar: slash
Encoding: 47 47 50
Width: 292
GlyphClass: 2
Flags: W
LayerCount: 2
Fore
SplineSet
233 729 m 1,0,-1
 290 729 l 1,1,-1
 43 -20 l 1,2,-1
 -14 -20 l 1,3,-1
 233 729 l 1,0,-1
EndSplineSet
Validated: 1
EndChar

StartChar: zero
Encoding: 48 48 51
Width: 618
GlyphClass: 2
Flags: W
LayerCount: 2
Fore
SplineSet
34.326171875 353.859375 m 0,0,1
 34.326171875 445.092773438 34.326171875 445.092773438 52.0087890625 514.998046875 c 0,2,3
 69.7451171875 585.10546875 69.7451171875 585.10546875 96.9931640625 624.484375 c 0,4,5
 124.43359375 664.14453125 124.43359375 664.14453125 161.936523438 688.760742188 c 128,-1,6
 199.53125 713.431640625 199.53125 713.431640625 234.833007812 721.676757812 c 128,-1,7
 270.004882812 729.908203125 270.004882812 729.908203125 308.842773438 729.908203125 c 0,8,9
 583.299804688 729.908203125 583.299804688 729.908203125 583.299804688 347.912109375 c 0,10,11
 583.299804688 181.543945312 583.299804688 181.543945312 508.459960938 80.236328125 c 0,12,13
 440.064453125 -12.34375 440.064453125 -12.34375 308.842773438 -12.34375 c 0,14,15
 176.478515625 -12.34375 176.478515625 -12.34375 108.669921875 81.1826171875 c 0,16,17
 34.326171875 183.524414062 34.326171875 183.524414062 34.326171875 353.859375 c 0,0,1
308.788085938 656.120117188 m 0,18,19
 223.181640625 656.120117188 223.181640625 656.120117188 174.405273438 577.556640625 c 128,-1,20
 125.629882812 498.9921875 125.629882812 498.9921875 125.629882812 352.583007812 c 0,21,22
 125.629882812 70.060546875 125.629882812 70.060546875 306.506835938 70.060546875 c 0,23,24
 394.612304688 70.060546875 394.612304688 70.060546875 443.237304688 138.064453125 c 0,25,26
 492 206.315429688 492 206.315429688 492 355.639648438 c 0,27,28
 492 514.360351562 492 514.360351562 448.075195312 583.002929688 c 0,29,30
 401.212890625 656.120117188 401.212890625 656.120117188 308.788085938 656.120117188 c 0,18,19
EndSplineSet
Validated: 1
EndChar

StartChar: one
Encoding: 49 49 52
Width: 590
GlyphClass: 2
Flags: W
LayerCount: 2
Fore
SplineSet
260 526.787109375 m 1,0,-1
 86.404296875 526.787109375 l 1,1,-1
 86.404296875 587.227539062 l 1,2,3
 175.706054688 588.7578125 175.706054688 588.7578125 220.465820312 620.422851562 c 0,4,5
 265.908203125 652.580078125 265.908203125 652.580078125 280.405273438 728.907226562 c 1,6,-1
 354.52734375 728.907226562 l 1,7,-1
 354.52734375 0 l 1,8,-1
 259.9453125 0 l 1,9,-1
 260 526.787109375 l 1,0,-1
EndSplineSet
Validated: 1
EndChar

StartChar: two
Encoding: 50 50 53
Width: 588
GlyphClass: 2
Flags: W
LayerCount: 2
Fore
SplineSet
41.3740234375 476.022460938 m 1,0,1
 48.55078125 728.903320312 48.55078125 728.903320312 291.202148438 728.907226562 c 0,2,3
 395.337890625 728.907226562 395.337890625 728.907226562 459.956054688 669.297851562 c 128,-1,4
 524.51171875 609.663085938 524.51171875 609.663085938 524.51171875 515.111328125 c 0,5,6
 524.51171875 372.754882812 524.51171875 372.754882812 374.440429688 288.861328125 c 2,7,-1
 267.515625 229.810546875 l 2,8,9
 204.431640625 195.259765625 204.431640625 195.259765625 173.321289062 157.5234375 c 0,10,11
 140.3046875 117.588867188 140.3046875 117.588867188 135.2890625 89.46484375 c 1,12,-1
 511 89.46484375 l 1,13,-1
 511 0 l 1,14,-1
 23.859375 0 l 1,15,16
 29.8896484375 101.083007812 29.8896484375 101.083007812 74.736328125 172.369140625 c 0,17,18
 118.528320312 241.900390625 118.528320312 241.900390625 236.655273438 310.713867188 c 2,19,-1
 335.348632812 367.595703125 l 2,20,21
 431.823242188 424.053710938 431.823242188 424.053710938 431.823242188 513.0546875 c 0,22,23
 431.823242188 571.609375 431.823242188 571.609375 390.896484375 610.693359375 c 128,-1,24
 349.890625 649.78125 349.890625 649.78125 288.033203125 649.78125 c 0,25,26
 146.16015625 649.78125 146.16015625 649.78125 135.901367188 476.022460938 c 1,27,-1
 41.3740234375 476.022460938 l 1,0,1
EndSplineSet
Validated: 1
EndChar

StartChar: three
Encoding: 51 51 54
Width: 588
GlyphClass: 2
Flags: W
LayerCount: 2
Fore
SplineSet
295.313476562 663.79296875 m 0,0,1
 209.46875 663.79296875 209.46875 663.79296875 170.092773438 615.41796875 c 0,2,3
 133.286132812 570.279296875 133.286132812 570.279296875 131.059570312 495.873046875 c 1,4,-1
 49.4345703125 495.873046875 l 1,5,6
 54.72265625 737.690429688 54.72265625 737.690429688 290.309570312 737.690429688 c 0,7,8
 405.1328125 737.690429688 405.1328125 737.690429688 466.236328125 684.756835938 c 0,9,10
 533.126953125 626.815429688 533.126953125 626.815429688 533.126953125 531.571289062 c 0,11,12
 533.126953125 430.095703125 533.126953125 430.095703125 420.30859375 387.333984375 c 1,13,14
 487.849609375 371.56640625 487.849609375 371.56640625 527.122070312 321.331054688 c 0,15,16
 560.875976562 278.077148438 560.875976562 278.077148438 560.875976562 204.509765625 c 0,17,18
 560.875976562 106.766601562 560.875976562 106.766601562 484.309570312 43.2578125 c 0,19,20
 417.356445312 -12.34375 417.356445312 -12.34375 288.6953125 -12.34375 c 0,21,22
 145.017578125 -12.34375 145.017578125 -12.34375 65.001953125 98.0849609375 c 0,23,24
 20.576171875 159.408203125 20.576171875 159.408203125 20.576171875 246.93359375 c 1,25,-1
 105.81640625 246.93359375 l 1,26,27
 109.0234375 198.104492188 109.0234375 198.104492188 125 166.088867188 c 0,28,29
 174.1171875 67.837890625 174.1171875 67.837890625 291.751953125 67.837890625 c 0,30,31
 372.692382812 67.837890625 372.692382812 67.837890625 420.688476562 106.108398438 c 128,-1,32
 468.68359375 144.3828125 468.68359375 144.3828125 468.68359375 201.728515625 c 0,33,34
 468.68359375 287.95703125 468.68359375 287.95703125 406.743164062 326.727539062 c 0,35,36
 368.438476562 350.748046875 368.438476562 350.748046875 291.751953125 350.748046875 c 2,37,-1
 240.374023438 349.689453125 l 1,38,-1
 239.319335938 420.583984375 l 1,39,40
 346.349609375 422.818359375 346.349609375 422.818359375 382.831054688 441.994140625 c 0,41,42
 441.71484375 472.8828125 441.71484375 472.8828125 441.71484375 531.846679688 c 0,43,44
 441.71484375 592.844726562 441.71484375 592.844726562 402.739257812 628.321289062 c 128,-1,45
 363.755859375 663.79296875 363.755859375 663.79296875 295.313476562 663.79296875 c 0,0,1
EndSplineSet
Validated: 1
EndChar

StartChar: four
Encoding: 52 52 55
Width: 588
GlyphClass: 2
Flags: W
LayerCount: 2
Fore
SplineSet
345.723632812 175.763671875 m 1,0,-1
 18 175.763671875 l 1,1,-1
 18 256.608398438 l 1,2,-1
 370.412109375 729.908203125 l 1,3,-1
 440.305664062 729.908203125 l 1,4,-1
 440.305664062 257.000976562 l 1,5,-1
 552.34765625 257.000976562 l 1,6,-1
 552.34765625 175.763671875 l 1,7,-1
 440.305664062 175.763671875 l 1,8,-1
 440.305664062 1.0009765625 l 1,9,-1
 345.723632812 1.0009765625 l 1,10,-1
 345.723632812 175.763671875 l 1,0,-1
345.723632812 257.000976562 m 1,11,-1
 345.723632812 575.717773438 l 1,12,-1
 108.244140625 257.000976562 l 1,13,-1
 345.723632812 257.000976562 l 1,11,-1
EndSplineSet
Validated: 1
EndChar

StartChar: five
Encoding: 53 53 56
Width: 588
GlyphClass: 2
Flags: W
LayerCount: 2
Fore
SplineSet
515.807617188 729.908203125 m 1,0,-1
 515.807617188 640.440429688 l 1,1,-1
 188.579101562 640.440429688 l 1,2,-1
 141.151367188 436.876953125 l 1,3,4
 208.708984375 486.365234375 208.708984375 486.365234375 305.071289062 486.365234375 c 0,5,6
 411.100585938 486.365234375 411.100585938 486.365234375 483 413.744140625 c 0,7,8
 549.669921875 346.495117188 549.669921875 346.495117188 549.669921875 242.208984375 c 0,9,10
 549.669921875 133.615234375 549.669921875 133.615234375 478.442382812 64.72265625 c 0,11,12
 404.106445312 -7.1728515625 404.106445312 -7.1728515625 294.896484375 -7.1728515625 c 0,13,14
 201.715820312 -7.1728515625 201.715820312 -7.1728515625 141.484375 25.4091796875 c 0,15,16
 89.8486328125 53.4833984375 89.8486328125 53.4833984375 58.859375 101.033203125 c 0,17,18
 29.033203125 146.763671875 29.033203125 146.763671875 22.548828125 210.293945312 c 1,19,-1
 109.290039062 210.293945312 l 1,20,21
 128.506835938 137.723632812 128.506835938 137.723632812 181.46484375 102.534179688 c 0,22,23
 218.442382812 77.900390625 218.442382812 77.900390625 292.668945312 77.900390625 c 0,24,25
 360.282226562 77.900390625 360.282226562 77.900390625 410.049804688 118.823242188 c 0,26,27
 458.591796875 158.76171875 458.591796875 158.76171875 458.591796875 230.477539062 c 0,28,29
 458.591796875 307.874023438 458.591796875 307.874023438 414.499023438 354.026367188 c 0,30,31
 364.239257812 406.629882812 364.239257812 406.629882812 278.82421875 406.629882812 c 0,32,33
 231.3125 406.629882812 231.3125 406.629882812 198.146484375 391.170898438 c 0,34,35
 172.8203125 379.3984375 172.8203125 379.3984375 129.586914062 332.899414062 c 1,36,-1
 44.1220703125 332.899414062 l 1,37,-1
 124.08203125 729.7421875 l 1,38,-1
 515.807617188 729.908203125 l 1,0,-1
EndSplineSet
Validated: 1
EndChar

StartChar: six
Encoding: 54 54 57
Width: 588
GlyphClass: 2
Flags: W
LayerCount: 2
Fore
SplineSet
163.9375 686.87109375 m 0,0,1
 197.841796875 711.080078125 197.841796875 711.080078125 242.171875 720.901367188 c 0,2,3
 278.907226562 729.016601562 278.907226562 729.016601562 320.40625 729.016601562 c 0,4,5
 410.692382812 729.016601562 410.692382812 729.016601562 468.921875 679.473632812 c 0,6,7
 528.176757812 629.067382812 528.176757812 629.067382812 543.098632812 539.631835938 c 1,8,-1
 444.901367188 539.631835938 l 1,9,10
 433.158203125 592.02734375 433.158203125 592.02734375 398.473632812 620.869140625 c 128,-1,11
 363.672851562 649.727539062 363.672851562 649.727539062 313.62109375 649.727539062 c 0,12,13
 223.500976562 649.727539062 223.500976562 649.727539062 176.227539062 579.112304688 c 0,14,15
 128.81640625 508.284179688 128.81640625 508.284179688 127.793945312 388.948242188 c 1,16,17
 194.6640625 469.625976562 194.6640625 469.625976562 318.905273438 469.625976562 c 0,18,19
 424.529296875 469.625976562 424.529296875 469.625976562 491.775390625 402.79296875 c 128,-1,20
 559 335.985351562 559 335.985351562 559 230.919921875 c 0,21,22
 559 120.575195312 559 120.575195312 486.436523438 48.9296875 c 128,-1,23
 413.903320312 -22.6865234375 413.903320312 -22.6865234375 301.8359375 -22.6865234375 c 0,24,25
 214.63671875 -22.6865234375 214.63671875 -22.6865234375 147.703125 29.154296875 c 128,-1,26
 80.765625 80.994140625 80.765625 80.994140625 58.9013671875 156.022460938 c 0,27,28
 3.294921875 346.76171875 3.294921875 346.76171875 57.125 535.07421875 c 0,29,30
 84.490234375 630.193359375 84.490234375 630.193359375 163.9375 686.87109375 c 0,0,1
306.227539062 386.946289062 m 128,-1,32
 234.723632812 386.946289062 234.723632812 386.946289062 188.846679688 342.908203125 c 128,-1,33
 142.973632812 298.870117188 142.973632812 298.870117188 142.973632812 228.864257812 c 0,34,35
 142.973632812 156.72265625 142.973632812 156.72265625 188.846679688 108.426757812 c 128,-1,36
 234.694335938 60.1640625 234.694335938 60.1640625 303.00390625 60.1640625 c 128,-1,37
 371.287109375 60.1640625 371.287109375 60.1640625 415.600585938 106.3125 c 128,-1,38
 459.859375 152.41015625 459.859375 152.41015625 459.859375 223.580078125 c 0,39,40
 459.859375 298.954101562 459.859375 298.954101562 418.770507812 342.962890625 c 128,-1,31
 377.709960938 386.946289062 377.709960938 386.946289062 306.227539062 386.946289062 c 128,-1,32
EndSplineSet
Validated: 33
EndChar

StartChar: seven
Encoding: 55 55 58
Width: 587
GlyphClass: 2
Flags: W
LayerCount: 2
Fore
SplineSet
534 729.908203125 m 1,0,-1
 534 653.842773438 l 1,1,2
 375.834960938 475.6484375 375.834960938 475.6484375 311.975585938 330.618164062 c 0,3,4
 241.860351562 171.422851562 241.860351562 171.422851562 229.0703125 1.0009765625 c 1,5,-1
 128.317382812 1.0009765625 l 1,6,7
 147.275390625 157.46875 147.275390625 157.46875 215.337890625 315.717773438 c 0,8,9
 288.197265625 485.073242188 288.197265625 485.073242188 430.744140625 640.440429688 c 1,10,-1
 41.462890625 640.440429688 l 1,11,-1
 41.462890625 729.908203125 l 1,12,-1
 534 729.908203125 l 1,0,-1
EndSplineSet
Validated: 1
EndChar

StartChar: eight
Encoding: 56 56 59
Width: 588
GlyphClass: 2
Flags: W
LayerCount: 2
Fore
SplineSet
415 384.498046875 m 1,0,1
 552.197265625 324.8671875 552.197265625 324.8671875 552.23046875 202.5078125 c 0,2,3
 552.23046875 102.788085938 552.23046875 102.788085938 477.107421875 40.0888671875 c 128,-1,4
 401.955078125 -22.6318359375 401.955078125 -22.6318359375 284.219726562 -22.6318359375 c 128,-1,5
 166.401367188 -22.6318359375 166.401367188 -22.6318359375 91.3330078125 40.5888671875 c 128,-1,6
 16.2099609375 103.7890625 16.2099609375 103.7890625 16.2099609375 203.508789062 c 0,7,8
 16.2099609375 324.784179688 16.2099609375 324.784179688 152.385742188 384.444335938 c 1,9,10
 102.4140625 413.28125 102.4140625 413.28125 75.09375 452.27734375 c 0,11,12
 52.07421875 485.143554688 52.07421875 485.143554688 52.07421875 535.57421875 c 0,13,14
 52.07421875 620.915039062 52.07421875 620.915039062 116.909179688 675.416015625 c 128,-1,15
 181.71484375 729.883789062 181.71484375 729.883789062 284.219726562 729.908203125 c 128,-1,16
 386.612304688 729.908203125 386.612304688 729.908203125 451.53125 675.416015625 c 128,-1,17
 516.366210938 620.84375 516.366210938 620.84375 516.366210938 535.57421875 c 0,18,19
 516.366210938 484.142578125 516.366210938 484.142578125 493.346679688 451.276367188 c 0,20,21
 466.46875 412.772460938 466.46875 412.772460938 415 384.498046875 c 1,0,1
413.051757812 304.817382812 m 128,-1,23
 363.938476562 344.409179688 363.938476562 344.409179688 284.38671875 344.409179688 c 128,-1,24
 204.7265625 344.409179688 204.7265625 344.409179688 155.721679688 304.817382812 c 128,-1,25
 106.6796875 265.19921875 106.6796875 265.19921875 106.6796875 201.506835938 c 128,-1,26
 106.6796875 137.680664062 106.6796875 137.680664062 155.163085938 97.6962890625 c 128,-1,27
 203.587890625 57.603515625 203.587890625 57.603515625 282.10546875 57.603515625 c 0,28,29
 362.908203125 57.603515625 362.908203125 57.603515625 412.497070312 97.1962890625 c 128,-1,30
 462.094726562 136.708984375 462.094726562 136.708984375 462.094726562 201.561523438 c 0,31,22
 462.094726562 265.204101562 462.094726562 265.204101562 413.051757812 304.817382812 c 128,-1,23
391.8125 627.041015625 m 128,-1,33
 351.294921875 659.790039062 351.294921875 659.790039062 284.274414062 659.790039062 c 128,-1,34
 217.150390625 659.790039062 217.150390625 659.790039062 176.740234375 627.041015625 c 128,-1,35
 136.258789062 594.241210938 136.258789062 594.241210938 136.258789062 539.578125 c 0,36,37
 136.258789062 485.90234375 136.258789062 485.90234375 176.740234375 453.169921875 c 128,-1,38
 217.158203125 420.416992188 217.158203125 420.416992188 284.274414062 420.416992188 c 0,39,40
 350.131835938 420.416992188 350.131835938 420.416992188 391.2578125 452.611328125 c 128,-1,41
 432.293945312 484.805664062 432.293945312 484.805664062 432.293945312 538.46484375 c 0,42,32
 432.293945312 594.241210938 432.293945312 594.241210938 391.8125 627.041015625 c 128,-1,33
EndSplineSet
Validated: 1
EndChar

StartChar: nine
Encoding: 57 57 60
Width: 588
GlyphClass: 2
Flags: W
LayerCount: 2
Fore
SplineSet
556 374.209960938 m 0,0,1
 556 277.65234375 556 277.65234375 537.037109375 204.063476562 c 128,-1,2
 518.086914062 130.5 518.086914062 130.5 489.330078125 88.4091796875 c 0,3,4
 462.34375 48.708984375 462.34375 48.708984375 420.495117188 20.017578125 c 0,5,6
 369.022460938 -15.2919921875 369.022460938 -15.2919921875 267.196289062 -15.2919921875 c 0,7,8
 173.923828125 -15.2919921875 173.923828125 -15.2919921875 110.502929688 41.7568359375 c 0,9,10
 46.23828125 99.57421875 46.23828125 99.57421875 32.71484375 198.00390625 c 1,11,-1
 125.515625 198.00390625 l 1,12,13
 136.833984375 136.66796875 136.833984375 136.66796875 177.672851562 100.866210938 c 0,14,15
 216.014648438 67.169921875 216.014648438 67.169921875 274.143554688 67.169921875 c 0,16,17
 371.602539062 67.169921875 371.602539062 67.169921875 413.489257812 129.056640625 c 0,18,19
 461.809570312 200.452148438 461.809570312 200.452148438 462.973632812 334.17578125 c 1,20,21
 384.489257812 252.939453125 384.489257812 252.939453125 270.974609375 252.939453125 c 0,22,23
 162.630859375 252.939453125 162.630859375 252.939453125 94.322265625 317.719726562 c 128,-1,24
 26.0419921875 382.409179688 26.0419921875 382.409179688 26.0419921875 484.250976562 c 0,25,26
 26.0419921875 591.172851562 26.0419921875 591.172851562 99.71875 660.569335938 c 128,-1,27
 173.365234375 729.958984375 173.365234375 729.958984375 287.213867188 729.962890625 c 0,28,29
 556.028320312 729.883789062 556.028320312 729.883789062 556 374.209960938 c 0,0,1
285.487304688 656.120117188 m 0,30,31
 217.131835938 656.120117188 217.131835938 656.120117188 162.994140625 605.522460938 c 0,32,33
 114.564453125 560.262695312 114.564453125 560.262695312 114.564453125 491.423828125 c 0,34,35
 114.564453125 418.356445312 114.564453125 418.356445312 159.491210938 375.76953125 c 128,-1,36
 204.30078125 333.12109375 204.30078125 333.12109375 281.984375 333.12109375 c 0,37,38
 355.213867188 333.12109375 355.213867188 333.12109375 403.53515625 376.270507812 c 128,-1,39
 451.963867188 419.594726562 451.963867188 419.594726562 451.963867188 486.640625 c 0,40,41
 451.963867188 559.620117188 451.963867188 559.620117188 404.03515625 607.969726562 c 128,-1,42
 356.047851562 656.120117188 356.047851562 656.120117188 285.487304688 656.120117188 c 0,30,31
EndSplineSet
Validated: 33
EndChar

StartChar: colon
Encoding: 58 58 61
Width: 291
GlyphClass: 2
Flags: W
LayerCount: 2
Fore
SplineSet
216 104 m 1,0,-1
 216 0 l 1,1,-1
 108 0 l 1,2,-1
 108 104 l 1,3,-1
 216 104 l 1,0,-1
216 524 m 1,4,-1
 216 420 l 1,5,-1
 108 420 l 1,6,-1
 108 524 l 1,7,-1
 216 524 l 1,4,-1
EndSplineSet
Validated: 1
EndChar

StartChar: semicolon
Encoding: 59 59 62
Width: 291
GlyphClass: 2
Flags: W
LayerCount: 2
Fore
SplineSet
217 524 m 1,0,-1
 217 420 l 1,1,-1
 109 420 l 1,2,-1
 109 524 l 1,3,-1
 217 524 l 1,0,-1
108 104 m 1,4,-1
 217 104 l 1,5,-1
 217 -16 l 2,6,7
 217 -147 217 -147 108 -147 c 1,8,-1
 108 -109 l 1,9,10
 144 -108 144 -108 157 -89 c 128,-1,11
 170 -70 170 -70 170 -18 c 2,12,-1
 170 0 l 1,13,-1
 108 0 l 1,14,-1
 108 104 l 1,4,-1
EndSplineSet
Validated: 1
EndChar

StartChar: less
Encoding: 60 60 63
Width: 618
GlyphClass: 2
Flags: W
LayerCount: 2
Fore
SplineSet
35 198 m 1,0,-1
 35 267 l 1,1,-1
 544 474 l 1,2,-1
 544 395 l 1,3,-1
 134 234 l 1,4,-1
 544 70 l 1,5,-1
 544 -9 l 1,6,-1
 35 198 l 1,0,-1
EndSplineSet
Validated: 1
EndChar

StartChar: equal
Encoding: 61 61 64
Width: 618
GlyphClass: 2
Flags: W
LayerCount: 2
Fore
SplineSet
544 353 m 1,0,-1
 544 283 l 1,1,-1
 40 283 l 1,2,-1
 40 353 l 1,3,-1
 544 353 l 1,0,-1
544 181 m 1,4,-1
 544 111 l 1,5,-1
 40 111 l 1,6,-1
 40 181 l 1,7,-1
 544 181 l 1,4,-1
EndSplineSet
Validated: 1
EndChar

StartChar: greater
Encoding: 62 62 65
Width: 618
GlyphClass: 2
Flags: W
LayerCount: 2
Fore
SplineSet
549 267 m 1,0,-1
 549 198 l 1,1,-1
 40 -9 l 1,2,-1
 40 70 l 1,3,-1
 450 231 l 1,4,-1
 40 395 l 1,5,-1
 40 474 l 1,6,-1
 549 267 l 1,0,-1
EndSplineSet
Validated: 1
EndChar

StartChar: question
Encoding: 63 63 66
Width: 587
GlyphClass: 2
Flags: W
LayerCount: 2
Fore
SplineSet
518 549 m 0,0,1
 518 503 518 503 498.5 466 c 128,-1,2
 479 429 479 429 452 404.5 c 128,-1,3
 425 380 425 380 397.5 357.5 c 128,-1,4
 370 335 370 335 350.5 306.5 c 128,-1,5
 331 278 331 278 331 246 c 2,6,-1
 331 199 l 1,7,-1
 238 199 l 1,8,-1
 238 254 l 2,9,10
 238 291 238 291 257 324 c 128,-1,11
 276 357 276 357 303.5 381 c 128,-1,12
 331 405 331 405 358.5 429 c 128,-1,13
 386 453 386 453 405 483.5 c 128,-1,14
 424 514 424 514 424 549 c 0,15,16
 424 600 424 600 387.5 631.5 c 128,-1,17
 351 663 351 663 291 663 c 0,18,19
 215 663 215 663 186 622 c 128,-1,20
 157 581 157 581 157 507 c 1,21,-1
 68 507 l 1,22,23
 68 622 68 622 126 681.5 c 128,-1,24
 184 741 184 741 296 741 c 0,25,26
 397 741 397 741 457.5 689 c 128,-1,27
 518 637 518 637 518 549 c 0,0,1
331 104 m 1,28,-1
 331 0 l 1,29,-1
 238 0 l 1,30,-1
 238 104 l 1,31,-1
 331 104 l 1,28,-1
EndSplineSet
Validated: 1
EndChar

StartChar: at
Encoding: 64 64 67
Width: 1075
GlyphClass: 2
Flags: W
LayerCount: 2
Fore
SplineSet
672 501 m 1,0,-1
 758 501 l 1,1,-1
 665 221 l 2,2,3
 652 186 652 186 652 171 c 0,4,5
 652 153 652 153 667.5 140 c 128,-1,6
 683 127 683 127 704 127 c 0,7,8
 771 127 771 127 825 198 c 128,-1,9
 879 269 879 269 879 357 c 0,10,11
 879 482 879 482 770.5 573 c 128,-1,12
 662 664 662 664 513 664 c 0,13,14
 348 664 348 664 226 547 c 128,-1,15
 104 430 104 430 104 273 c 0,16,17
 104 130 104 130 216.5 32.5 c 128,-1,18
 329 -65 329 -65 494 -65 c 0,19,20
 576 -65 576 -65 695 -33 c 1,21,-1
 724 -100 l 1,22,23
 607 -142 607 -142 489 -142 c 0,24,25
 360 -142 360 -142 251 -88.5 c 128,-1,26
 142 -35 142 -35 79 57 c 128,-1,27
 16 149 16 149 16 258 c 0,28,29
 16 356 16 356 59.5 450.5 c 128,-1,30
 103 545 103 545 180 612 c 0,31,32
 249 672 249 672 341.5 706.5 c 128,-1,33
 434 741 434 741 526 741 c 0,34,35
 708 741 708 741 838.5 631 c 128,-1,36
 969 521 969 521 969 369 c 0,37,38
 969 246 969 246 880 146 c 0,39,40
 801 57 801 57 686 57 c 0,41,42
 587 57 587 57 572 134 c 1,43,44
 503 62 503 62 424 62 c 0,45,46
 352 62 352 62 303.5 114.5 c 128,-1,47
 255 167 255 167 255 245 c 0,48,49
 255 354 255 354 336 438 c 128,-1,50
 417 522 417 522 522 522 c 0,51,52
 610 522 610 522 649 435 c 1,53,-1
 672 501 l 1,0,-1
451 126 m 0,54,55
 519 126 519 126 566.5 209 c 128,-1,56
 614 292 614 292 614 368 c 0,57,58
 614 406 614 406 586 432 c 128,-1,59
 558 458 558 458 516 458 c 0,60,61
 450 458 450 458 399 393 c 128,-1,62
 348 328 348 328 348 244 c 0,63,64
 348 195 348 195 378.5 160.5 c 128,-1,65
 409 126 409 126 451 126 c 0,54,55
EndSplineSet
Validated: 1
EndChar

StartChar: A
Encoding: 65 65 68
Width: 705
GlyphClass: 2
Flags: W
LayerCount: 2
Fore
SplineSet
463.088867188 218.91015625 m 1,0,-1
 182.79296875 218.91015625 l 1,1,-1
 106.28125 0 l 1,2,-1
 7.7548828125 0 l 1,3,-1
 267.032226562 728.682617188 l 1,4,-1
 385.581054688 728.682617188 l 1,5,-1
 641.021484375 0 l 1,6,-1
 537.711914062 0 l 1,7,-1
 463.088867188 218.91015625 l 1,0,-1
437.233398438 296.868164062 m 1,8,-1
 325.303710938 628.708984375 l 1,9,-1
 205.700195312 296.868164062 l 1,10,-1
 437.233398438 296.868164062 l 1,8,-1
EndSplineSet
EndChar

StartChar: B
Encoding: 66 66 69
Width: 704
GlyphClass: 2
Flags: W
LayerCount: 2
Fore
SplineSet
644.7265625 207.9609375 m 0,0,1
 644.7265625 113.958007812 644.7265625 113.958007812 584.841796875 56.9951171875 c 128,-1,2
 524.951171875 0.025390625 524.951171875 0.025390625 426.537109375 0 c 2,3,-1
 68 0 l 1,4,-1
 68 728.967773438 l 1,5,-1
 393.395507812 728.967773438 l 2,6,7
 454.75390625 728.967773438 454.75390625 728.967773438 500.54296875 710.952148438 c 128,-1,8
 546.345703125 692.932617188 546.345703125 692.932617188 569.21484375 663.46875 c 128,-1,9
 592.106445312 633.892578125 592.106445312 633.892578125 602.356445312 604.471679688 c 128,-1,10
 612.5859375 575.029296875 612.5859375 575.029296875 612.5859375 543.97265625 c 0,11,12
 612.5859375 431.962890625 612.5859375 431.962890625 510.331054688 385.000976562 c 1,13,14
 580.541015625 357.953125 580.541015625 357.953125 612.5859375 315.999023438 c 0,15,16
 644.7265625 273.833984375 644.7265625 273.833984375 644.7265625 207.9609375 c 0,0,1
518.057617188 530.907226562 m 128,-1,18
 518.057617188 646.928710938 518.057617188 646.928710938 369.987304688 646.895507812 c 2,19,-1
 162.473632812 646.895507812 l 1,20,-1
 162.473632812 414.918945312 l 1,21,-1
 369.987304688 414.918945312 l 2,22,17
 518.029296875 414.918945312 518.029296875 414.918945312 518.057617188 530.907226562 c 128,-1,18
417.750976562 81.962890625 m 1,23,24
 467.401367188 81.962890625 467.401367188 81.962890625 498.598632812 103.481445312 c 128,-1,25
 529.784179688 125.000976562 529.784179688 125.000976562 540.022460938 150.96484375 c 128,-1,26
 550.252929688 176.912109375 550.252929688 176.912109375 550.252929688 206.959960938 c 0,27,28
 550.252929688 264.008789062 550.252929688 264.008789062 515.668945312 298.426757812 c 128,-1,29
 481.11328125 332.901367188 481.11328125 332.901367188 417.750976562 332.901367188 c 2,30,-1
 162.473632812 332.901367188 l 1,31,-1
 162.473632812 81.904296875 l 1,32,-1
 417.750976562 81.962890625 l 1,23,24
EndSplineSet
Validated: 33
EndChar

StartChar: C
Encoding: 67 67 70
Width: 764
GlyphClass: 2
Flags: W
LayerCount: 2
Fore
SplineSet
35.25 363.201171875 m 0,0,1
 35.25 412.91796875 35.25 412.91796875 44.19921875 461.953125 c 128,-1,2
 53.2236328125 510.923828125 53.2236328125 510.923828125 78.1201171875 563.70703125 c 128,-1,3
 103.021484375 616.51953125 103.021484375 616.51953125 139.948242188 655.953125 c 128,-1,4
 176.80078125 695.30859375 176.80078125 695.30859375 239.701171875 721.2890625 c 128,-1,5
 302.572265625 747.256835938 302.572265625 747.256835938 381.323242188 747.256835938 c 0,6,7
 627.703125 747.256835938 627.703125 747.256835938 672.575195312 509.827148438 c 1,8,-1
 573.935546875 509.827148438 l 1,9,10
 558.022460938 587.556640625 558.022460938 587.556640625 509.100585938 626.540039062 c 128,-1,11
 460.158203125 665.461914062 460.158203125 665.461914062 369.42578125 665.461914062 c 0,12,13
 259.697265625 665.461914062 259.697265625 665.461914062 195.830078125 584.670898438 c 128,-1,14
 132 503.922851562 132 503.922851562 132 364.202148438 c 0,15,16
 132 227.587890625 132 227.587890625 198.33203125 147.239257812 c 128,-1,17
 264.618164062 66.9453125 264.618164062 66.9453125 378.37890625 66.9453125 c 0,18,19
 471.122070312 66.9453125 471.122070312 66.9453125 521.001953125 117.322265625 c 128,-1,20
 570.916015625 167.740234375 570.916015625 167.740234375 588.8359375 273.45703125 c 1,21,-1
 688.588867188 273.45703125 l 1,22,23
 653.645507812 -14.7919921875 653.645507812 -14.7919921875 377.377929688 -14.845703125 c 0,24,25
 299.727539062 -14.845703125 299.727539062 -14.845703125 237.69921875 10.5634765625 c 128,-1,26
 175.86328125 35.984375 175.86328125 35.984375 138.948242188 74.8974609375 c 128,-1,27
 102.07421875 113.772460938 102.07421875 113.772460938 77.6201171875 166.197265625 c 128,-1,28
 53.2236328125 218.484375 53.2236328125 218.484375 44.19921875 266.451171875 c 128,-1,29
 35.25 314.48828125 35.25 314.48828125 35.25 363.201171875 c 0,0,1
EndSplineSet
Validated: 1
EndChar

StartChar: D
Encoding: 68 68 71
Width: 763
GlyphClass: 2
Flags: W
LayerCount: 2
Fore
SplineSet
76.0283203125 0 m 1,0,-1
 76.0283203125 728.62890625 l 1,1,-1
 333.196289062 728.62890625 l 2,2,3
 516.783203125 728.62890625 516.783203125 728.62890625 592.862304688 642.5546875 c 0,4,5
 673.598632812 551.217773438 673.598632812 551.217773438 673.598632812 364.814453125 c 0,6,7
 673.598632812 184.416992188 673.598632812 184.416992188 586.415039062 91.078125 c 0,8,9
 501.26171875 0 501.26171875 0 338.868164062 0 c 2,10,-1
 76.0283203125 0 l 1,0,-1
173 85.740234375 m 1,11,-1
 266.747070312 85.740234375 l 2,12,13
 371.204101562 85.740234375 371.204101562 85.740234375 423.265625 99.1064453125 c 128,-1,14
 475.331054688 112.4765625 475.331054688 112.4765625 513.29296875 156.9140625 c 0,15,16
 571.34375 224.852539062 571.34375 224.852539062 571.34375 363.813476562 c 0,17,18
 571.34375 516.916992188 571.34375 516.916992188 515.186523438 583.390625 c 0,19,20
 461.731445312 646.669921875 461.731445312 646.669921875 338.868164062 646.669921875 c 2,21,-1
 173 646.669921875 l 1,22,-1
 173 85.740234375 l 1,11,-1
EndSplineSet
Validated: 1
EndChar

StartChar: E
Encoding: 69 69 72
Width: 704
GlyphClass: 2
Flags: W
LayerCount: 2
Fore
SplineSet
178.137695312 333.788085938 m 1,0,-1
 178.137695312 84.40625 l 1,1,-1
 632.530273438 84.40625 l 1,2,-1
 632.530273438 2.6142578125 l 1,3,-1
 80.6083984375 2.6142578125 l 1,4,-1
 80.6083984375 729.795898438 l 1,5,-1
 614.235351562 729.795898438 l 1,6,-1
 614.235351562 648.004882812 l 1,7,-1
 178.192382812 648.004882812 l 1,8,-1
 178.192382812 415.579101562 l 1,9,-1
 598 415.579101562 l 1,10,-1
 598 333.788085938 l 1,11,-1
 178.137695312 333.788085938 l 1,0,-1
EndSplineSet
Validated: 1
EndChar

StartChar: F
Encoding: 70 70 73
Width: 646
GlyphClass: 2
Flags: W
LayerCount: 2
Fore
SplineSet
177 332 m 1,0,-1
 177 0 l 1,1,-1
 80 0 l 1,2,-1
 80 729 l 1,3,-1
 589 729 l 1,4,-1
 589 647 l 1,5,-1
 177 647 l 1,6,-1
 177 414 l 1,7,-1
 539 414 l 1,8,-1
 539 332 l 1,9,-1
 177 332 l 1,0,-1
EndSplineSet
Validated: 1
EndChar

StartChar: G
Encoding: 71 71 74
Width: 825
GlyphClass: 2
Flags: W
LayerCount: 2
Fore
SplineSet
126.759765625 366.81640625 m 0,0,1
 126.759765625 328.783203125 126.759765625 328.783203125 134.265625 290.25 c 128,-1,2
 141.772460938 251.716796875 141.772460938 251.716796875 160.288085938 209.680664062 c 128,-1,3
 178.8046875 167.64453125 178.8046875 167.64453125 208.830078125 136.1171875 c 128,-1,4
 238.856445312 104.58984375 238.856445312 104.58984375 287.397460938 84.072265625 c 128,-1,5
 335.939453125 63.5546875 335.939453125 63.5546875 398.994140625 63.5546875 c 0,6,7
 503.083984375 63.5546875 503.083984375 63.5546875 570.141601562 126.609375 c 128,-1,8
 637.19921875 189.6640625 637.19921875 189.6640625 637.19921875 287.748046875 c 2,9,-1
 637.19921875 307.765625 l 1,10,-1
 406 307.765625 l 1,11,-1
 406 389.8359375 l 1,12,-1
 722.2734375 389.8359375 l 1,13,-1
 722.2734375 0.5 l 1,14,-1
 661.220703125 0.5 l 1,15,-1
 637.19921875 97.583984375 l 1,16,17
 529.106445312 -18.515625 529.106445312 -18.515625 377.975585938 -18.515625 c 0,18,19
 230.3359375 -18.515625 230.3359375 -18.515625 134.157226562 87.12890625 c 0,20,21
 30.6767578125 200.798828125 30.6767578125 200.798828125 30.6767578125 361.7578125 c 0,22,23
 30.6767578125 409.798828125 30.6767578125 409.798828125 39.6845703125 458.340820312 c 128,-1,24
 48.6923828125 506.8828125 48.6923828125 506.8828125 74.71484375 559.928710938 c 128,-1,25
 100.737304688 612.974609375 100.737304688 612.974609375 139.770507812 653.008789062 c 128,-1,26
 178.8046875 693.043945312 178.8046875 693.043945312 245.361328125 719.56640625 c 128,-1,27
 311.918945312 746.088867188 311.918945312 746.088867188 394.990234375 746.088867188 c 0,28,29
 525.102539062 746.088867188 525.102539062 746.088867188 608.674804688 685.037109375 c 128,-1,30
 692.247070312 623.984375 692.247070312 623.984375 712.264648438 512.887695312 c 1,31,-1
 613.178710938 512.887695312 l 1,32,33
 598.166015625 582.948242188 598.166015625 582.948242188 539.115234375 623.483398438 c 128,-1,34
 480.064453125 664.018554688 480.064453125 664.018554688 393.990234375 664.018554688 c 0,35,36
 272.885742188 664.018554688 272.885742188 664.018554688 199.822265625 582.448242188 c 128,-1,37
 126.759765625 500.877929688 126.759765625 500.877929688 126.759765625 366.81640625 c 0,0,1
EndSplineSet
Validated: 1
EndChar

StartChar: H
Encoding: 72 72 75
Width: 764
GlyphClass: 2
Flags: W
LayerCount: 2
Fore
SplineSet
558 332 m 1,0,-1
 168 332 l 1,1,-1
 168 0 l 1,2,-1
 72 0 l 1,3,-1
 72 729 l 1,4,-1
 168 729 l 1,5,-1
 168 414 l 1,6,-1
 558 414 l 1,7,-1
 558 729 l 1,8,-1
 655 729 l 1,9,-1
 655 0 l 1,10,-1
 558 0 l 1,11,-1
 558 332 l 1,0,-1
EndSplineSet
Validated: 1
EndChar

StartChar: I
Encoding: 73 73 76
Width: 292
GlyphClass: 2
Flags: W
LayerCount: 2
Fore
SplineSet
196 729 m 1,0,-1
 196 0 l 1,1,-1
 98 0 l 1,2,-1
 98 729 l 1,3,-1
 196 729 l 1,0,-1
EndSplineSet
Validated: 1
EndChar

StartChar: J
Encoding: 74 74 77
Width: 531
GlyphClass: 2
Flags: W
LayerCount: 2
Fore
SplineSet
219.068359375 61.38671875 m 0,0,1
 291.118164062 61.38671875 291.118164062 61.38671875 315.372070312 102.9765625 c 0,2,3
 334 134.924804688 334 134.924804688 334 220.857421875 c 2,4,-1
 334 729.07421875 l 1,5,-1
 430.083007812 729.07421875 l 1,6,-1
 430.083007812 187.215820312 l 2,7,8
 430.083007812 93.080078125 430.083007812 93.080078125 373.142578125 38.6455078125 c 128,-1,9
 316.151367188 -15.8466796875 316.151367188 -15.8466796875 218.12109375 -15.8466796875 c 0,10,11
 121.041992188 -15.8466796875 121.041992188 -15.8466796875 65.0439453125 35.6435546875 c 128,-1,12
 9.0537109375 87.212890625 9.0537109375 87.212890625 9.0537109375 175.318359375 c 2,13,-1
 9.0537109375 238.706054688 l 1,14,-1
 107.137695312 238.706054688 l 1,15,-1
 107.137695312 192.166015625 l 2,16,17
 107.137695312 128.744140625 107.137695312 128.744140625 135.883789062 95.08203125 c 128,-1,18
 164.508789062 61.38671875 164.508789062 61.38671875 219.068359375 61.38671875 c 0,0,1
EndSplineSet
Validated: 1
EndChar

StartChar: K
Encoding: 75 75 78
Width: 703
GlyphClass: 2
Flags: W
LayerCount: 2
Fore
SplineSet
164.057617188 255.053710938 m 1,0,-1
 164.057617188 0.1123046875 l 1,1,-1
 69.5888671875 0.1123046875 l 1,2,-1
 69.5888671875 728.908203125 l 1,3,-1
 164.057617188 728.908203125 l 1,4,-1
 164.057617188 360.03125 l 1,5,-1
 532.266601562 728.908203125 l 1,6,-1
 653.038085938 728.908203125 l 1,7,-1
 353 431.985351562 l 1,8,-1
 687.288085938 0.1123046875 l 1,9,-1
 569.686523438 0.1123046875 l 1,10,-1
 284.774414062 373.989257812 l 1,11,-1
 164.057617188 255.053710938 l 1,0,-1
EndSplineSet
Validated: 1
EndChar

StartChar: L
Encoding: 76 76 79
Width: 586
GlyphClass: 2
Flags: W
LayerCount: 2
Fore
SplineSet
168 729 m 1,0,-1
 168 82 l 1,1,-1
 542 82 l 1,2,-1
 542 0 l 1,3,-1
 71 0 l 1,4,-1
 71 729 l 1,5,-1
 168 729 l 1,0,-1
EndSplineSet
Validated: 1
EndChar

StartChar: M
Encoding: 77 77 80
Width: 882
GlyphClass: 2
Flags: W
LayerCount: 2
Fore
SplineSet
455.41796875 0 m 1,0,-1
 377.36328125 0 l 1,1,-1
 149.685546875 589.227539062 l 1,2,-1
 149.685546875 0 l 1,3,-1
 60.9501953125 0 l 1,4,-1
 60.9501953125 728.5546875 l 1,5,-1
 182 728.5546875 l 1,6,-1
 416.555664062 124.40625 l 1,7,-1
 654.141601562 728.5546875 l 1,8,-1
 772.161132812 728.5546875 l 1,9,-1
 772.161132812 0 l 1,10,-1
 683.42578125 0 l 1,11,-1
 683.42578125 589.227539062 l 1,12,-1
 455.41796875 0 l 1,0,-1
EndSplineSet
Validated: 1
EndChar

StartChar: N
Encoding: 78 78 81
Width: 764
GlyphClass: 2
Flags: W
LayerCount: 2
Fore
SplineSet
634.186523438 729.01953125 m 1,0,-1
 634.186523438 0 l 1,1,-1
 548 0 l 1,2,-1
 155.995117188 591.009765625 l 1,3,-1
 155.995117188 0 l 1,4,-1
 64.970703125 0 l 1,5,-1
 64.970703125 729.01953125 l 1,6,-1
 169.953125 729.01953125 l 1,7,-1
 543.883789062 166.201171875 l 1,8,-1
 543.107421875 729.01953125 l 1,9,-1
 634.186523438 729.01953125 l 1,0,-1
EndSplineSet
Validated: 1
EndChar

StartChar: O
Encoding: 79 79 82
Width: 824
GlyphClass: 2
Flags: W
LayerCount: 2
Fore
SplineSet
735.583984375 359.143554688 m 0,0,1
 735.583984375 197.557617188 735.583984375 197.557617188 638.387695312 90.857421875 c 128,-1,2
 541.275390625 -15.8466796875 541.275390625 -15.8466796875 379.889648438 -15.8466796875 c 0,3,4
 220.502929688 -15.8466796875 220.502929688 -15.8466796875 122.388671875 89.3564453125 c 128,-1,5
 24.224609375 194.609375 24.224609375 194.609375 24.25 365.1484375 c 128,-1,6
 24.25 535.715820312 24.25 535.715820312 125.00390625 640.940429688 c 128,-1,7
 225.752929688 746.198242188 225.752929688 746.198242188 378.943359375 746.198242188 c 0,8,9
 540.278320312 746.198242188 540.278320312 746.198242188 637.887695312 640.498046875 c 128,-1,10
 735.583984375 534.631835938 735.583984375 534.631835938 735.583984375 359.143554688 c 0,0,1
379.444335938 664.352539062 m 0,11,12
 262.763671875 664.352539062 262.763671875 664.352539062 191.89453125 582.056640625 c 128,-1,13
 121 499.739257812 121 499.739257812 121 365.1484375 c 128,-1,14
 121 230.532226562 121 230.532226562 192.336914062 148.181640625 c 128,-1,15
 263.623046875 65.890625 263.623046875 65.890625 380.33203125 65.890625 c 128,-1,16
 497.020507812 65.890625 497.020507812 65.890625 568.328125 147.681640625 c 128,-1,17
 639.66796875 229.456054688 639.66796875 229.456054688 639.66796875 361.14453125 c 0,18,19
 639.66796875 498.7890625 639.66796875 498.7890625 568.828125 581.555664062 c 128,-1,20
 497.966796875 664.352539062 497.966796875 664.352539062 379.444335938 664.352539062 c 0,11,12
EndSplineSet
Validated: 33
EndChar

StartChar: P
Encoding: 80 80 83
Width: 704
GlyphClass: 2
Flags: W
LayerCount: 2
Fore
SplineSet
628.056640625 515.010742188 m 0,0,1
 628.056640625 421.984375 628.056640625 421.984375 569.059570312 365.490234375 c 128,-1,2
 510.071289062 309 510.071289062 309 415.0390625 309 c 2,3,-1
 177 309 l 1,4,-1
 177 0.0087890625 l 1,5,-1
 79.970703125 0.0087890625 l 1,6,-1
 79.970703125 729.028320312 l 1,7,-1
 393.966796875 729.028320312 l 2,8,9
 505.975585938 729.028320312 505.975585938 729.028320312 567.00390625 673.53515625 c 128,-1,10
 628.056640625 617.987304688 628.056640625 617.987304688 628.056640625 515.010742188 c 0,0,1
177.0546875 391.012695312 m 1,11,-1
 391.130859375 391.012695312 l 2,12,13
 461.158203125 391.012695312 461.158203125 391.012695312 500.112304688 425.041992188 c 128,-1,14
 539.091796875 458.94140625 539.091796875 458.94140625 539.091796875 519.068359375 c 128,-1,15
 539.091796875 579.041015625 539.091796875 579.041015625 500.112304688 613.095703125 c 128,-1,16
 461.045898438 647.06640625 461.045898438 647.06640625 391.130859375 647.06640625 c 2,17,-1
 177.0546875 647.06640625 l 1,18,-1
 177.0546875 391.012695312 l 1,11,-1
EndSplineSet
Validated: 1
EndChar

StartChar: Q
Encoding: 81 81 84
Width: 824
GlyphClass: 2
Flags: W
LayerCount: 2
Fore
SplineSet
727.440429688 -4.9501953125 m 1,0,-1
 678.731445312 -62.6083984375 l 1,1,-1
 570.3046875 23.908203125 l 1,2,3
 498.663085938 -16.6806640625 498.663085938 -16.6806640625 382.36328125 -16.6806640625 c 0,4,5
 221.75390625 -16.6806640625 221.75390625 -16.6806640625 122.918945312 88.2431640625 c 128,-1,6
 24.00390625 193.162109375 24.00390625 193.162109375 24 363.258789062 c 128,-1,7
 24 533.318359375 24 533.318359375 122.918945312 638.216796875 c 128,-1,8
 221.833007812 743.13671875 221.833007812 743.13671875 382.36328125 743.140625 c 0,9,10
 541.91796875 743.140625 541.91796875 743.140625 641.366210938 638.717773438 c 128,-1,11
 740.701171875 534.297851562 740.701171875 534.297851562 740.73046875 365.202148438 c 0,12,13
 740.73046875 188.633789062 740.73046875 188.633789062 629.96875 71.6162109375 c 1,14,-1
 727.440429688 -4.9501953125 l 1,0,-1
466.881835938 199.893554688 m 1,15,-1
 558.348632812 127.276367188 l 1,16,17
 645.703125 204.860351562 645.703125 204.860351562 645.703125 364.147460938 c 0,18,19
 645.703125 497.432617188 645.703125 497.432617188 573.252929688 579.4453125 c 128,-1,20
 500.7734375 661.516601562 500.7734375 661.516601562 382.309570312 661.516601562 c 128,-1,21
 263.844726562 661.516601562 263.844726562 661.516601562 191.365234375 579.4453125 c 128,-1,22
 118.915039062 497.404296875 118.915039062 497.404296875 118.915039062 363.146484375 c 128,-1,23
 118.915039062 228.860351562 118.915039062 228.860351562 190.865234375 146.84765625 c 128,-1,24
 262.84375 64.7763671875 262.84375 64.7763671875 381.30859375 64.7763671875 c 0,25,26
 455.747070312 64.7763671875 455.747070312 64.7763671875 495.627929688 82.5166015625 c 1,27,-1
 419.061523438 144.178710938 l 1,28,-1
 466.881835938 199.893554688 l 1,15,-1
EndSplineSet
Validated: 1
EndChar

StartChar: R
Encoding: 82 82 85
Width: 763
GlyphClass: 2
Flags: W
LayerCount: 2
Fore
SplineSet
533.806640625 351.911132812 m 1,0,1
 565.884765625 338.3203125 565.884765625 338.3203125 588.07421875 319.663085938 c 0,2,3
 609.734375 301.372070312 609.734375 301.372070312 619.827148438 277.626953125 c 0,4,5
 641.857421875 225.727539062 641.857421875 225.727539062 641.512695312 159.358398438 c 0,6,7
 641.270507812 104.469726562 641.270507812 104.469726562 651.020507812 67.4453125 c 2,8,-1
 679.486328125 0 l 1,9,-1
 568.50390625 0 l 1,10,11
 551.810546875 36.5732421875 551.810546875 36.5732421875 549.099609375 97.9169921875 c 0,12,13
 546.80078125 152.09765625 546.80078125 152.09765625 543.594726562 179.875976562 c 0,14,15
 536.37890625 242.3046875 536.37890625 242.3046875 509.8984375 270.065429688 c 0,16,17
 474.7265625 306.930664062 474.7265625 306.930664062 422.376953125 306.930664062 c 2,18,-1
 178 306.930664062 l 1,19,-1
 178 0 l 1,20,-1
 83.197265625 0 l 1,21,-1
 83.197265625 729.294921875 l 1,22,-1
 427.715820312 729.294921875 l 2,23,24
 541.41796875 729.294921875 541.41796875 729.294921875 602.8125 677.416992188 c 128,-1,25
 664.278320312 625.53515625 664.278320312 625.53515625 664.252929688 528.956054688 c 0,26,27
 664.252929688 465.259765625 664.252929688 465.259765625 635.060546875 423.139648438 c 0,28,29
 598.329101562 370.043945312 598.329101562 370.043945312 533.806640625 351.911132812 c 1,0,1
568.336914062 515.552734375 m 0,30,31
 568.336914062 586.551757812 568.336914062 586.551757812 528.915039062 621.64453125 c 0,32,33
 502.571289062 645.055664062 502.571289062 645.055664062 408.252929688 645.055664062 c 2,34,-1
 178 645.055664062 l 1,35,-1
 178 387.166992188 l 1,36,-1
 408.252929688 387.166992188 l 2,37,38
 489.801757812 387.166992188 489.801757812 387.166992188 529.524414062 420.416015625 c 0,39,40
 568.336914062 452.890625 568.336914062 452.890625 568.336914062 515.552734375 c 0,30,31
EndSplineSet
Validated: 33
EndChar

StartChar: S
Encoding: 83 83 86
Width: 705
GlyphClass: 2
Flags: W
LayerCount: 2
Fore
SplineSet
342.732421875 52.9404296875 m 0,0,1
 398.458984375 51.7646484375 398.458984375 51.7646484375 442.931640625 66.2265625 c 0,2,3
 483.599609375 79.451171875 483.599609375 79.451171875 502.87109375 100.981445312 c 0,4,5
 521.9375 122.379882812 521.9375 122.379882812 530.060546875 143.405273438 c 0,6,7
 538.401367188 164.99609375 538.401367188 164.99609375 538.401367188 195.170898438 c 0,8,9
 538.401367188 285.374023438 538.401367188 285.374023438 399.448242188 321.225585938 c 0,10,11
 296.513671875 340.012695312 296.513671875 340.012695312 205.614257812 365.096679688 c 0,12,13
 137.500976562 383.85546875 137.500976562 383.85546875 98.1884765625 431.31640625 c 128,-1,14
 58.875 478.778320312 58.875 478.778320312 58.875 526.903320312 c 0,15,16
 58.875 625.85546875 58.875 625.85546875 131.383789062 683.42578125 c 0,17,18
 204.109375 741.087890625 204.109375 741.087890625 328.887695312 741.087890625 c 0,19,20
 448.969726562 741.087890625 448.969726562 741.087890625 515.994140625 681.423828125 c 0,21,22
 585.079101562 619.845703125 585.079101562 619.845703125 594.670898438 514.892578125 c 1,23,-1
 507.3203125 514.892578125 l 1,24,25
 506.411132812 579.481445312 506.411132812 579.481445312 453.774414062 624.432617188 c 0,26,27
 408.568359375 662.966796875 408.568359375 662.966796875 325.884765625 662.966796875 c 0,28,29
 244.956054688 662.966796875 244.956054688 662.966796875 200.055664062 630.212890625 c 0,30,31
 155.850585938 597.834960938 155.850585938 597.834960938 155.850585938 539.96875 c 0,32,33
 155.850585938 497.990234375 155.850585938 497.990234375 183.875 473.969726562 c 0,34,35
 207.924804688 453.293945312 207.924804688 453.293945312 281.458984375 436.37890625 c 2,36,-1
 471.510742188 387.395507812 l 2,37,38
 542.784179688 368.862304688 542.784179688 368.862304688 590 315 c 0,39,40
 632.036132812 266.958007812 632.036132812 266.958007812 632.036132812 199.954101562 c 0,41,42
 632.036132812 170.900390625 632.036132812 170.900390625 624.530273438 142.458984375 c 128,-1,43
 617.010742188 113.888671875 617.010742188 113.888671875 596.004882812 83.466796875 c 128,-1,44
 574.979492188 52.927734375 574.979492188 52.927734375 543.017578125 29.974609375 c 128,-1,45
 510.95703125 6.9296875 510.95703125 6.9296875 457.498046875 -8.05859375 c 128,-1,46
 403.952148438 -23.0712890625 403.952148438 -23.0712890625 336.005859375 -23.0712890625 c 0,47,48
 233.326171875 -23.0712890625 233.326171875 -23.0712890625 172.418945312 9.6240234375 c 0,49,50
 100.686523438 48.1689453125 100.686523438 48.1689453125 63.771484375 127.170898438 c 0,51,52
 37.791015625 182.65234375 37.791015625 182.65234375 36.96875 231.982421875 c 1,53,-1
 127.993164062 231.982421875 l 1,54,-1
 127.993164062 226.977539062 l 2,55,56
 127.993164062 210.455078125 127.993164062 210.455078125 142.893554688 169.708007812 c 0,57,58
 150.450195312 149.03515625 150.450195312 149.03515625 174.641601562 117.270507812 c 0,59,60
 221.352539062 55.458984375 221.352539062 55.458984375 342.732421875 52.9404296875 c 0,0,1
EndSplineSet
Validated: 33
EndChar

StartChar: T
Encoding: 84 84 87
Width: 647
GlyphClass: 2
Flags: W
LayerCount: 2
Fore
SplineSet
356 647.225585938 m 1,0,-1
 356 0 l 1,1,-1
 258.970703125 0 l 1,2,-1
 258.970703125 647.225585938 l 1,3,-1
 9.8681640625 647.225585938 l 1,4,-1
 9.8681640625 729.241210938 l 1,5,-1
 604.047851562 729.241210938 l 1,6,-1
 604.047851562 647.225585938 l 1,7,-1
 356 647.225585938 l 1,0,-1
EndSplineSet
Validated: 1
EndChar

StartChar: U
Encoding: 85 85 88
Width: 764
GlyphClass: 2
Flags: W
LayerCount: 2
Fore
SplineSet
555.969726562 729 m 1,0,-1
 652.38671875 729 l 1,1,-1
 652.38671875 220.173828125 l 2,2,3
 652.38671875 110.825195312 652.38671875 110.825195312 573.376953125 46.244140625 c 128,-1,4
 494.325195312 -18.365234375 494.325195312 -18.365234375 362.194335938 -18.365234375 c 0,5,6
 227.991210938 -18.365234375 227.991210938 -18.365234375 151.01171875 45.744140625 c 128,-1,7
 74 109.907226562 74 109.907226562 74 220.173828125 c 2,8,-1
 74 729 l 1,9,-1
 170.416015625 729 l 1,10,-1
 170.416015625 220.173828125 l 2,11,12
 170.416015625 141.685546875 170.416015625 141.685546875 222.57421875 102.405273438 c 128,-1,13
 274.744140625 63.150390625 274.744140625 63.150390625 362.194335938 63.150390625 c 0,14,15
 452.638671875 63.150390625 452.638671875 63.150390625 504.317382812 104.907226562 c 128,-1,16
 555.969726562 146.634765625 555.969726562 146.634765625 555.969726562 220.173828125 c 2,17,-1
 555.969726562 729 l 1,0,-1
EndSplineSet
Validated: 1
EndChar

StartChar: V
Encoding: 86 86 89
Width: 705
GlyphClass: 2
Flags: W
LayerCount: 2
Fore
SplineSet
394 0 m 1,0,-1
 290 0 l 1,1,-1
 18 729 l 1,2,-1
 122 729 l 1,3,-1
 344 112 l 1,4,-1
 554 729 l 1,5,-1
 657 729 l 1,6,-1
 394 0 l 1,0,-1
EndSplineSet
Validated: 1
EndChar

StartChar: W
Encoding: 87 87 90
Width: 999
GlyphClass: 2
Flags: W
LayerCount: 2
Fore
SplineSet
715.833984375 0.98046875 m 1,0,-1
 626.036132812 0.98046875 l 1,1,-1
 457.278320312 619.626953125 l 1,2,-1
 293.361328125 0.98046875 l 1,3,-1
 203.337890625 0.98046875 l 1,4,-1
 4 729 l 1,5,-1
 108.143554688 729 l 1,6,-1
 245.094726562 137.82421875 l 1,7,-1
 408.069335938 729 l 1,8,-1
 508.379882812 729 l 1,9,-1
 675.245117188 137.82421875 l 1,10,-1
 809.306640625 729 l 1,11,-1
 913.450195312 729 l 1,12,-1
 715.833984375 0.98046875 l 1,0,-1
EndSplineSet
Validated: 1
EndChar

StartChar: X
Encoding: 88 88 91
Width: 705
GlyphClass: 2
Flags: W
LayerCount: 2
Fore
SplineSet
379.041015625 374.043945312 m 1,0,-1
 636.596679688 0 l 1,1,-1
 521.717773438 0 l 1,2,-1
 323.546875 304.041015625 l 1,3,-1
 124.43359375 0 l 1,4,-1
 11.4443359375 0 l 1,5,-1
 269 374.043945312 l 1,6,-1
 27.73828125 729.07421875 l 1,7,-1
 140.72265625 729.07421875 l 1,8,-1
 326.44140625 443.048828125 l 1,9,-1
 514.103515625 729.07421875 l 1,10,-1
 624.198242188 729.07421875 l 1,11,-1
 379.041015625 374.043945312 l 1,0,-1
EndSplineSet
Validated: 1
EndChar

StartChar: Y
Encoding: 89 89 92
Width: 705
GlyphClass: 2
Flags: W
LayerCount: 2
Fore
SplineSet
389 286 m 1,0,-1
 389 0 l 1,1,-1
 292 0 l 1,2,-1
 292 286 l 1,3,-1
 0 729 l 1,4,-1
 120 729 l 1,5,-1
 342 374 l 1,6,-1
 559 729 l 1,7,-1
 674 729 l 1,8,-1
 389 286 l 1,0,-1
EndSplineSet
Validated: 1
EndChar

StartChar: Z
Encoding: 90 90 93
Width: 647
GlyphClass: 2
Flags: W
LayerCount: 2
Fore
SplineSet
580 729.057617188 m 1,0,-1
 580 645.040039062 l 1,1,-1
 136.008789062 82 l 1,2,-1
 581.947265625 82 l 1,3,-1
 581.947265625 -0.0166015625 l 1,4,-1
 16.4052734375 -0.0166015625 l 1,5,-1
 16.4052734375 82 l 1,6,-1
 462.344726562 647.041992188 l 1,7,-1
 44.8173828125 647.041992188 l 1,8,-1
 44.8173828125 729.057617188 l 1,9,-1
 580 729.057617188 l 1,0,-1
EndSplineSet
Validated: 1
EndChar

StartChar: bracketleft
Encoding: 91 91 94
Width: 291
GlyphClass: 2
Flags: W
LayerCount: 2
Fore
SplineSet
254 729 m 1,0,-1
 254 657 l 1,1,-1
 147 657 l 1,2,-1
 147 -140 l 1,3,-1
 254 -140 l 1,4,-1
 254 -212 l 1,5,-1
 60 -212 l 1,6,-1
 60 729 l 1,7,-1
 254 729 l 1,0,-1
EndSplineSet
Validated: 1
EndChar

StartChar: backslash
Encoding: 92 92 95
Width: 292
GlyphClass: 2
Flags: W
LayerCount: 2
Fore
SplineSet
43 729 m 1,0,-1
 290 -20 l 1,1,-1
 233 -20 l 1,2,-1
 -14 729 l 1,3,-1
 43 729 l 1,0,-1
EndSplineSet
Validated: 1
EndChar

StartChar: bracketright
Encoding: 93 93 96
Width: 292
GlyphClass: 2
Flags: W
LayerCount: 2
Fore
SplineSet
18 -212 m 1,0,-1
 18 -140 l 1,1,-1
 125 -140 l 1,2,-1
 125 657 l 1,3,-1
 18 657 l 1,4,-1
 18 729 l 1,5,-1
 212 729 l 1,6,-1
 212 -212 l 1,7,-1
 18 -212 l 1,0,-1
EndSplineSet
Validated: 1
EndChar

StartChar: asciicircum
Encoding: 94 94 97
Width: 495
GlyphClass: 2
Flags: W
LayerCount: 2
Fore
SplineSet
196 709 m 1,0,-1
 271 709 l 1,1,-1
 433 329 l 1,2,-1
 361 329 l 1,3,-1
 234 629 l 1,4,-1
 108 329 l 1,5,-1
 36 329 l 1,6,-1
 196 709 l 1,0,-1
EndSplineSet
Validated: 1
EndChar

StartChar: underscore
Encoding: 95 95 98
Width: 588
GlyphClass: 2
Flags: W
LayerCount: 2
Fore
SplineSet
590 -126 m 1,0,-1
 590 -176 l 1,1,-1
 -34 -176 l 1,2,-1
 -34 -126 l 1,3,-1
 590 -126 l 1,0,-1
EndSplineSet
Validated: 1
EndChar

StartChar: grave
Encoding: 96 96 99
Width: 353
GlyphClass: 2
Flags: W
LayerCount: 2
Fore
SplineSet
135 740 m 1,0,-1
 235 592 l 1,1,-1
 173 592 l 1,2,-1
 18 740 l 1,3,-1
 135 740 l 1,0,-1
EndSplineSet
Validated: 1
EndChar

StartChar: a
Encoding: 97 97 100
Width: 592
GlyphClass: 2
Flags: W
LayerCount: 2
Fore
SplineSet
52.7412109375 366.569335938 m 4,0,1
 58.9384765625 541.107421875 58.9384765625 541.107421875 265.983398438 541.107421875 c 4,2,3
 367.012695312 541.107421875 367.012695312 541.107421875 419.057617188 503.075195312 c 132,-1,4
 471.047851562 464.94140625 471.047851562 464.94140625 471.047851562 393.092773438 c 6,5,-1
 471.047851562 102.896484375 l 6,6,7
 471.047851562 62.640625 471.047851562 62.640625 518.142578125 62.640625 c 4,8,9
 527.809570312 62.640625 527.809570312 62.640625 536.771484375 64.587890625 c 6,10,-1
 536.771484375 2.755859375 l 5,11,12
 499.489257812 -6.0810546875 499.489257812 -6.0810546875 477.887695312 -6.0849609375 c 4,13,14
 435.7421875 -6.0849609375 435.7421875 -6.0849609375 414.111328125 12.04296875 c 132,-1,15
 392.505859375 30.220703125 392.505859375 30.220703125 387.588867188 69.42578125 c 5,16,17
 313.0703125 -18.150390625 313.0703125 -18.150390625 202.149414062 -18.150390625 c 4,18,19
 120.6875 -18.150390625 120.6875 -18.150390625 72.150390625 23.052734375 c 132,-1,20
 23.5498046875 64.30078125 23.5498046875 64.30078125 23.5498046875 133.922851562 c 4,21,22
 23.5498046875 228.85546875 23.5498046875 228.85546875 114.794921875 273.935546875 c 4,23,24
 154.87109375 293.723632812 154.87109375 293.723632812 242.350585938 305.12890625 c 4,25,26
 264.478515625 308.014648438 264.478515625 308.014648438 294.341796875 312.022460938 c 4,27,28
 345.426757812 317.952148438 345.426757812 317.952148438 365.010742188 330.651367188 c 132,-1,29
 384.640625 343.428710938 384.640625 343.428710938 384.640625 368.905273438 c 6,30,-1
 384.640625 390.143554688 l 6,31,32
 384.640625 427.97265625 384.640625 427.97265625 353.225585938 448.806640625 c 132,-1,33
 321.778320312 469.658203125 321.778320312 469.658203125 262.922851562 469.658203125 c 4,34,35
 192.103515625 469.658203125 192.103515625 469.658203125 161.001953125 442.46875 c 4,36,37
 138.69921875 422.926757812 138.69921875 422.926757812 136.759765625 366.515625 c 5,38,-1
 52.7412109375 366.569335938 l 4,0,1
221.833007812 53.5205078125 m 4,39,40
 293.4453125 53.5205078125 293.4453125 53.5205078125 339.100585938 89.330078125 c 4,41,42
 389.03125 128.493164062 389.03125 128.493164062 389.03125 166.342773438 c 6,43,-1
 389.03125 275.103515625 l 5,44,45
 366.849609375 264.373046875 366.849609375 264.373046875 304.016601562 250.356445312 c 4,46,47
 266.409179688 241.973632812 266.409179688 241.973632812 215.047851562 233.67578125 c 4,48,49
 165.97265625 225.76953125 165.97265625 225.76953125 145.379882812 207.2109375 c 4,50,51
 114.907226562 179.712890625 114.907226562 179.712890625 114.907226562 135.983398438 c 4,52,53
 114.907226562 96.7744140625 114.907226562 96.7744140625 142.877929688 75.1513671875 c 132,-1,54
 170.85546875 53.5205078125 170.85546875 53.5205078125 221.833007812 53.5205078125 c 4,39,40
EndSplineSet
Validated: 1
EndChar

StartChar: b
Encoding: 98 98 101
Width: 592
GlyphClass: 2
Flags: W
LayerCount: 2
Fore
SplineSet
40.3056640625 732.606445312 m 1,0,-1
 126.045898438 732.606445312 l 1,1,-1
 126.045898438 457.202148438 l 1,2,3
 184.49609375 542 184.49609375 542 292.635742188 542 c 0,4,5
 397.734375 542 397.734375 542 459 469.045898438 c 128,-1,6
 520.165039062 396.13671875 520.165039062 396.13671875 520.165039062 270.874023438 c 0,7,8
 520.165039062 142.680664062 520.165039062 142.680664062 456.551757812 65.3095703125 c 128,-1,9
 392.997070312 -12.0908203125 392.997070312 -12.0908203125 286.963867188 -12.0908203125 c 0,10,11
 178.666992188 -12.0908203125 178.666992188 -12.0908203125 118.259765625 75.59765625 c 1,12,-1
 118.259765625 0.474609375 l 1,13,-1
 40.3056640625 0.474609375 l 1,14,-1
 40.3056640625 732.606445312 l 1,0,-1
277.009765625 466.709960938 m 0,15,16
 208.780273438 466.709960938 208.780273438 466.709960938 167.415039062 411.608398438 c 128,-1,17
 125.991210938 356.518554688 125.991210938 356.518554688 125.991210938 261.533203125 c 0,18,19
 125.991210938 171.859375 125.991210938 171.859375 167.415039062 117.854492188 c 128,-1,20
 208.780273438 63.80859375 208.780273438 63.80859375 277.009765625 63.80859375 c 0,21,22
 347.124023438 63.80859375 347.124023438 63.80859375 390.995117188 117.854492188 c 0,23,24
 433.198242188 169.841796875 433.198242188 169.841796875 433.198242188 258.642578125 c 0,25,26
 433.198242188 357.649414062 433.198242188 357.649414062 391.94140625 411.107421875 c 0,27,28
 349.075195312 466.735351562 349.075195312 466.735351562 277.009765625 466.709960938 c 0,15,16
EndSplineSet
Validated: 33
EndChar

StartChar: c
Encoding: 99 99 102
Width: 534
GlyphClass: 2
Flags: W
LayerCount: 2
Fore
SplineSet
501 359.508789062 m 1,0,-1
 408.419921875 359.508789062 l 1,1,2
 400.159179688 414.665039062 400.159179688 414.665039062 364.715820312 444.190429688 c 128,-1,3
 329.197265625 473.774414062 329.197265625 473.774414062 273.19140625 473.774414062 c 0,4,5
 196.400390625 473.774414062 196.400390625 473.774414062 151.919921875 418.114257812 c 128,-1,6
 107.547851562 362.482421875 107.547851562 362.482421875 107.547851562 264.260742188 c 0,7,8
 107.547851562 171.013671875 107.547851562 171.013671875 152.474609375 117.909179688 c 128,-1,9
 197.372070312 64.7548828125 197.372070312 64.7548828125 275.359375 64.7548828125 c 0,10,11
 391.989257812 64.7548828125 391.989257812 64.7548828125 415.592773438 191.084960938 c 1,12,-1
 507.11328125 191.084960938 l 1,13,14
 497.85546875 94.8349609375 497.85546875 94.8349609375 436.665039062 41.234375 c 128,-1,15
 375.475585938 -12.3701171875 375.475585938 -12.3701171875 272.63671875 -12.3701171875 c 0,16,17
 156.44921875 -12.3701171875 156.44921875 -12.3701171875 88.03125 62.306640625 c 128,-1,18
 19.6435546875 136.951171875 19.6435546875 136.951171875 19.638671875 264.314453125 c 0,19,20
 19.638671875 394.59765625 19.638671875 394.59765625 89.0322265625 472.828125 c 128,-1,21
 158.450195312 551.0078125 158.450195312 551.0078125 273.637695312 551.0078125 c 0,22,23
 373.265625 551.0078125 373.265625 551.0078125 432.549804688 501.907226562 c 128,-1,24
 491.73828125 452.731445312 491.73828125 452.731445312 501 359.508789062 c 1,0,-1
EndSplineSet
Validated: 1
EndChar

StartChar: d
Encoding: 100 100 103
Width: 594
GlyphClass: 2
Flags: W
LayerCount: 2
Fore
SplineSet
486.62109375 742.727539062 m 1,0,-1
 486.62109375 0.6416015625 l 1,1,-1
 409.666992188 0.6416015625 l 1,2,-1
 409.666992188 67.8662109375 l 1,3,4
 375.354492188 30.1669921875 375.354492188 30.1669921875 335.936523438 11.984375 c 0,5,6
 300.250976562 -4.4716796875 300.250976562 -4.4716796875 242.577148438 -4.4716796875 c 0,7,8
 136.1484375 -4.4716796875 136.1484375 -4.4716796875 74.3193359375 70.0341796875 c 128,-1,9
 12.5458984375 144.482421875 12.5458984375 144.482421875 12.5458984375 274.102539062 c 0,10,11
 12.5458984375 395.870117188 12.5458984375 395.870117188 74.8203125 469.4375 c 128,-1,12
 137.040039062 543.000976562 137.040039062 543.000976562 239.741210938 543.000976562 c 0,13,14
 346.387695312 543.000976562 346.387695312 543.000976562 400.934570312 464.099609375 c 1,15,-1
 400.934570312 742.727539062 l 1,16,-1
 486.62109375 742.727539062 l 1,0,-1
257.03515625 474.549804688 m 0,17,18
 186.962890625 474.549804688 186.962890625 474.549804688 143.545898438 417.947265625 c 128,-1,19
 100.174804688 361.319335938 100.174804688 361.319335938 100.174804688 269.319335938 c 0,20,21
 100.174804688 176.322265625 100.174804688 176.322265625 143.545898438 120.190429688 c 128,-1,22
 186.920898438 64.0625 186.920898438 64.0625 257.978515625 64.087890625 c 0,23,24
 326.124023438 64.087890625 326.124023438 64.087890625 367.572265625 119.689453125 c 128,-1,25
 409 175.392578125 409 175.392578125 409 267.317382812 c 0,26,27
 409 362.407226562 409 362.407226562 367.572265625 418.501953125 c 128,-1,28
 326.145507812 474.549804688 326.145507812 474.549804688 257.03515625 474.549804688 c 0,17,18
EndSplineSet
Validated: 33
EndChar

StartChar: e
Encoding: 101 101 104
Width: 593
GlyphClass: 2
Flags: W
LayerCount: 2
Fore
SplineSet
518.021484375 241.682617188 m 1,0,-1
 116.674804688 241.682617188 l 1,1,2
 117.67578125 170.9296875 117.67578125 170.9296875 145.145507812 131.8125 c 0,3,4
 190.263671875 65.0888671875 190.263671875 65.0888671875 276.646484375 65.0888671875 c 0,5,6
 388.479492188 65.0888671875 388.479492188 65.0888671875 425.775390625 168.119140625 c 1,7,-1
 513.129882812 168.119140625 l 1,8,9
 496.58203125 89.138671875 496.58203125 89.138671875 428.723632812 36.6181640625 c 0,10,11
 367.8671875 -10.4765625 367.8671875 -10.4765625 273.698242188 -10.4765625 c 0,12,13
 159.858398438 -10.4765625 159.858398438 -10.4765625 93.1552734375 62.640625 c 128,-1,14
 26.4306640625 135.69921875 26.4306640625 135.69921875 26.4306640625 262.3125 c 128,-1,15
 26.4306640625 388.872070312 26.4306640625 388.872070312 94.65625 464.93359375 c 128,-1,16
 162.885742188 540.999023438 162.885742188 540.999023438 275.700195312 540.999023438 c 0,17,18
 353.166015625 540.999023438 353.166015625 540.999023438 412.096679688 504.688476562 c 0,19,20
 466.147460938 471.384765625 466.147460938 471.384765625 493 405.603515625 c 0,21,22
 518.021484375 342.51953125 518.021484375 342.51953125 518.021484375 241.682617188 c 1,0,-1
118.623046875 308.407226562 m 1,23,-1
 424.774414062 308.407226562 l 2,24,25
 425.775390625 310.325195312 425.775390625 310.325195312 425.775390625 314.303710938 c 0,26,27
 425.775390625 378.079101562 425.775390625 378.079101562 382.125 421.729492188 c 128,-1,28
 338.395507812 465.375976562 338.395507812 465.375976562 274.69921875 465.375976562 c 0,29,30
 209.893554688 465.375976562 209.893554688 465.375976562 166.772460938 422.671875 c 128,-1,31
 123.547851562 380.118164062 123.547851562 380.118164062 118.623046875 308.407226562 c 1,23,-1
EndSplineSet
Validated: 1
EndChar

StartChar: f
Encoding: 102 102 105
Width: 294
GlyphClass: 2
Flags: W
LayerCount: 2
Fore
SplineSet
261 523.091796875 m 1,0,-1
 261 456.868164062 l 1,1,-1
 170.421875 456.868164062 l 1,2,-1
 170.421875 0.533203125 l 1,3,-1
 84.681640625 0.533203125 l 1,4,-1
 84.681640625 456.868164062 l 1,5,-1
 11.6181640625 456.868164062 l 1,6,-1
 11.6181640625 523.091796875 l 1,7,-1
 84.681640625 523.091796875 l 1,8,-1
 84.681640625 609.779296875 l 2,9,10
 84.681640625 674.639648438 84.681640625 674.639648438 118.268554688 705.307617188 c 128,-1,11
 151.884765625 736.000976562 151.884765625 736.000976562 212.291015625 736.000976562 c 0,12,13
 235.786132812 736.000976562 235.786132812 736.000976562 261 731.104492188 c 1,14,-1
 261 662.103515625 l 1,15,16
 239.916015625 663.045898438 239.916015625 663.045898438 230.807617188 663.045898438 c 0,17,18
 170.421875 663.045898438 170.421875 663.045898438 170.421875 602.940429688 c 2,19,-1
 170.421875 523.038085938 l 1,20,-1
 261 523.091796875 l 1,0,-1
EndSplineSet
Validated: 1
EndChar

StartChar: g
Encoding: 103 103 106
Width: 594
GlyphClass: 2
Flags: W
LayerCount: 2
Fore
SplineSet
243.618164062 -4.6962890625 m 0,0,1
 147.04296875 -4.6962890625 147.04296875 -4.6962890625 81.3662109375 68.6455078125 c 128,-1,2
 15.6962890625 141.896484375 15.6962890625 141.896484375 15.6962890625 263.368164062 c 0,3,4
 15.6962890625 387.641601562 15.6962890625 387.641601562 80.865234375 464.375 c 128,-1,5
 146.087890625 541.107421875 146.087890625 541.107421875 251.56640625 541.107421875 c 0,6,7
 355.026367188 541.107421875 355.026367188 541.107421875 419.770507812 452.755859375 c 1,8,-1
 419.770507812 520.53515625 l 1,9,-1
 501.39453125 520.53515625 l 1,10,-1
 501.39453125 84.546875 l 2,11,12
 501.39453125 -10.568359375 501.39453125 -10.568359375 498.446289062 -27.4912109375 c 0,13,14
 484.442382812 -107.709960938 484.442382812 -107.709960938 431.16796875 -143.203125 c 0,15,16
 398.990234375 -164.65625 398.990234375 -164.65625 361.828125 -173.0625 c 0,17,18
 262.59765625 -195.373046875 262.59765625 -195.373046875 187.45703125 -178.346679688 c 0,19,20
 141.029296875 -167.836914062 141.029296875 -167.836914062 111.224609375 -146.260742188 c 0,21,22
 56.46484375 -106.618164062 56.46484375 -106.618164062 49.0048828125 -41.728515625 c 1,23,-1
 138.58203125 -41.728515625 l 1,24,25
 143.481445312 -116.459960938 143.481445312 -116.459960938 257.572265625 -116.459960938 c 0,26,27
 365.477539062 -116.459960938 365.477539062 -116.459960938 399.306640625 -67.859375 c 0,28,29
 423.21484375 -33.4501953125 423.21484375 -33.4501953125 423.21484375 23.3857421875 c 2,30,-1
 423.21484375 96.3359375 l 1,31,32
 399.631835938 40.955078125 399.631835938 40.955078125 343.979492188 14.599609375 c 0,33,34
 303.298828125 -4.6962890625 303.298828125 -4.6962890625 243.618164062 -4.6962890625 c 0,0,1
266.859375 471.493164062 m 0,35,36
 193.233398438 471.493164062 193.233398438 471.493164062 150.091796875 417.500976562 c 128,-1,37
 107 363.387695312 107 363.387695312 107 271.208007812 c 0,38,39
 107 177.844726562 107 177.844726562 150.091796875 124.415039062 c 128,-1,40
 193.083007812 70.9267578125 193.083007812 70.9267578125 267.860351562 70.9267578125 c 0,41,42
 340.4765625 70.9267578125 340.4765625 70.9267578125 382.512695312 123.47265625 c 128,-1,43
 424.549804688 176.017578125 424.549804688 176.017578125 424.549804688 268.318359375 c 0,44,45
 424.549804688 364.513671875 424.549804688 364.513671875 383.013671875 418.059570312 c 128,-1,46
 341.5859375 471.493164062 341.5859375 471.493164062 266.859375 471.493164062 c 0,35,36
EndSplineSet
Validated: 33
EndChar

StartChar: h
Encoding: 104 104 107
Width: 593
GlyphClass: 2
Flags: W
LayerCount: 2
Fore
SplineSet
405.298828125 337.124023438 m 1,0,1
 405.298828125 400.946289062 405.298828125 400.946289062 375.21875 430.538085938 c 0,2,3
 339.42578125 465.680664062 339.42578125 465.680664062 295.924804688 465.680664062 c 0,4,5
 227.599609375 465.680664062 227.599609375 465.680664062 185.997070312 415.583007812 c 128,-1,6
 144.352539062 365.51953125 144.352539062 365.51953125 144.352539062 282.856445312 c 2,7,-1
 144.352539062 0.55859375 l 1,8,-1
 59 0 l 1,9,-1
 59 715.341796875 l 1,10,-1
 144.352539062 715.341796875 l 1,11,-1
 144.352539062 451.16796875 l 1,12,13
 183.428710938 500.65625 183.428710938 500.65625 223.641601562 520.895507812 c 128,-1,14
 263.818359375 541.024414062 263.818359375 541.024414062 324.061523438 541.024414062 c 0,15,16
 401.099609375 541.024414062 401.099609375 541.024414062 451.559570312 485.810546875 c 0,17,18
 490.706054688 442.986328125 490.706054688 442.986328125 490.706054688 361.478515625 c 2,19,-1
 490.706054688 0 l 1,20,-1
 405.352539062 0 l 1,21,-1
 405.352539062 337.124023438 l 1,22,-1
 405.298828125 337.124023438 l 1,0,1
EndSplineSet
Validated: 1
EndChar

StartChar: i
Encoding: 105 105 108
Width: 236
GlyphClass: 2
Flags: W
LayerCount: 2
Fore
SplineSet
151 734.38671875 m 1,0,-1
 151 632.077148438 l 1,1,-1
 63.3154296875 632.077148438 l 1,2,-1
 63.3154296875 734.38671875 l 1,3,-1
 151 734.38671875 l 1,0,-1
151 534.71484375 m 1,4,-1
 151 0.474609375 l 1,5,-1
 64.31640625 0.474609375 l 1,6,-1
 64.31640625 534.71484375 l 1,7,-1
 151 534.71484375 l 1,4,-1
EndSplineSet
Validated: 1
EndChar

StartChar: j
Encoding: 106 106 109
Width: 239
GlyphClass: 2
Flags: W
LayerCount: 2
Fore
SplineSet
69.259765625 528.655273438 m 1,0,-1
 155 528.655273438 l 1,1,-1
 155 -29.7177734375 l 2,2,3
 155 -142.4609375 155 -142.4609375 7.927734375 -135.91796875 c 0,4,5
 -10.017578125 -135.150390625 -10.017578125 -135.150390625 -21.318359375 -132.973632812 c 2,6,-1
 -21.318359375 -63.8017578125 l 1,7,8
 -2.45703125 -65.1357421875 -2.45703125 -65.1357421875 2.0888671875 -65.1357421875 c 0,9,10
 44.0712890625 -65.1357421875 44.0712890625 -65.1357421875 57.08203125 -52.125 c 0,11,12
 69.3134765625 -39.8935546875 69.3134765625 -39.8935546875 69.3134765625 2.4765625 c 2,13,-1
 69.259765625 528.655273438 l 1,0,-1
155 728.327148438 m 1,14,-1
 155 626.013671875 l 1,15,-1
 69.259765625 626.013671875 l 1,16,-1
 69.259765625 728.327148438 l 1,17,-1
 155 728.327148438 l 1,14,-1
EndSplineSet
Validated: 33
EndChar

StartChar: k
Encoding: 107 107 110
Width: 532
GlyphClass: 2
Flags: W
LayerCount: 2
Fore
SplineSet
131 733.719726562 m 1,0,-1
 131 304.236328125 l 1,1,-1
 368.372070312 527.541992188 l 1,2,-1
 483.029296875 527.541992188 l 1,3,-1
 287.915039062 345.497070312 l 1,4,-1
 517.225585938 0.533203125 l 1,5,-1
 406.571289062 0.533203125 l 1,6,-1
 218.467773438 286.166992188 l 1,7,-1
 130.946289062 205.709960938 l 1,8,-1
 130.946289062 0.533203125 l 1,9,-1
 42.423828125 0.533203125 l 1,10,-1
 42.423828125 733.719726562 l 1,11,-1
 131 733.719726562 l 1,0,-1
EndSplineSet
Validated: 1
EndChar

StartChar: l
Encoding: 108 108 111
Width: 236
GlyphClass: 2
Flags: W
LayerCount: 2
Fore
SplineSet
152.6875 734.88671875 m 1,0,-1
 152.6875 0.474609375 l 1,1,-1
 65 0.474609375 l 1,2,-1
 65 734.88671875 l 1,3,-1
 152.6875 734.88671875 l 1,0,-1
EndSplineSet
Validated: 1
EndChar

StartChar: m
Encoding: 109 109 112
Width: 890
GlyphClass: 2
Flags: W
LayerCount: 2
Fore
SplineSet
49.255859375 522.784179688 m 1,0,-1
 130.046875 522.784179688 l 1,1,-1
 130.046875 445.939453125 l 1,2,3
 149.41796875 482.12890625 149.41796875 482.12890625 196.883789062 513.497070312 c 0,4,5
 233.53515625 537.743164062 233.53515625 537.743164062 292.407226562 537.743164062 c 0,6,7
 394.708984375 537.743164062 394.708984375 537.743164062 434.475585938 449.0546875 c 1,8,9
 473.943359375 494.481445312 473.943359375 494.481445312 510.541015625 516.224609375 c 0,10,11
 546.743164062 537.743164062 546.743164062 537.743164062 602.56640625 537.743164062 c 0,12,13
 680.424804688 537.743164062 680.424804688 537.743164062 731.453125 472.353515625 c 0,14,15
 767.9296875 425.646484375 767.9296875 425.646484375 767.9296875 328.337890625 c 2,16,-1
 767.9296875 0.11328125 l 1,17,-1
 680.020507812 0.11328125 l 1,18,-1
 680.020507812 340.848632812 l 2,19,20
 680.020507812 399.899414062 680.020507812 399.899414062 653.665039062 432.427734375 c 128,-1,21
 627.288085938 464.901367188 627.288085938 464.901367188 580.435546875 464.901367188 c 0,22,23
 527.672851562 464.901367188 527.672851562 464.901367188 490.578125 424.979492188 c 128,-1,24
 453.4921875 385.053710938 453.4921875 385.053710938 453.4921875 328.229492188 c 2,25,-1
 453.4921875 0.0546875 l 1,26,-1
 365.583007812 0.0546875 l 1,27,-1
 365.583007812 340.848632812 l 2,28,29
 365.583007812 399.899414062 365.583007812 399.899414062 339.2265625 432.427734375 c 128,-1,30
 312.849609375 464.901367188 312.849609375 464.901367188 264.99609375 464.901367188 c 0,31,32
 216.725585938 464.901367188 216.725585938 464.901367188 175.640625 411.743164062 c 0,33,34
 139 364.256835938 139 364.256835938 139 294.086914062 c 2,35,-1
 139 0 l 1,36,-1
 49.1982421875 0 l 1,37,-1
 49.255859375 522.784179688 l 1,0,-1
EndSplineSet
Validated: 1
EndChar

StartChar: n
Encoding: 110 110 113
Width: 593
GlyphClass: 2
Flags: W
LayerCount: 2
Fore
SplineSet
58.05859375 522.784179688 m 1,0,-1
 138.848632812 522.784179688 l 1,1,-1
 138.848632812 434.983398438 l 1,2,3
 175.61328125 489.72265625 175.61328125 489.72265625 218.638671875 513.830078125 c 128,-1,4
 261.563476562 537.796875 261.563476562 537.796875 323.395507812 537.796875 c 0,5,6
 403.4140625 537.796875 403.4140625 537.796875 448.895507812 496.815429688 c 0,7,8
 497.9921875 452.57421875 497.9921875 452.57421875 497.9921875 352.74609375 c 2,9,-1
 497.9921875 0 l 1,10,-1
 411.196289062 0 l 1,11,-1
 411.196289062 344.296875 l 2,12,13
 411.196289062 397.12109375 411.196289062 397.12109375 380.278320312 428.703125 c 128,-1,14
 349.338867188 460.229492188 349.338867188 460.229492188 296.485351562 460.229492188 c 0,15,16
 224.552734375 460.229492188 224.552734375 460.229492188 187.223632812 416.580078125 c 0,17,18
 145.80078125 368.2421875 145.80078125 368.2421875 145.80078125 288.356445312 c 2,19,-1
 145.80078125 0 l 1,20,-1
 58 0 l 1,21,-1
 58.05859375 522.784179688 l 1,0,-1
EndSplineSet
Validated: 1
EndChar

StartChar: o
Encoding: 111 111 114
Width: 593
GlyphClass: 2
Flags: W
LayerCount: 2
Fore
SplineSet
272.998046875 538.271484375 m 0,0,1
 385.424804688 538.271484375 385.424804688 538.271484375 459.100585938 459.704101562 c 0,2,3
 525.82421875 388.484375 525.82421875 388.484375 525.82421875 258.36328125 c 0,4,5
 525.82421875 144.715820312 525.82421875 144.715820312 458.099609375 64.4208984375 c 0,6,7
 392.122070312 -13.7587890625 392.122070312 -13.7587890625 273.999023438 -13.7587890625 c 0,8,9
 154.233398438 -13.7587890625 154.233398438 -13.7587890625 88.8935546875 64.86328125 c 0,10,11
 22.1689453125 145.157226562 22.1689453125 145.157226562 22.1689453125 262.258789062 c 0,12,13
 22.1689453125 388.484375 22.1689453125 388.484375 89.3935546875 459.704101562 c 0,14,15
 163.62890625 538.271484375 163.62890625 538.271484375 272.998046875 538.271484375 c 0,0,1
275 468.544921875 m 0,16,17
 196.627929688 468.544921875 196.627929688 468.544921875 151.78125 413.443359375 c 128,-1,18
 106.796875 358.283203125 106.796875 358.283203125 106.796875 262.3125 c 128,-1,19
 106.796875 166.1640625 106.796875 166.1640625 151.78125 111.182617188 c 128,-1,20
 196.715820312 56.0810546875 196.715820312 56.0810546875 275 56.0810546875 c 0,21,22
 352.196289062 56.0810546875 352.196289062 56.0810546875 397.713867188 111.182617188 c 128,-1,23
 443.19921875 166.262695312 443.19921875 166.262695312 443.19921875 259.310546875 c 0,24,25
 443.19921875 357.3984375 443.19921875 357.3984375 398.7734375 412.997070312 c 128,-1,26
 354.330078125 468.544921875 354.330078125 468.544921875 275 468.544921875 c 0,16,17
EndSplineSet
Validated: 1
EndChar

StartChar: p
Encoding: 112 112 115
Width: 592
GlyphClass: 2
Flags: W
LayerCount: 2
Fore
SplineSet
39.3662109375 -175.28515625 m 1,0,-1
 39.3662109375 526.428710938 l 1,1,-1
 119.268554688 526.428710938 l 1,2,-1
 119.268554688 449.474609375 l 1,3,4
 179.658203125 541.053710938 179.658203125 541.053710938 290.696289062 541.053710938 c 0,5,6
 398.7890625 541.053710938 398.7890625 541.053710938 461.17578125 466.04296875 c 128,-1,7
 523.508789062 391.032226562 523.508789062 391.032226562 523.508789062 262.3125 c 0,8,9
 523.508789062 136.32421875 523.508789062 136.32421875 459.729492188 60.1923828125 c 128,-1,10
 395.9453125 -15.9267578125 395.9453125 -15.9267578125 291.696289062 -15.9267578125 c 0,11,12
 181.330078125 -15.9267578125 181.330078125 -15.9267578125 126.108398438 69.5927734375 c 1,13,-1
 126.108398438 -175.28515625 l 1,14,-1
 39.3662109375 -175.28515625 l 1,0,-1
277.017578125 465.100585938 m 0,15,16
 208.788085938 465.100585938 208.788085938 465.100585938 167.422851562 411.053710938 c 128,-1,17
 126 357.048828125 126 357.048828125 126 266.9296875 c 0,18,19
 126 154.928710938 126 154.928710938 158.635742188 112.404296875 c 0,20,21
 203.283203125 54.24609375 203.283203125 54.24609375 276.850585938 54.24609375 c 0,22,23
 352.502929688 54.24609375 352.502929688 54.24609375 399.235351562 112.404296875 c 0,24,25
 433.819335938 155.454101562 433.819335938 155.454101562 433.819335938 263.759765625 c 0,26,27
 433.819335938 364.305664062 433.819335938 364.305664062 393.063476562 416.166015625 c 0,28,29
 354.62109375 465.100585938 354.62109375 465.100585938 277.017578125 465.100585938 c 0,15,16
EndSplineSet
Validated: 1
EndChar

StartChar: q
Encoding: 113 113 116
Width: 594
GlyphClass: 2
Flags: W
LayerCount: 2
Fore
SplineSet
410 -175.28515625 m 1,0,-1
 410 69.5927734375 l 1,1,2
 354.639648438 -15.9267578125 354.639648438 -15.9267578125 244.415039062 -15.9267578125 c 0,3,4
 140.163085938 -15.9267578125 140.163085938 -15.9267578125 76.37890625 60.1923828125 c 128,-1,5
 12.6025390625 136.3125 12.6025390625 136.3125 12.6025390625 262.3125 c 0,6,7
 12.6025390625 390.9453125 12.6025390625 390.9453125 74.935546875 466.04296875 c 128,-1,8
 137.34375 541.053710938 137.34375 541.053710938 245.416015625 541.053710938 c 0,9,10
 356.454101562 541.053710938 356.454101562 541.053710938 416.838867188 449.474609375 c 1,11,-1
 416.838867188 526.428710938 l 1,12,-1
 496.741210938 526.428710938 l 1,13,-1
 496.741210938 -175.28515625 l 1,14,-1
 410 -175.28515625 l 1,0,-1
142.936523438 416.166015625 m 0,15,16
 96.67578125 357.303710938 96.67578125 357.303710938 96.67578125 263.759765625 c 0,17,18
 96.67578125 162.309570312 96.67578125 162.309570312 136.763671875 112.404296875 c 0,19,20
 183.575195312 54.24609375 183.575195312 54.24609375 259.1484375 54.24609375 c 0,21,22
 332.63671875 54.24609375 332.63671875 54.24609375 377.36328125 112.404296875 c 0,23,24
 410 154.849609375 410 154.849609375 410 266.9296875 c 0,25,26
 410 357.048828125 410 357.048828125 368.576171875 411.053710938 c 128,-1,27
 327.211914062 465.100585938 327.211914062 465.100585938 258.982421875 465.100585938 c 0,28,29
 181.456054688 465.100585938 181.456054688 465.100585938 142.936523438 416.166015625 c 0,15,16
EndSplineSet
Validated: 1
EndChar

StartChar: r
Encoding: 114 114 117
Width: 352
GlyphClass: 2
Flags: W
LayerCount: 2
Fore
SplineSet
348.282226562 454.5 m 1,0,1
 254.981445312 470.155273438 254.981445312 470.155273438 196.372070312 415.19140625 c 0,2,3
 151 372.646484375 151 372.646484375 151 274.124023438 c 2,4,-1
 151 0 l 1,5,-1
 61.310546875 0 l 1,6,-1
 61.310546875 528.063476562 l 1,7,-1
 143.939453125 528.063476562 l 1,8,-1
 143.939453125 438.986328125 l 1,9,10
 177.96484375 491.840820312 177.96484375 491.840820312 210.60546875 515.27734375 c 0,11,12
 249.48828125 543.189453125 249.48828125 543.189453125 297.125976562 543.189453125 c 0,13,14
 325.095703125 543.189453125 325.095703125 543.189453125 348.282226562 540.186523438 c 1,15,-1
 348.282226562 454.5 l 1,0,1
EndSplineSet
Validated: 33
EndChar

StartChar: s
Encoding: 115 115 118
Width: 535
GlyphClass: 2
Flags: W
LayerCount: 2
Fore
SplineSet
100.056640625 167.8984375 m 1,0,1
 106.408203125 125.282226562 106.408203125 125.282226562 143.369140625 88.9423828125 c 0,2,3
 180.017578125 52.9111328125 180.017578125 52.9111328125 244.181640625 52.9111328125 c 0,4,5
 306.547851562 52.9111328125 306.547851562 52.9111328125 347.4375 78.4873046875 c 0,6,7
 384.411132812 101.620117188 384.411132812 101.620117188 384.411132812 145.599609375 c 0,8,9
 384.411132812 178.490234375 384.411132812 178.490234375 360.223632812 199.037109375 c 0,10,11
 341.323242188 215.083984375 341.323242188 215.083984375 289.720703125 226.3359375 c 2,12,-1
 205.53515625 245.686523438 l 2,13,14
 34 270.2109375 34 270.2109375 34 384.97265625 c 0,15,16
 34 461.572265625 34 461.572265625 90.490234375 503.966796875 c 128,-1,17
 146.959960938 546.336914062 146.959960938 546.336914062 241.512695312 546.336914062 c 0,18,19
 332.74609375 546.336914062 332.74609375 546.336914062 388.080078125 501.573242188 c 0,20,21
 435.404296875 463.298828125 435.404296875 463.298828125 442.852539062 383.971679688 c 1,22,-1
 360.948242188 383.971679688 l 1,23,24
 359.272460938 431.508789062 359.272460938 431.508789062 324.525390625 456.092773438 c 0,25,26
 295.67578125 476.551757812 295.67578125 476.551757812 238.509765625 476.551757812 c 0,27,28
 182.657226562 476.551757812 182.657226562 476.551757812 155.212890625 457.760742188 c 0,29,30
 121.295898438 434.620117188 121.295898438 434.620117188 121.295898438 399.04296875 c 0,31,32
 121.295898438 368.575195312 121.295898438 368.575195312 147.873046875 349.108398438 c 0,33,34
 164.841796875 336.748046875 164.841796875 336.748046875 223.830078125 323.64453125 c 2,35,-1
 306.623046875 305.12890625 l 2,36,37
 390.15234375 285.9921875 390.15234375 285.9921875 430.6171875 248.24609375 c 0,38,39
 469.875976562 211.619140625 469.875976562 211.619140625 469.875976562 149.495117188 c 0,40,41
 469.875976562 74.41796875 469.875976562 74.41796875 408.7109375 30 c 0,42,43
 344.772460938 -16.427734375 344.772460938 -16.427734375 236.395507812 -16.427734375 c 0,44,45
 133.702148438 -16.427734375 133.702148438 -16.427734375 77.7998046875 37.6484375 c 128,-1,46
 21.90234375 91.7236328125 21.90234375 91.7236328125 13.203125 167.619140625 c 1,47,-1
 100.056640625 167.8984375 l 1,0,1
EndSplineSet
Validated: 1
EndChar

StartChar: t
Encoding: 116 116 119
Width: 294
GlyphClass: 2
Flags: W
LayerCount: 2
Fore
SplineSet
272.311523438 529.09765625 m 1,0,-1
 272.311523438 462.373046875 l 1,1,-1
 167 462.373046875 l 1,2,-1
 167 119.5234375 l 2,3,4
 167 92.0869140625 167 92.0869140625 176.787109375 82.7119140625 c 128,-1,5
 186.549804688 73.37109375 186.549804688 73.37109375 215.041015625 73.37109375 c 0,6,7
 240.788085938 73.37109375 240.788085938 73.37109375 257.244140625 77.3203125 c 2,8,-1
 257.244140625 7.3134765625 l 1,9,10
 223.744140625 1.7548828125 223.744140625 1.7548828125 185.627929688 1.7548828125 c 0,11,12
 134.609375 1.7548828125 134.609375 1.7548828125 107.615234375 26.9970703125 c 128,-1,13
 80.646484375 52.21875 80.646484375 52.21875 80.646484375 99.3388671875 c 2,14,-1
 80.646484375 462.373046875 l 1,15,-1
 6.08203125 462.373046875 l 1,16,-1
 6.08203125 529.09765625 l 1,17,-1
 80.646484375 529.09765625 l 1,18,-1
 80.646484375 698.243164062 l 1,19,-1
 167 698.243164062 l 1,20,-1
 167 529.09765625 l 1,21,-1
 272.311523438 529.09765625 l 1,0,-1
EndSplineSet
Validated: 1
EndChar

StartChar: u
Encoding: 117 117 120
Width: 593
GlyphClass: 2
Flags: W
LayerCount: 2
Fore
SplineSet
492 15.654296875 m 5,0,-1
 415.045898438 15.654296875 l 5,1,-1
 415.045898438 86.7744140625 l 5,2,3
 377.045898438 36.0810546875 377.045898438 36.0810546875 335.643554688 14.7119140625 c 132,-1,4
 294.2421875 -6.6982421875 294.2421875 -6.6982421875 233.831054688 -6.6982421875 c 4,5,6
 164.905273438 -6.6982421875 164.905273438 -6.6982421875 109.169921875 44.7919921875 c 4,7,8
 62.408203125 87.94140625 62.408203125 87.94140625 62.408203125 169.899414062 c 6,9,-1
 62.408203125 526.153320312 l 5,10,-1
 147.1484375 526.153320312 l 5,11,-1
 147.1484375 171.401367188 l 6,12,13
 147.1484375 125.611328125 147.1484375 125.611328125 177.340820312 98.337890625 c 4,14,15
 211.866210938 67.14453125 211.866210938 67.14453125 259.186523438 67.14453125 c 4,16,17
 328.716796875 67.14453125 328.716796875 67.14453125 366.837890625 111.62890625 c 4,18,19
 407.259765625 158.8984375 407.259765625 158.8984375 407.259765625 236.791015625 c 6,20,-1
 407.259765625 526.094726562 l 5,21,-1
 492 526.094726562 l 5,22,-1
 492 15.654296875 l 5,0,-1
EndSplineSet
Validated: 1
EndChar

StartChar: v
Encoding: 118 118 121
Width: 535
GlyphClass: 2
Flags: W
LayerCount: 2
Fore
SplineSet
287.647460938 0.75390625 m 1,0,-1
 191.005859375 0.75390625 l 1,1,-1
 -6.2177734375 528.096679688 l 1,2,-1
 94.4228515625 528.096679688 l 1,3,-1
 244.385742188 100.39453125 l 1,4,-1
 402.35546875 528.096679688 l 1,5,-1
 503 528.096679688 l 1,6,-1
 287.647460938 0.75390625 l 1,0,-1
EndSplineSet
Validated: 1
EndChar

StartChar: w
Encoding: 119 119 122
Width: 772
GlyphClass: 2
Flags: WO
LayerCount: 2
Fore
SplineSet
568.912109375 0.75390625 m 5,0,-1
 467.270507812 0.75390625 l 5,1,-1
 354.560546875 414.389648438 l 5,2,-1
 246.85546875 0.75390625 l 5,3,-1
 146.21484375 0.75390625 l 5,4,-1
 -15.8125 528.096679688 l 5,5,-1
 82.826171875 528.096679688 l 5,6,-1
 196.537109375 117.466796875 l 5,7,-1
 303.237304688 528.096679688 l 5,8,-1
 411.943359375 528.096679688 l 5,9,-1
 521.651367188 117.466796875 l 5,10,-1
 632.354492188 528.096679688 l 5,11,-1
 733 528.096679688 l 5,12,-1
 568.912109375 0.75390625 l 5,0,-1
EndSplineSet
Validated: 1
EndChar

StartChar: x
Encoding: 120 120 123
Width: 535
GlyphClass: 2
Flags: W
LayerCount: 2
Fore
SplineSet
299.536132812 279.548828125 m 1,0,-1
 506.547851562 0.75390625 l 1,1,-1
 402.904296875 0.75390625 l 1,2,-1
 249.217773438 209.100585938 l 1,3,-1
 103.258789062 0.75390625 l 1,4,-1
 1.6123046875 0.75390625 l 1,5,-1
 198.895507812 269.431640625 l 1,6,-1
 11.6796875 528.096679688 l 1,7,-1
 113.321289062 528.096679688 l 1,8,-1
 248.158203125 336.876953125 l 1,9,-1
 383 528.096679688 l 1,10,-1
 483.640625 528.096679688 l 1,11,-1
 299.536132812 279.548828125 l 1,0,-1
EndSplineSet
Validated: 1
EndChar

StartChar: y
Encoding: 121 121 124
Width: 535
GlyphClass: 2
Flags: W
LayerCount: 2
Fore
SplineSet
417.387695312 524 m 1,0,-1
 511.189453125 524 l 1,1,-1
 266.370117188 -80.521484375 l 2,2,3
 221.073242188 -186.66796875 221.073242188 -186.66796875 126.916992188 -186.66796875 c 0,4,5
 84.73828125 -186.66796875 84.73828125 -186.66796875 55.2421875 -172.54296875 c 1,6,-1
 55.2421875 -97.08984375 l 1,7,8
 83.3330078125 -112.26953125 83.3330078125 -112.26953125 121.799804688 -112.26953125 c 0,9,10
 166.204101562 -112.26953125 166.204101562 -112.26953125 185.633789062 -68.787109375 c 2,11,-1
 223.108398438 19.7314453125 l 1,12,-1
 4.7529296875 524 l 1,13,-1
 98 524 l 1,14,-1
 264.977539062 112.923828125 l 1,15,-1
 417.387695312 524 l 1,0,-1
EndSplineSet
Validated: 1
EndChar

StartChar: z
Encoding: 122 122 125
Width: 535
GlyphClass: 2
Flags: W
LayerCount: 2
Fore
SplineSet
445.147460938 527.342773438 m 1,0,-1
 445.147460938 470.685546875 l 1,1,-1
 131.990234375 73.451171875 l 1,2,-1
 467 73.451171875 l 1,3,-1
 467 0 l 1,4,-1
 17.8369140625 0 l 1,5,-1
 17.8369140625 65.890625 l 1,6,-1
 324.768554688 453.891601562 l 1,7,-1
 34.2392578125 453.891601562 l 1,8,-1
 34.2392578125 527.342773438 l 1,9,-1
 445.147460938 527.342773438 l 1,0,-1
EndSplineSet
Validated: 1
EndChar

StartChar: braceleft
Encoding: 123 123 126
Width: 352
GlyphClass: 2
Flags: W
LayerCount: 2
Fore
SplineSet
281 729 m 1,0,-1
 281 664 l 1,1,-1
 265 664 l 2,2,3
 227 664 227 664 213.5 650 c 128,-1,4
 200 636 200 636 200 597 c 2,5,-1
 200 416 l 2,6,7
 200 347 200 347 181 312 c 128,-1,8
 162 277 162 277 114 259 c 1,9,10
 200 221 200 221 200 101 c 2,11,-1
 200 -80 l 2,12,13
 200 -119 200 -119 213.5 -133 c 128,-1,14
 227 -147 227 -147 265 -147 c 2,15,-1
 281 -147 l 1,16,-1
 281 -212 l 1,17,-1
 233 -212 l 2,18,19
 179 -212 179 -212 149 -177.5 c 128,-1,20
 119 -143 119 -143 119 -81 c 2,21,-1
 119 86 l 2,22,23
 119 155 119 155 101.5 185 c 128,-1,24
 84 215 84 215 38 224 c 1,25,-1
 38 293 l 1,26,27
 84 302 84 302 101.5 331.5 c 128,-1,28
 119 361 119 361 119 431 c 2,29,-1
 119 598 l 2,30,31
 119 660 119 660 149 694.5 c 128,-1,32
 179 729 179 729 233 729 c 2,33,-1
 281 729 l 1,0,-1
EndSplineSet
Validated: 1
EndChar

StartChar: bar
Encoding: 124 124 127
Width: 274
GlyphClass: 2
Flags: W
LayerCount: 2
Fore
SplineSet
99 729 m 1,0,-1
 161 729 l 1,1,-1
 161 -212 l 1,2,-1
 99 -212 l 1,3,-1
 99 729 l 1,0,-1
EndSplineSet
Validated: 1
EndChar

StartChar: braceright
Encoding: 125 125 128
Width: 353
GlyphClass: 2
Flags: W
LayerCount: 2
Fore
SplineSet
24 -212 m 1,0,-1
 24 -147 l 1,1,-1
 41 -147 l 2,2,3
 79 -147 79 -147 93.5 -133 c 128,-1,4
 108 -119 108 -119 108 -80 c 2,5,-1
 108 101 l 2,6,7
 108 221 108 221 193 258 c 1,8,9
 108 296 108 296 108 416 c 2,10,-1
 108 597 l 2,11,12
 108 636 108 636 93.5 650 c 128,-1,13
 79 664 79 664 41 664 c 2,14,-1
 24 664 l 1,15,-1
 24 729 l 1,16,-1
 73 729 l 2,17,18
 127 729 127 729 157.5 694.5 c 128,-1,19
 188 660 188 660 188 598 c 2,20,-1
 188 431 l 2,21,22
 188 362 188 362 205 332 c 128,-1,23
 222 302 222 302 267 293 c 1,24,-1
 267 224 l 1,25,26
 222 215 222 215 205 185 c 128,-1,27
 188 155 188 155 188 86 c 2,28,-1
 188 -81 l 2,29,30
 188 -143 188 -143 157.5 -177.5 c 128,-1,31
 127 -212 127 -212 73 -212 c 2,32,-1
 24 -212 l 1,0,-1
EndSplineSet
Validated: 1
EndChar

StartChar: asciitilde
Encoding: 126 126 129
Width: 618
GlyphClass: 2
Flags: W
LayerCount: 2
Fore
SplineSet
177 371 m 0,0,1
 128 371 128 371 121 293 c 1,2,-1
 66 293 l 1,3,4
 70 363 70 363 99 400.5 c 128,-1,5
 128 438 128 438 179 438 c 0,6,7
 207 438 207 438 235 422 c 2,8,-1
 356 353 l 2,9,10
 386 336 386 336 408 336 c 0,11,12
 440 336 440 336 451 354.5 c 128,-1,13
 462 373 462 373 462 411 c 1,14,-1
 517 411 l 1,15,16
 517 268 517 268 407 268 c 0,17,18
 367 268 367 268 323 294 c 2,19,-1
 221 357 l 2,20,21
 197 371 197 371 177 371 c 0,0,1
EndSplineSet
Validated: 1
EndChar

StartChar: cent
Encoding: 162 162 165
Width: 588
GlyphClass: 2
Flags: W
LayerCount: 2
Fore
SplineSet
313 462 m 1,0,-1
 313 53 l 1,1,2
 413 64 413 64 432 180 c 1,3,-1
 519 180 l 1,4,5
 514 90 514 90 459 35.5 c 128,-1,6
 404 -19 404 -19 313 -23 c 1,7,-1
 313 -120 l 1,8,-1
 270 -120 l 1,9,-1
 270 -22 l 1,10,11
 165 -13 165 -13 104 60.5 c 128,-1,12
 43 134 43 134 43 253 c 0,13,14
 43 375 43 375 104 451 c 128,-1,15
 165 527 165 527 270 538 c 1,16,-1
 270 628 l 1,17,-1
 313 628 l 1,18,-1
 313 539 l 1,19,20
 405 533 405 533 456.5 483.5 c 128,-1,21
 508 434 508 434 513 348 c 1,22,-1
 426 348 l 1,23,24
 420 398 420 398 390.5 428 c 128,-1,25
 361 458 361 458 313 462 c 1,0,-1
270 55 m 1,26,-1
 270 461 l 1,27,28
 133 437 133 437 133 253 c 0,29,30
 133 168 133 168 169 116.5 c 128,-1,31
 205 65 205 65 270 55 c 1,26,-1
EndSplineSet
Validated: 1
EndChar

StartChar: sterling
Encoding: 163 163 166
Width: 588
GlyphClass: 2
Flags: W
LayerCount: 2
Fore
SplineSet
142 523 m 0,0,1
 142 495 142 495 149.5 473 c 128,-1,2
 157 451 157 451 177 420 c 128,-1,3
 197 389 197 389 203 376 c 1,4,-1
 369 376 l 1,5,-1
 369 321 l 1,6,-1
 228 321 l 1,7,8
 244 278 244 278 244 250 c 0,9,10
 244 211 244 211 217.5 170 c 128,-1,11
 191 129 191 129 121 61 c 1,12,13
 182 100 182 100 248 100 c 0,14,15
 282 100 282 100 336 84.5 c 128,-1,16
 390 69 390 69 415 69 c 0,17,18
 457 69 457 69 502 99 c 1,19,-1
 545 33 l 1,20,21
 486 -23 486 -23 409 -23 c 0,22,23
 364 -23 364 -23 294.5 0 c 128,-1,24
 225 23 225 23 188 23 c 0,25,26
 133 23 133 23 75 -14 c 1,27,-1
 25 52 l 1,28,29
 97 111 97 111 126 154 c 128,-1,30
 155 197 155 197 155 243 c 0,31,32
 155 281 155 281 130 321 c 1,33,-1
 16 321 l 1,34,-1
 16 376 l 1,35,-1
 100 376 l 1,36,37
 65 433 65 433 55 457.5 c 128,-1,38
 45 482 45 482 45 515 c 0,39,40
 45 606 45 606 116 667.5 c 128,-1,41
 187 729 187 729 292 729 c 0,42,43
 323 729 323 729 350.5 724.5 c 128,-1,44
 378 720 378 720 410 705 c 128,-1,45
 442 690 442 690 465 665.5 c 128,-1,46
 488 641 488 641 504 597.5 c 128,-1,47
 520 554 520 554 521 497 c 1,48,-1
 430 497 l 1,49,50
 426 651 426 651 288 651 c 0,51,52
 222 651 222 651 182 616 c 128,-1,53
 142 581 142 581 142 523 c 0,0,1
EndSplineSet
Validated: 1
EndChar

StartChar: currency
Encoding: 164 164 167
Width: 588
GlyphClass: 2
Flags: W
LayerCount: 2
Fore
SplineSet
493 190 m 1,0,-1
 433 136 l 1,1,-1
 378 189 l 1,2,3
 336 159 336 159 274 159 c 0,4,5
 219 159 219 159 176 184 c 1,6,-1
 123 133 l 1,7,-1
 65 190 l 1,8,-1
 115 239 l 1,9,10
 81 282 81 282 81 341 c 0,11,12
 81 398 81 398 115 443 c 1,13,-1
 59 498 l 1,14,-1
 117 551 l 1,15,-1
 174 496 l 1,16,17
 220 522 220 522 275 522 c 0,18,19
 335 522 335 522 377 494 c 1,20,-1
 438 547 l 1,21,-1
 497 489 l 1,22,-1
 440 434 l 1,23,24
 467 393 467 393 467 341 c 0,25,26
 467 291 467 291 437 244 c 1,27,-1
 493 190 l 1,0,-1
274 445 m 0,28,29
 228 445 228 445 196 414 c 128,-1,30
 164 383 164 383 164 340 c 128,-1,31
 164 297 164 297 196.5 266.5 c 128,-1,32
 229 236 229 236 275 236 c 0,33,34
 320 236 320 236 352.5 266.5 c 128,-1,35
 385 297 385 297 385 339 c 0,36,37
 385 383 385 383 353 414 c 128,-1,38
 321 445 321 445 274 445 c 0,28,29
EndSplineSet
Validated: 1
EndChar

StartChar: yen
Encoding: 165 165 168
Width: 588
GlyphClass: 2
Flags: W
LayerCount: 2
Fore
SplineSet
504 354 m 1,0,-1
 504 303 l 1,1,-1
 327 303 l 1,2,-1
 327 226 l 1,3,-1
 504 226 l 1,4,-1
 504 175 l 1,5,-1
 327 175 l 1,6,-1
 327 0 l 1,7,-1
 235 0 l 1,8,-1
 235 175 l 1,9,-1
 56 175 l 1,10,-1
 56 226 l 1,11,-1
 235 226 l 1,12,-1
 235 303 l 1,13,-1
 56 303 l 1,14,-1
 56 354 l 1,15,-1
 214 354 l 1,16,-1
 0 709 l 1,17,-1
 89 709 l 1,18,-1
 281 387 l 1,19,-1
 467 709 l 1,20,-1
 556 709 l 1,21,-1
 347 354 l 1,22,-1
 504 354 l 1,0,-1
EndSplineSet
Validated: 1
EndChar

StartChar: brokenbar
Encoding: 166 166 169
Width: 274
GlyphClass: 2
Flags: W
LayerCount: 2
Fore
SplineSet
99 729 m 1,0,-1
 161 729 l 1,1,-1
 161 328 l 1,2,-1
 99 328 l 1,3,-1
 99 729 l 1,0,-1
99 189 m 1,4,-1
 161 189 l 1,5,-1
 161 -212 l 1,6,-1
 99 -212 l 1,7,-1
 99 189 l 1,4,-1
EndSplineSet
Validated: 1
EndChar

StartChar: section
Encoding: 167 167 170
Width: 588
GlyphClass: 2
Flags: W
LayerCount: 2
Fore
SplineSet
158 -14 m 1,0,1
 158 -83 158 -83 189.5 -109.5 c 128,-1,2
 221 -136 221 -136 264 -136 c 0,3,4
 308 -136 308 -136 335.5 -112 c 128,-1,5
 363 -88 363 -88 363 -50 c 0,6,7
 363 0 363 0 306 38 c 2,8,-1
 129 155 l 2,9,10
 78 189 78 189 56 226 c 128,-1,11
 34 263 34 263 34 312 c 0,12,13
 34 362 34 362 60 397.5 c 128,-1,14
 86 433 86 433 143 462 c 1,15,16
 97 513 97 513 97 564 c 0,17,18
 97 633 97 633 152.5 681 c 128,-1,19
 208 729 208 729 289.5 729 c 128,-1,20
 371 729 371 729 421.5 680 c 128,-1,21
 472 631 472 631 472 552 c 2,22,-1
 472 524 l 1,23,-1
 384 524 l 1,24,-1
 384 550 l 2,25,26
 384 597 384 597 356.5 624.5 c 128,-1,27
 329 652 329 652 283 652 c 0,28,29
 244 652 244 652 217.5 628 c 128,-1,30
 191 604 191 604 191 567 c 0,31,32
 191 545 191 545 204 528 c 128,-1,33
 217 511 217 511 250 490 c 2,34,-1
 402 396 l 2,35,36
 465 357 465 357 490 320 c 128,-1,37
 515 283 515 283 515 229 c 0,38,39
 515 114 515 114 402 73 c 1,40,41
 433 39 433 39 445 13 c 128,-1,42
 457 -13 457 -13 457 -45 c 0,43,44
 457 -117 457 -117 401.5 -165 c 128,-1,45
 346 -213 346 -213 263 -213 c 0,46,47
 238 -213 238 -213 214 -209 c 128,-1,48
 190 -205 190 -205 163 -191.5 c 128,-1,49
 136 -178 136 -178 115.5 -157 c 128,-1,50
 95 -136 95 -136 82 -99 c 128,-1,51
 69 -62 69 -62 69 -14 c 1,52,-1
 158 -14 l 1,0,1
185 229 m 2,53,-1
 357 106 l 1,54,55
 433 145 433 145 433 208 c 0,56,57
 433 269 433 269 357 320 c 2,58,-1
 190 429 l 1,59,60
 149 403 149 403 132.5 380.5 c 128,-1,61
 116 358 116 358 116 328 c 128,-1,62
 116 298 116 298 129.5 278 c 128,-1,63
 143 258 143 258 185 229 c 2,53,-1
EndSplineSet
Validated: 1
EndChar

StartChar: dieresis
Encoding: 168 168 171
Width: 351
GlyphClass: 2
Flags: W
LayerCount: 2
Fore
SplineSet
128 716 m 1,0,-1
 128 612 l 1,1,-1
 19 612 l 1,2,-1
 19 716 l 1,3,-1
 128 716 l 1,0,-1
314 716 m 1,4,-1
 314 612 l 1,5,-1
 206 612 l 1,6,-1
 206 716 l 1,7,-1
 314 716 l 1,4,-1
EndSplineSet
Validated: 1
EndChar

StartChar: copyright
Encoding: 169 169 172
Width: 780
GlyphClass: 2
Flags: W
LayerCount: 2
Fore
SplineSet
559 312 m 1,0,1
 553 285 553 285 549.5 271 c 128,-1,2
 546 257 546 257 532 225 c 128,-1,3
 518 193 518 193 500.5 175 c 128,-1,4
 483 157 483 157 450 141.5 c 128,-1,5
 417 126 417 126 375 126 c 0,6,7
 286 126 286 126 229.5 190.5 c 128,-1,8
 173 255 173 255 173 357 c 0,9,10
 173 462 173 462 230 527 c 128,-1,11
 287 592 287 592 378 592 c 0,12,13
 515 592 515 592 551 437 c 1,14,-1
 477 437 l 1,15,16
 464 487 464 487 440.5 508.5 c 128,-1,17
 417 530 417 530 375 530 c 0,18,19
 316 530 316 530 280.5 483.5 c 128,-1,20
 245 437 245 437 245 358 c 0,21,22
 245 286 245 286 281 237 c 128,-1,23
 317 188 317 188 375 188 c 0,24,25
 465 188 465 188 485 312 c 1,26,-1
 559 312 l 1,0,1
369 742 m 128,-1,28
 533 742 533 742 649.5 630.5 c 128,-1,29
 766 519 766 519 766 361 c 0,30,31
 766 201 766 201 649 89.5 c 128,-1,32
 532 -22 532 -22 364 -22 c 0,33,34
 204 -22 204 -22 88 91 c 128,-1,35
 -28 204 -28 204 -28 360 c 0,36,37
 -28 518 -28 518 88.5 630 c 128,-1,27
 205 742 205 742 369 742 c 128,-1,28
369 680 m 128,-1,39
 234 680 234 680 138 586 c 128,-1,40
 42 492 42 492 42 360 c 0,41,42
 42 229 42 229 137.5 134.5 c 128,-1,43
 233 40 233 40 365 40 c 0,44,45
 503 40 503 40 599.5 133.5 c 128,-1,46
 696 227 696 227 696 361 c 0,47,48
 696 492 696 492 600 586 c 128,-1,38
 504 680 504 680 369 680 c 128,-1,39
EndSplineSet
Validated: 1
EndChar

StartChar: ordfeminine
Encoding: 170 170 173
Width: 390
GlyphClass: 2
Flags: W
LayerCount: 2
Fore
SplineSet
325 354 m 1,0,-1
 325 303 l 1,1,-1
 37 303 l 1,2,-1
 37 354 l 1,3,-1
 325 354 l 1,0,-1
339 449 m 1,4,-1
 339 405 l 1,5,6
 322 399 322 399 306 399 c 0,7,8
 257 399 257 399 248 442 c 1,9,10
 197 399 197 399 139 399 c 0,11,12
 89 399 89 399 60 425 c 128,-1,13
 31 451 31 451 31 495 c 0,14,15
 31 544 31 544 66.5 568.5 c 128,-1,16
 102 593 102 593 194 600 c 0,17,18
 223 602 223 602 234 609 c 128,-1,19
 245 616 245 616 245 633 c 2,20,-1
 245 646 l 2,21,22
 245 690 245 690 176 690 c 0,23,24
 140 690 140 690 125 678 c 128,-1,25
 110 666 110 666 105 634 c 1,26,-1
 44 634 l 1,27,28
 47 742 47 742 178 742 c 0,29,30
 305 742 305 742 305 648 c 2,31,-1
 305 469 l 2,32,33
 305 446 305 446 329 446 c 0,34,35
 333 446 333 446 339 449 c 1,4,-1
245 568 m 1,36,37
 226 560 226 560 182.5 555 c 128,-1,38
 139 550 139 550 115 538.5 c 128,-1,39
 91 527 91 527 91 498 c 0,40,41
 91 451 91 451 151 451 c 0,42,43
 189 451 189 451 217 471 c 128,-1,44
 245 491 245 491 245 517 c 2,45,-1
 245 568 l 1,36,37
EndSplineSet
Validated: 1
EndChar

StartChar: guillemotleft
Encoding: 171 171 174
Width: 473
GlyphClass: 2
Flags: W
LayerCount: 2
Fore
SplineSet
38 227 m 1,0,-1
 38 316 l 1,1,-1
 196 438 l 1,2,-1
 196 355 l 1,3,-1
 86 272 l 1,4,-1
 196 189 l 1,5,-1
 196 106 l 1,6,-1
 38 227 l 1,0,-1
251 227 m 1,7,-1
 251 316 l 1,8,-1
 409 438 l 1,9,-1
 409 355 l 1,10,-1
 299 272 l 1,11,-1
 409 189 l 1,12,-1
 409 106 l 1,13,-1
 251 227 l 1,7,-1
EndSplineSet
Validated: 1
EndChar

StartChar: logicalnot
Encoding: 172 172 175
Width: 618
GlyphClass: 2
Flags: W
LayerCount: 2
Fore
SplineSet
30 375 m 1,0,-1
 554 375 l 1,1,-1
 554 86 l 1,2,-1
 481 86 l 1,3,-1
 481 305 l 1,4,-1
 30 305 l 1,5,-1
 30 375 l 1,0,-1
EndSplineSet
Validated: 1
EndChar

StartChar: softhyphen
Encoding: 173 173 176
Width: 351
GlyphClass: 2
Flags: W
LayerCount: 2
Fore
SplineSet
289 312 m 1,0,-1
 289 240 l 1,1,-1
 41 240 l 1,2,-1
 41 312 l 1,3,-1
 289 312 l 1,0,-1
EndSplineSet
Validated: 1
EndChar

StartChar: registered
Encoding: 174 174 177
Width: 780
GlyphClass: 2
Flags: W
LayerCount: 2
Fore
SplineSet
500 360 m 1,0,1
 528 342 528 342 538 318.5 c 128,-1,2
 548 295 548 295 548 263 c 0,3,4
 548 257 548 257 547.5 244.5 c 128,-1,5
 547 232 547 232 547 227 c 0,6,7
 547 182 547 182 571 165 c 1,8,-1
 571 140 l 1,9,-1
 489 140 l 1,10,11
 473 175 473 175 473 212 c 0,12,13
 473 214 473 214 473 217 c 2,14,-1
 474 257 l 2,15,16
 474 293 474 293 458.5 309 c 128,-1,17
 443 325 443 325 407 325 c 2,18,-1
 268 325 l 1,19,-1
 268 140 l 1,20,-1
 195 140 l 1,21,-1
 195 585 l 1,22,-1
 410 585 l 2,23,24
 556 585 556 585 556 459 c 0,25,26
 556 425 556 425 544 404 c 128,-1,27
 532 383 532 383 500 360 c 1,0,1
268 388 m 1,28,-1
 402 388 l 2,29,30
 480 388 480 388 480 455 c 0,31,32
 480 490 480 490 462 506 c 128,-1,33
 444 522 444 522 402 522 c 2,34,-1
 268 522 l 1,35,-1
 268 388 l 1,28,-1
369 742 m 128,-1,37
 533 742 533 742 649.5 630.5 c 128,-1,38
 766 519 766 519 766 361 c 0,39,40
 766 201 766 201 649 89.5 c 128,-1,41
 532 -22 532 -22 364 -22 c 0,42,43
 204 -22 204 -22 88 91 c 128,-1,44
 -28 204 -28 204 -28 360 c 0,45,46
 -28 518 -28 518 88.5 630 c 128,-1,36
 205 742 205 742 369 742 c 128,-1,37
369 680 m 128,-1,48
 234 680 234 680 138 586 c 128,-1,49
 42 492 42 492 42 360 c 0,50,51
 42 229 42 229 137.5 134.5 c 128,-1,52
 233 40 233 40 365 40 c 0,53,54
 503 40 503 40 599.5 133.5 c 128,-1,55
 696 227 696 227 696 361 c 0,56,57
 696 492 696 492 600 586 c 128,-1,47
 504 680 504 680 369 680 c 128,-1,48
EndSplineSet
Validated: 1
EndChar

StartChar: macron
Encoding: 175 175 178
Width: 351
GlyphClass: 2
Flags: W
LayerCount: 2
Fore
SplineSet
307 701 m 1,0,-1
 307 631 l 1,1,-1
 23 631 l 1,2,-1
 23 701 l 1,3,-1
 307 701 l 1,0,-1
EndSplineSet
Validated: 1
EndChar

StartChar: degree
Encoding: 176 176 179
Width: 642
GlyphClass: 2
Flags: W
LayerCount: 2
Fore
SplineSet
303 686 m 256,0,1
 368 686 368 686 414 641.5 c 128,-1,2
 460 597 460 597 460 535 c 0,3,4
 460 471 460 471 414 427 c 128,-1,5
 368 383 368 383 301 383 c 0,6,7
 238 383 238 383 191.5 428 c 128,-1,8
 145 473 145 473 145 535 c 128,-1,9
 145 597 145 597 191.5 641.5 c 128,-1,10
 238 686 238 686 303 686 c 256,0,1
303 629 m 128,-1,12
 262 629 262 629 233 601 c 128,-1,13
 204 573 204 573 204 535 c 0,14,15
 204 496 204 496 232.5 468 c 128,-1,16
 261 440 261 440 301 440 c 0,17,18
 343 440 343 440 372 467.5 c 128,-1,19
 401 495 401 495 401 535 c 0,20,21
 401 574 401 574 372.5 601.5 c 128,-1,11
 344 629 344 629 303 629 c 128,-1,12
EndSplineSet
Validated: 1
EndChar

StartChar: plusminus
Encoding: 177 177 180
Width: 618
GlyphClass: 2
Flags: W
LayerCount: 2
Fore
SplineSet
544 416 m 1,0,-1
 544 346 l 1,1,-1
 328 346 l 1,2,-1
 328 139 l 1,3,-1
 256 139 l 1,4,-1
 256 346 l 1,5,-1
 40 346 l 1,6,-1
 40 416 l 1,7,-1
 256 416 l 1,8,-1
 256 623 l 1,9,-1
 328 623 l 1,10,-1
 328 416 l 1,11,-1
 544 416 l 1,0,-1
544 59 m 1,12,-1
 544 -11 l 1,13,-1
 40 -11 l 1,14,-1
 40 59 l 1,15,-1
 544 59 l 1,12,-1
EndSplineSet
Validated: 1
EndChar

StartChar: twosuperior
Encoding: 178 178 181
Width: 370
GlyphClass: 2
Flags: W
LayerCount: 2
Fore
SplineSet
178 656 m 0,0,1
 151 656 151 656 132.5 647 c 128,-1,2
 114 638 114 638 105 622 c 128,-1,3
 96 606 96 606 92.5 591.5 c 128,-1,4
 89 577 89 577 88 557 c 1,5,-1
 23 557 l 1,6,7
 27 709 27 709 180 709 c 0,8,9
 247 709 247 709 289.5 674 c 128,-1,10
 332 639 332 639 332 583 c 0,11,12
 332 501 332 501 232 454 c 2,13,-1
 167 422 l 2,14,15
 132 405 132 405 116 387.5 c 128,-1,16
 100 370 100 370 91 342 c 1,17,-1
 329 342 l 1,18,-1
 329 284 l 1,19,-1
 13 284 l 1,20,21
 17 357 17 357 43.5 395 c 128,-1,22
 70 433 70 433 145 471 c 2,23,-1
 205 502 l 2,24,25
 267 534 267 534 267 581 c 0,26,27
 267 613 267 613 241.5 634.5 c 128,-1,28
 216 656 216 656 178 656 c 0,0,1
EndSplineSet
Validated: 1
EndChar

StartChar: threesuperior
Encoding: 179 179 182
Width: 370
GlyphClass: 2
Flags: W
LayerCount: 2
Fore
SplineSet
169 656 m 0,0,1
 121 656 121 656 103 633.5 c 128,-1,2
 85 611 85 611 85 567 c 1,3,-1
 19 567 l 1,4,5
 22 709 22 709 169 709 c 0,6,7
 236 709 236 709 275 677 c 128,-1,8
 314 645 314 645 314 589 c 0,9,10
 314 530 314 530 254 504 c 1,11,12
 328 480 328 480 328 404 c 0,13,14
 328 343 328 343 284 306.5 c 128,-1,15
 240 270 240 270 167 270 c 0,16,17
 92 270 92 270 51 307 c 128,-1,18
 10 344 10 344 10 412 c 1,19,-1
 74 412 l 1,20,21
 76 366 76 366 99 344.5 c 128,-1,22
 122 323 122 323 169 323 c 0,23,24
 213 323 213 323 238 344.5 c 128,-1,25
 263 366 263 366 263 404 c 0,26,27
 263 431 263 431 246 450.5 c 128,-1,28
 229 470 229 470 202 474 c 0,29,30
 187 476 187 476 134 476 c 1,31,-1
 134 527 l 1,32,33
 200 527 200 527 224 540 c 128,-1,34
 248 553 248 553 248 588 c 0,35,36
 248 620 248 620 226.5 638 c 128,-1,37
 205 656 205 656 169 656 c 0,0,1
EndSplineSet
Validated: 1
EndChar

StartChar: acute
Encoding: 180 180 183
Width: 350
GlyphClass: 2
Flags: W
LayerCount: 2
Fore
SplineSet
188 740 m 1,0,-1
 305 740 l 1,1,-1
 150 592 l 1,2,-1
 88 592 l 1,3,-1
 188 740 l 1,0,-1
EndSplineSet
Validated: 1
EndChar

StartChar: micro
Encoding: 181 181 184
Width: 587
GlyphClass: 2
Flags: W
LayerCount: 2
Fore
SplineSet
554 49 m 1,0,-1
 554 -14 l 1,1,2
 519 -23 519 -23 494 -23 c 0,3,4
 408 -23 408 -23 405 60 c 1,5,6
 344 -23 344 -23 235 -23 c 0,7,8
 179 -23 179 -23 142 3 c 1,9,-1
 142 -220 l 1,10,-1
 55 -220 l 1,11,-1
 55 524 l 1,12,-1
 142 524 l 1,13,-1
 142 153 l 2,14,15
 142 106 142 106 172 78 c 128,-1,16
 202 50 202 50 253 50 c 0,17,18
 321 50 321 50 361.5 98.5 c 128,-1,19
 402 147 402 147 402 227 c 2,20,-1
 402 524 l 1,21,-1
 488 524 l 1,22,-1
 488 88 l 2,23,24
 488 47 488 47 535 47 c 0,25,26
 543 47 543 47 554 49 c 1,0,-1
EndSplineSet
Validated: 1
EndChar

StartChar: paragraph
Encoding: 182 182 185
Width: 568
GlyphClass: 2
Flags: W
LayerCount: 2
Fore
SplineSet
254 259 m 1,0,1
 153 264 153 264 96 329.5 c 128,-1,2
 39 395 39 395 39 489 c 0,3,4
 39 590 39 590 106.5 659.5 c 128,-1,5
 174 729 174 729 271 729 c 2,6,-1
 531 729 l 1,7,-1
 531 665 l 1,8,-1
 472 665 l 1,9,-1
 472 -177 l 1,10,-1
 406 -177 l 1,11,-1
 406 665 l 1,12,-1
 320 665 l 1,13,-1
 320 -177 l 1,14,-1
 254 -177 l 1,15,-1
 254 259 l 1,0,1
EndSplineSet
Validated: 1
EndChar

StartChar: middot
Encoding: 183 183 186
Width: 292
GlyphClass: 2
Flags: W
LayerCount: 2
Fore
SplineSet
193 331 m 1,0,-1
 193 227 l 1,1,-1
 85 227 l 1,2,-1
 85 331 l 1,3,-1
 193 331 l 1,0,-1
EndSplineSet
Validated: 1
EndChar

StartChar: cedilla
Encoding: 184 184 187
Width: 351
GlyphClass: 2
Flags: W
LayerCount: 2
Fore
SplineSet
56 -140 m 1,0,1
 65 -144 65 -144 82.5 -152 c 128,-1,2
 100 -160 100 -160 108.5 -163.5 c 128,-1,3
 117 -167 117 -167 130.5 -170 c 128,-1,4
 144 -173 144 -173 158 -173 c 0,5,6
 182 -173 182 -173 198 -160 c 128,-1,7
 214 -147 214 -147 214 -128 c 0,8,9
 214 -91 214 -91 166 -91 c 0,10,11
 151 -91 151 -91 134 -99 c 1,12,-1
 121 -92 l 1,13,-1
 165 0 l 1,14,-1
 205 0 l 1,15,-1
 181 -56 l 1,16,17
 194 -54 194 -54 210 -54 c 0,18,19
 249 -54 249 -54 270.5 -71.5 c 128,-1,20
 292 -89 292 -89 292 -121 c 0,21,22
 292 -164 292 -164 257.5 -189 c 128,-1,23
 223 -214 223 -214 164 -214 c 0,24,25
 115 -214 115 -214 34 -180 c 1,26,-1
 56 -140 l 1,0,1
EndSplineSet
Validated: 1
EndChar

StartChar: onesuperior
Encoding: 185 185 188
Width: 371
GlyphClass: 2
Flags: W
LayerCount: 2
Fore
SplineSet
169 580 m 1,0,-1
 66 580 l 1,1,-1
 66 626 l 1,2,-1
 81 627 l 2,3,4
 138 632 138 632 156.5 646.5 c 128,-1,5
 175 661 175 661 188 709 c 1,6,-1
 233 709 l 1,7,-1
 233 284 l 1,8,-1
 169 284 l 1,9,-1
 169 580 l 1,0,-1
EndSplineSet
Validated: 1
EndChar

StartChar: ordmasculine
Encoding: 186 186 189
Width: 385
GlyphClass: 2
Flags: W
LayerCount: 2
Fore
SplineSet
319 354 m 1,0,-1
 319 303 l 1,1,-1
 46 303 l 1,2,-1
 46 354 l 1,3,-1
 319 354 l 1,0,-1
182 742 m 0,4,5
 253 742 253 742 291.5 697 c 128,-1,6
 330 652 330 652 330 568 c 0,7,8
 330 489 330 489 291 444 c 128,-1,9
 252 399 252 399 182 399 c 128,-1,10
 112 399 112 399 73 444 c 128,-1,11
 34 489 34 489 34 571 c 0,12,13
 34 652 34 652 73 697 c 128,-1,14
 112 742 112 742 182 742 c 0,4,5
182 690 m 0,15,16
 141 690 141 690 118 658 c 128,-1,17
 95 626 95 626 95 571 c 0,18,19
 95 515 95 515 118 483 c 128,-1,20
 141 451 141 451 182 451 c 128,-1,21
 223 451 223 451 246 482.5 c 128,-1,22
 269 514 269 514 269 569 c 0,23,24
 269 626 269 626 246.5 658 c 128,-1,25
 224 690 224 690 182 690 c 0,15,16
EndSplineSet
Validated: 1
EndChar

StartChar: onequarter
Encoding: 188 188 191
Width: 919
GlyphClass: 2
Flags: W
LayerCount: 2
Fore
SplineSet
148 580 m 1,0,-1
 45 580 l 1,1,-1
 45 626 l 1,2,-1
 61 627 l 2,3,4
 117 632 117 632 135.5 646.5 c 128,-1,5
 154 661 154 661 168 709 c 1,6,-1
 213 709 l 1,7,-1
 213 284 l 1,8,-1
 148 284 l 1,9,-1
 148 580 l 1,0,-1
651 709 m 1,10,-1
 711 709 l 1,11,-1
 241 -20 l 1,12,-1
 180 -20 l 1,13,-1
 651 709 l 1,10,-1
731 100 m 1,14,-1
 535 100 l 1,15,-1
 535 159 l 1,16,-1
 747 425 l 1,17,-1
 795 425 l 1,18,-1
 795 153 l 1,19,-1
 865 153 l 1,20,-1
 865 100 l 1,21,-1
 795 100 l 1,22,-1
 795 0 l 1,23,-1
 731 0 l 1,24,-1
 731 100 l 1,14,-1
731 153 m 1,25,-1
 731 323 l 1,26,-1
 596 153 l 1,27,-1
 731 153 l 1,25,-1
EndSplineSet
Validated: 1
EndChar

StartChar: onehalf
Encoding: 189 189 192
Width: 919
GlyphClass: 2
Flags: W
LayerCount: 2
Fore
SplineSet
148 580 m 1,0,-1
 45 580 l 1,1,-1
 45 626 l 1,2,-1
 61 627 l 2,3,4
 117 632 117 632 136 646.5 c 128,-1,5
 155 661 155 661 168 709 c 1,6,-1
 213 709 l 1,7,-1
 213 284 l 1,8,-1
 148 284 l 1,9,-1
 148 580 l 1,0,-1
626 709 m 1,10,-1
 686 709 l 1,11,-1
 216 -20 l 1,12,-1
 156 -20 l 1,13,-1
 626 709 l 1,10,-1
706 372 m 0,14,15
 679 372 679 372 660 363 c 128,-1,16
 641 354 641 354 632.5 338 c 128,-1,17
 624 322 624 322 620 307.5 c 128,-1,18
 616 293 616 293 615 273 c 1,19,-1
 551 273 l 1,20,21
 555 425 555 425 708 425 c 0,22,23
 774 425 774 425 817 390 c 128,-1,24
 860 355 860 355 860 299 c 0,25,26
 860 217 860 217 760 170 c 2,27,-1
 694 138 l 2,28,29
 660 121 660 121 644 103.5 c 128,-1,30
 628 86 628 86 618 58 c 1,31,-1
 857 58 l 1,32,-1
 857 0 l 1,33,-1
 540 0 l 1,34,35
 545 73 545 73 571.5 111 c 128,-1,36
 598 149 598 149 672 187 c 2,37,-1
 733 218 l 2,38,39
 794 250 794 250 794 297 c 0,40,41
 794 329 794 329 768.5 350.5 c 128,-1,42
 743 372 743 372 706 372 c 0,14,15
EndSplineSet
Validated: 1
EndChar

StartChar: threequarters
Encoding: 190 190 193
Width: 931
GlyphClass: 2
Flags: W
LayerCount: 2
Fore
SplineSet
169 656 m 0,0,1
 121 656 121 656 103 633.5 c 128,-1,2
 85 611 85 611 85 567 c 1,3,-1
 19 567 l 1,4,5
 22 709 22 709 169 709 c 0,6,7
 235 709 235 709 274 677 c 128,-1,8
 313 645 313 645 313 589 c 0,9,10
 313 530 313 530 254 504 c 1,11,12
 328 480 328 480 328 404 c 0,13,14
 328 343 328 343 284 306.5 c 128,-1,15
 240 270 240 270 167 270 c 0,16,17
 92 270 92 270 51 307 c 128,-1,18
 10 344 10 344 10 412 c 1,19,-1
 74 412 l 1,20,21
 76 366 76 366 99 344.5 c 128,-1,22
 122 323 122 323 169 323 c 0,23,24
 213 323 213 323 238 344.5 c 128,-1,25
 263 366 263 366 263 404 c 0,26,27
 263 431 263 431 246 450.5 c 128,-1,28
 229 470 229 470 202 474 c 0,29,30
 187 476 187 476 134 476 c 1,31,-1
 134 527 l 1,32,33
 200 527 200 527 224 540 c 128,-1,34
 248 553 248 553 248 588 c 0,35,36
 248 620 248 620 226.5 638 c 128,-1,37
 205 656 205 656 169 656 c 0,0,1
648 709 m 1,38,-1
 709 709 l 1,39,-1
 239 -20 l 1,40,-1
 178 -20 l 1,41,-1
 648 709 l 1,38,-1
718 100 m 1,42,-1
 523 100 l 1,43,-1
 523 159 l 1,44,-1
 735 425 l 1,45,-1
 783 425 l 1,46,-1
 783 153 l 1,47,-1
 852 153 l 1,48,-1
 852 100 l 1,49,-1
 783 100 l 1,50,-1
 783 0 l 1,51,-1
 718 0 l 1,52,-1
 718 100 l 1,42,-1
718 153 m 1,53,-1
 718 323 l 1,54,-1
 584 153 l 1,55,-1
 718 153 l 1,53,-1
EndSplineSet
Validated: 1
EndChar

StartChar: Agrave
Encoding: 192 192 195
Width: 705
GlyphClass: 2
Flags: W
LayerCount: 2
Fore
SplineSet
302 924 m 1,0,-1
 402 776 l 1,1,-1
 339 776 l 1,2,-1
 184 924 l 1,3,-1
 302 924 l 1,0,-1
480 219 m 1,4,-1
 187 219 l 1,5,-1
 107 0 l 1,6,-1
 4 0 l 1,7,-1
 275 729 l 1,8,-1
 399 729 l 1,9,-1
 666 0 l 1,10,-1
 558 0 l 1,11,-1
 480 219 l 1,4,-1
453 297 m 1,12,-1
 336 629 l 1,13,-1
 211 297 l 1,14,-1
 453 297 l 1,12,-1
EndSplineSet
Validated: 1
EndChar

StartChar: Aacute
Encoding: 193 193 196
Width: 705
GlyphClass: 2
Flags: W
LayerCount: 2
Fore
SplineSet
371 924 m 1,0,-1
 489 924 l 1,1,-1
 334 776 l 1,2,-1
 272 776 l 1,3,-1
 371 924 l 1,0,-1
480 219 m 1,4,-1
 187 219 l 1,5,-1
 107 0 l 1,6,-1
 4 0 l 1,7,-1
 275 729 l 1,8,-1
 399 729 l 1,9,-1
 666 0 l 1,10,-1
 558 0 l 1,11,-1
 480 219 l 1,4,-1
453 297 m 1,12,-1
 336 629 l 1,13,-1
 211 297 l 1,14,-1
 453 297 l 1,12,-1
EndSplineSet
Validated: 1
EndChar

StartChar: Acircumflex
Encoding: 194 194 197
Width: 705
GlyphClass: 3
Flags: W
LayerCount: 2
Fore
SplineSet
286 927 m 1,0,-1
 385 927 l 1,1,-1
 485 777 l 1,2,-1
 419 777 l 1,3,-1
 335 873 l 1,4,-1
 253 777 l 1,5,-1
 186 777 l 1,6,-1
 286 927 l 1,0,-1
480 219 m 1,7,-1
 187 219 l 1,8,-1
 107 0 l 1,9,-1
 4 0 l 1,10,-1
 275 729 l 1,11,-1
 399 729 l 1,12,-1
 666 0 l 1,13,-1
 558 0 l 1,14,-1
 480 219 l 1,7,-1
453 297 m 1,15,-1
 336 629 l 1,16,-1
 211 297 l 1,17,-1
 453 297 l 1,15,-1
EndSplineSet
Validated: 1
EndChar

StartChar: Atilde
Encoding: 195 195 198
Width: 705
GlyphClass: 2
Flags: W
LayerCount: 2
Fore
SplineSet
263 887 m 0,0,1
 289 887 289 887 335 868.5 c 128,-1,2
 381 850 381 850 402 850 c 0,3,4
 428 850 428 850 440 887 c 1,5,-1
 500 887 l 1,6,7
 485 783 485 783 408 783 c 0,8,9
 387 783 387 783 335 802 c 128,-1,10
 283 821 283 821 268 821 c 0,11,12
 245 821 245 821 234 784 c 1,13,-1
 174 784 l 1,14,15
 182 833 182 833 205.5 860 c 128,-1,16
 229 887 229 887 263 887 c 0,0,1
480 219 m 1,17,-1
 187 219 l 1,18,-1
 107 0 l 1,19,-1
 4 0 l 1,20,-1
 275 729 l 1,21,-1
 399 729 l 1,22,-1
 666 0 l 1,23,-1
 558 0 l 1,24,-1
 480 219 l 1,17,-1
453 297 m 1,25,-1
 336 629 l 1,26,-1
 211 297 l 1,27,-1
 453 297 l 1,25,-1
EndSplineSet
Validated: 1
EndChar

StartChar: Aring
Encoding: 197 197 200
Width: 705
GlyphClass: 2
Flags: W
LayerCount: 2
Fore
SplineSet
335 966 m 0,0,1
 381 966 381 966 413 935 c 128,-1,2
 445 904 445 904 445 860 c 0,3,4
 445 817 445 817 412.5 786.5 c 128,-1,5
 380 756 380 756 335 756 c 128,-1,6
 290 756 290 756 257.5 787 c 128,-1,7
 225 818 225 818 225 861 c 0,8,9
 225 903 225 903 257.5 934.5 c 128,-1,10
 290 966 290 966 335 966 c 0,0,1
335 904 m 0,11,12
 316 904 316 904 302.5 891 c 128,-1,13
 289 878 289 878 289 861 c 0,14,15
 289 843 289 843 302.5 830 c 128,-1,16
 316 817 316 817 335 817 c 128,-1,17
 354 817 354 817 367.5 830 c 128,-1,18
 381 843 381 843 381 860 c 0,19,20
 381 879 381 879 368 891.5 c 128,-1,21
 355 904 355 904 335 904 c 0,11,12
480 219 m 1,22,-1
 187 219 l 1,23,-1
 107 0 l 1,24,-1
 4 0 l 1,25,-1
 275 729 l 1,26,-1
 399 729 l 1,27,-1
 666 0 l 1,28,-1
 558 0 l 1,29,-1
 480 219 l 1,22,-1
453 297 m 1,30,-1
 336 629 l 1,31,-1
 211 297 l 1,32,-1
 453 297 l 1,30,-1
EndSplineSet
Validated: 1
EndChar

StartChar: AE
Encoding: 198 198 201
Width: 1060
GlyphClass: 2
Flags: W
LayerCount: 2
Fore
SplineSet
468 214 m 1,0,-1
 188 214 l 1,1,-1
 99 0 l 1,2,-1
 -8 0 l 1,3,-1
 303 729 l 1,4,-1
 950 729 l 1,5,-1
 950 647 l 1,6,-1
 564 647 l 1,7,-1
 564 414 l 1,8,-1
 930 414 l 1,9,-1
 930 332 l 1,10,-1
 564 332 l 1,11,-1
 564 82 l 1,12,-1
 969 82 l 1,13,-1
 969 0 l 1,14,-1
 468 0 l 1,15,-1
 468 214 l 1,0,-1
468 296 m 1,16,-1
 468 647 l 1,17,-1
 364 647 l 1,18,-1
 220 296 l 1,19,-1
 468 296 l 1,16,-1
EndSplineSet
Validated: 1
EndChar

StartChar: Ccedilla
Encoding: 199 199 202
Width: 764
GlyphClass: 2
Flags: W
LayerCount: 2
Fore
SplineSet
379 58 m 0,0,1
 472 58 472 58 521.5 108 c 128,-1,2
 571 158 571 158 590 266 c 1,3,-1
 690 266 l 1,4,5
 655 -23 655 -23 380 -23 c 1,6,-1
 366 -56 l 1,7,8
 380 -54 380 -54 395 -54 c 0,9,10
 435 -54 435 -54 456 -71.5 c 128,-1,11
 477 -89 477 -89 477 -121 c 0,12,13
 477 -164 477 -164 443 -189 c 128,-1,14
 409 -214 409 -214 350 -214 c 0,15,16
 300 -214 300 -214 220 -180 c 1,17,-1
 241 -140 l 1,18,19
 249 -143 249 -143 265 -150.5 c 128,-1,20
 281 -158 281 -158 290.5 -162 c 128,-1,21
 300 -166 300 -166 314.5 -169.5 c 128,-1,22
 329 -173 329 -173 343 -173 c 0,23,24
 367 -173 367 -173 383 -160 c 128,-1,25
 399 -147 399 -147 399 -128 c 0,26,27
 399 -91 399 -91 352 -91 c 0,28,29
 336 -91 336 -91 319 -99 c 1,30,-1
 308 -92 l 1,31,-1
 340 -23 l 1,32,33
 282 -15 282 -15 251 -4.5 c 128,-1,34
 220 6 220 6 185 29 c 0,35,36
 114 78 114 78 74.5 164 c 128,-1,37
 35 250 35 250 35 356 c 0,38,39
 35 406 35 406 44 455 c 128,-1,40
 53 504 53 504 78 557 c 128,-1,41
 103 610 103 610 140 649.5 c 128,-1,42
 177 689 177 689 240 715 c 128,-1,43
 303 741 303 741 382 741 c 0,44,45
 629 741 629 741 674 503 c 1,46,-1
 575 503 l 1,47,48
 559 580 559 580 511 619.5 c 128,-1,49
 463 659 463 659 371 659 c 0,50,51
 260 659 260 659 196 578 c 128,-1,52
 132 497 132 497 132 357 c 0,53,54
 132 220 132 220 198.5 139 c 128,-1,55
 265 58 265 58 379 58 c 0,0,1
EndSplineSet
Validated: 1
EndChar

StartChar: Egrave
Encoding: 200 200 203
Width: 704
GlyphClass: 2
Flags: W
LayerCount: 2
Fore
SplineSet
319 921 m 1,0,-1
 419 773 l 1,1,-1
 356 773 l 1,2,-1
 201 921 l 1,3,-1
 319 921 l 1,0,-1
176 332 m 1,4,-1
 176 82 l 1,5,-1
 623 82 l 1,6,-1
 623 0 l 1,7,-1
 80 0 l 1,8,-1
 80 729 l 1,9,-1
 605 729 l 1,10,-1
 605 647 l 1,11,-1
 176 647 l 1,12,-1
 176 414 l 1,13,-1
 589 414 l 1,14,-1
 589 332 l 1,15,-1
 176 332 l 1,4,-1
EndSplineSet
Validated: 1
EndChar

StartChar: Eacute
Encoding: 201 201 204
Width: 704
GlyphClass: 2
Flags: W
LayerCount: 2
Fore
SplineSet
367 925 m 1,0,-1
 484 925 l 1,1,-1
 329 777 l 1,2,-1
 267 777 l 1,3,-1
 367 925 l 1,0,-1
176 332 m 1,4,-1
 176 82 l 1,5,-1
 623 82 l 1,6,-1
 623 0 l 1,7,-1
 80 0 l 1,8,-1
 80 729 l 1,9,-1
 605 729 l 1,10,-1
 605 647 l 1,11,-1
 176 647 l 1,12,-1
 176 414 l 1,13,-1
 589 414 l 1,14,-1
 589 332 l 1,15,-1
 176 332 l 1,4,-1
EndSplineSet
Validated: 1
EndChar

StartChar: Ecircumflex
Encoding: 202 202 205
Width: 704
GlyphClass: 3
Flags: W
LayerCount: 2
Fore
SplineSet
295 926 m 1,0,-1
 394 926 l 1,1,-1
 493 776 l 1,2,-1
 428 776 l 1,3,-1
 344 872 l 1,4,-1
 262 776 l 1,5,-1
 195 776 l 1,6,-1
 295 926 l 1,0,-1
176 332 m 1,7,-1
 176 82 l 1,8,-1
 623 82 l 1,9,-1
 623 0 l 1,10,-1
 80 0 l 1,11,-1
 80 729 l 1,12,-1
 605 729 l 1,13,-1
 605 647 l 1,14,-1
 176 647 l 1,15,-1
 176 414 l 1,16,-1
 589 414 l 1,17,-1
 589 332 l 1,18,-1
 176 332 l 1,7,-1
EndSplineSet
Validated: 1
EndChar

StartChar: Igrave
Encoding: 204 204 207
Width: 293
GlyphClass: 2
Flags: W
LayerCount: 2
Fore
SplineSet
113 925 m 1,0,-1
 213 777 l 1,1,-1
 151 777 l 1,2,-1
 -4 925 l 1,3,-1
 113 925 l 1,0,-1
198 729 m 1,4,-1
 198 0 l 1,5,-1
 100 0 l 1,6,-1
 100 729 l 1,7,-1
 198 729 l 1,4,-1
EndSplineSet
Validated: 1
EndChar

StartChar: Iacute
Encoding: 205 205 208
Width: 291
GlyphClass: 2
Flags: W
LayerCount: 2
Fore
SplineSet
167 925 m 1,0,-1
 284 925 l 1,1,-1
 129 777 l 1,2,-1
 67 777 l 1,3,-1
 167 925 l 1,0,-1
195 729 m 1,4,-1
 195 0 l 1,5,-1
 97 0 l 1,6,-1
 97 729 l 1,7,-1
 195 729 l 1,4,-1
EndSplineSet
Validated: 1
EndChar

StartChar: Icircumflex
Encoding: 206 206 209
Width: 292
GlyphClass: 3
Flags: W
LayerCount: 2
Fore
SplineSet
93 925 m 1,0,-1
 192 925 l 1,1,-1
 292 775 l 1,2,-1
 226 775 l 1,3,-1
 142 871 l 1,4,-1
 60 775 l 1,5,-1
 -7 775 l 1,6,-1
 93 925 l 1,0,-1
196 729 m 1,7,-1
 196 0 l 1,8,-1
 98 0 l 1,9,-1
 98 729 l 1,10,-1
 196 729 l 1,7,-1
EndSplineSet
Validated: 1
EndChar

StartChar: Eth
Encoding: 208 208 211
Width: 765
GlyphClass: 2
Flags: W
LayerCount: 2
Fore
SplineSet
79 339 m 1,0,-1
 7 339 l 1,1,-1
 7 406 l 1,2,-1
 79 406 l 1,3,-1
 79 729 l 1,4,-1
 372 729 l 2,5,6
 516 729 516 729 598 632 c 128,-1,7
 680 535 680 535 680 365 c 128,-1,8
 680 195 680 195 598 97.5 c 128,-1,9
 516 0 516 0 372 0 c 2,10,-1
 79 0 l 1,11,-1
 79 339 l 1,0,-1
176 339 m 1,12,-1
 176 82 l 1,13,-1
 355 82 l 2,14,15
 467 82 467 82 525 154 c 128,-1,16
 583 226 583 226 583 365 c 128,-1,17
 583 504 583 504 525 575.5 c 128,-1,18
 467 647 467 647 355 647 c 2,19,-1
 176 647 l 1,20,-1
 176 406 l 1,21,-1
 353 406 l 1,22,-1
 353 339 l 1,23,-1
 176 339 l 1,12,-1
EndSplineSet
Validated: 1
EndChar

StartChar: Ntilde
Encoding: 209 209 212
Width: 764
GlyphClass: 2
Flags: W
LayerCount: 2
Fore
SplineSet
287 870 m 0,0,1
 313 870 313 870 359 851.5 c 128,-1,2
 405 833 405 833 425 833 c 0,3,4
 451 833 451 833 464 870 c 1,5,-1
 524 870 l 1,6,7
 509 766 509 766 432 766 c 0,8,9
 411 766 411 766 359 785 c 128,-1,10
 307 804 307 804 292 804 c 0,11,12
 268 804 268 804 258 767 c 1,13,-1
 198 767 l 1,14,15
 206 816 206 816 229.5 843 c 128,-1,16
 253 870 253 870 287 870 c 0,0,1
657 729 m 1,17,-1
 657 0 l 1,18,-1
 548 0 l 1,19,-1
 156 591 l 1,20,-1
 156 0 l 1,21,-1
 65 0 l 1,22,-1
 65 729 l 1,23,-1
 170 729 l 1,24,-1
 566 133 l 1,25,-1
 566 729 l 1,26,-1
 657 729 l 1,17,-1
EndSplineSet
Validated: 1
EndChar

StartChar: Ograve
Encoding: 210 210 213
Width: 824
GlyphClass: 2
Flags: W
LayerCount: 2
Fore
SplineSet
358 922 m 1,0,-1
 458 774 l 1,1,-1
 395 774 l 1,2,-1
 240 922 l 1,3,-1
 358 922 l 1,0,-1
756 353 m 0,4,5
 756 191 756 191 656 84 c 128,-1,6
 556 -23 556 -23 390 -23 c 0,7,8
 226 -23 226 -23 125 82.5 c 128,-1,9
 24 188 24 188 24 359 c 128,-1,10
 24 530 24 530 125 635.5 c 128,-1,11
 226 741 226 741 389 741 c 0,12,13
 555 741 555 741 655.5 635 c 128,-1,14
 756 529 756 529 756 353 c 0,4,5
389 659 m 0,15,16
 268 659 268 659 194.5 576.5 c 128,-1,17
 121 494 121 494 121 359 c 128,-1,18
 121 224 121 224 195 141.5 c 128,-1,19
 269 59 269 59 390 59 c 128,-1,20
 511 59 511 59 585 141 c 128,-1,21
 659 223 659 223 659 355 c 0,22,23
 659 493 659 493 585.5 576 c 128,-1,24
 512 659 512 659 389 659 c 0,15,16
EndSplineSet
Validated: 1
EndChar

StartChar: Oacute
Encoding: 211 211 214
Width: 824
GlyphClass: 2
Flags: W
LayerCount: 2
Fore
SplineSet
418 923 m 1,0,-1
 536 923 l 1,1,-1
 381 775 l 1,2,-1
 318 775 l 1,3,-1
 418 923 l 1,0,-1
756 353 m 0,4,5
 756 191 756 191 656 84 c 128,-1,6
 556 -23 556 -23 390 -23 c 0,7,8
 226 -23 226 -23 125 82.5 c 128,-1,9
 24 188 24 188 24 359 c 128,-1,10
 24 530 24 530 125 635.5 c 128,-1,11
 226 741 226 741 389 741 c 0,12,13
 555 741 555 741 655.5 635 c 128,-1,14
 756 529 756 529 756 353 c 0,4,5
389 659 m 0,15,16
 268 659 268 659 194.5 576.5 c 128,-1,17
 121 494 121 494 121 359 c 128,-1,18
 121 224 121 224 195 141.5 c 128,-1,19
 269 59 269 59 390 59 c 128,-1,20
 511 59 511 59 585 141 c 128,-1,21
 659 223 659 223 659 355 c 0,22,23
 659 493 659 493 585.5 576 c 128,-1,24
 512 659 512 659 389 659 c 0,15,16
EndSplineSet
Validated: 1
EndChar

StartChar: Ocircumflex
Encoding: 212 212 215
Width: 824
GlyphClass: 3
Flags: W
LayerCount: 2
Fore
SplineSet
341 928 m 1,0,-1
 440 928 l 1,1,-1
 540 778 l 1,2,-1
 474 778 l 1,3,-1
 390 874 l 1,4,-1
 308 778 l 1,5,-1
 241 778 l 1,6,-1
 341 928 l 1,0,-1
756 353 m 0,7,8
 756 191 756 191 656 84 c 128,-1,9
 556 -23 556 -23 390 -23 c 0,10,11
 226 -23 226 -23 125 82.5 c 128,-1,12
 24 188 24 188 24 359 c 128,-1,13
 24 530 24 530 125 635.5 c 128,-1,14
 226 741 226 741 389 741 c 0,15,16
 555 741 555 741 655.5 635 c 128,-1,17
 756 529 756 529 756 353 c 0,7,8
389 659 m 0,18,19
 268 659 268 659 194.5 576.5 c 128,-1,20
 121 494 121 494 121 359 c 128,-1,21
 121 224 121 224 195 141.5 c 128,-1,22
 269 59 269 59 390 59 c 128,-1,23
 511 59 511 59 585 141 c 128,-1,24
 659 223 659 223 659 355 c 0,25,26
 659 493 659 493 585.5 576 c 128,-1,27
 512 659 512 659 389 659 c 0,18,19
EndSplineSet
Validated: 1
EndChar

StartChar: Otilde
Encoding: 213 213 216
Width: 824
GlyphClass: 2
Flags: W
LayerCount: 2
Fore
SplineSet
315 882 m 0,0,1
 341 882 341 882 387 863.5 c 128,-1,2
 433 845 433 845 453 845 c 0,3,4
 479 845 479 845 492 882 c 1,5,-1
 552 882 l 1,6,7
 537 778 537 778 460 778 c 0,8,9
 439 778 439 778 387 797 c 128,-1,10
 335 816 335 816 320 816 c 0,11,12
 296 816 296 816 286 779 c 1,13,-1
 226 779 l 1,14,15
 234 828 234 828 257.5 855 c 128,-1,16
 281 882 281 882 315 882 c 0,0,1
756 353 m 0,17,18
 756 191 756 191 656 84 c 128,-1,19
 556 -23 556 -23 390 -23 c 0,20,21
 226 -23 226 -23 125 82.5 c 128,-1,22
 24 188 24 188 24 359 c 128,-1,23
 24 530 24 530 125 635.5 c 128,-1,24
 226 741 226 741 389 741 c 0,25,26
 555 741 555 741 655.5 635 c 128,-1,27
 756 529 756 529 756 353 c 0,17,18
389 659 m 0,28,29
 268 659 268 659 194.5 576.5 c 128,-1,30
 121 494 121 494 121 359 c 128,-1,31
 121 224 121 224 195 141.5 c 128,-1,32
 269 59 269 59 390 59 c 128,-1,33
 511 59 511 59 585 141 c 128,-1,34
 659 223 659 223 659 355 c 0,35,36
 659 493 659 493 585.5 576 c 128,-1,37
 512 659 512 659 389 659 c 0,28,29
EndSplineSet
Validated: 1
EndChar

StartChar: multiply
Encoding: 215 215 218
Width: 618
GlyphClass: 2
Flags: W
LayerCount: 2
Fore
SplineSet
444 427 m 1,0,-1
 495 377 l 1,1,-1
 343 231 l 1,2,-1
 496 84 l 1,3,-1
 444 34 l 1,4,-1
 291 181 l 1,5,-1
 139 35 l 1,6,-1
 87 84 l 1,7,-1
 240 231 l 1,8,-1
 88 377 l 1,9,-1
 139 426 l 1,10,-1
 291 281 l 1,11,-1
 444 427 l 1,0,-1
EndSplineSet
Validated: 1
EndChar

StartChar: Oslash
Encoding: 216 216 219
Width: 824
GlyphClass: 2
Flags: W
LayerCount: 2
Fore
SplineSet
16 19 m 1,0,-1
 100 108 l 1,1,2
 21 214 21 214 21 360 c 0,3,4
 21 530 21 530 122.5 635.5 c 128,-1,5
 224 741 224 741 387 741 c 0,6,7
 529 741 529 741 626 660 c 1,8,-1
 717 755 l 1,9,-1
 758 719 l 1,10,-1
 666 622 l 1,11,12
 753 516 753 516 753 358 c 0,13,14
 753 188 753 188 651.5 82.5 c 128,-1,15
 550 -23 550 -23 387 -23 c 0,16,17
 237 -23 237 -23 136 67 c 1,18,-1
 56 -17 l 1,19,-1
 16 19 l 1,0,-1
165 176 m 1,20,-1
 565 595 l 1,21,22
 489 659 489 659 387 659 c 0,23,24
 266 659 266 659 192 576.5 c 128,-1,25
 118 494 118 494 118 360 c 0,26,27
 118 256 118 256 165 176 c 1,20,-1
601 554 m 1,28,-1
 199 133 l 1,29,30
 276 59 276 59 387 59 c 0,31,32
 508 59 508 59 582 141.5 c 128,-1,33
 656 224 656 224 656 358 c 0,34,35
 656 472 656 472 601 554 c 1,28,-1
EndSplineSet
Validated: 1
EndChar

StartChar: Ugrave
Encoding: 217 217 220
Width: 764
GlyphClass: 2
Flags: W
LayerCount: 2
Fore
SplineSet
333 924 m 1,0,-1
 433 776 l 1,1,-1
 370 776 l 1,2,-1
 215 924 l 1,3,-1
 333 924 l 1,0,-1
559 729 m 1,4,-1
 656 729 l 1,5,-1
 656 217 l 2,6,7
 656 107 656 107 576.5 42 c 128,-1,8
 497 -23 497 -23 364 -23 c 0,9,10
 229 -23 229 -23 151.5 41.5 c 128,-1,11
 74 106 74 106 74 217 c 2,12,-1
 74 729 l 1,13,-1
 171 729 l 1,14,-1
 171 217 l 2,15,16
 171 138 171 138 223.5 98.5 c 128,-1,17
 276 59 276 59 364 59 c 0,18,19
 455 59 455 59 507 101 c 128,-1,20
 559 143 559 143 559 217 c 2,21,-1
 559 729 l 1,4,-1
EndSplineSet
Validated: 1
EndChar

StartChar: Uacute
Encoding: 218 218 221
Width: 764
GlyphClass: 2
Flags: W
LayerCount: 2
Fore
SplineSet
388 924 m 1,0,-1
 505 924 l 1,1,-1
 350 776 l 1,2,-1
 288 776 l 1,3,-1
 388 924 l 1,0,-1
559 729 m 1,4,-1
 656 729 l 1,5,-1
 656 217 l 2,6,7
 656 107 656 107 576.5 42 c 128,-1,8
 497 -23 497 -23 364 -23 c 0,9,10
 229 -23 229 -23 151.5 41.5 c 128,-1,11
 74 106 74 106 74 217 c 2,12,-1
 74 729 l 1,13,-1
 171 729 l 1,14,-1
 171 217 l 2,15,16
 171 138 171 138 223.5 98.5 c 128,-1,17
 276 59 276 59 364 59 c 0,18,19
 455 59 455 59 507 101 c 128,-1,20
 559 143 559 143 559 217 c 2,21,-1
 559 729 l 1,4,-1
EndSplineSet
Validated: 1
EndChar

StartChar: Ucircumflex
Encoding: 219 219 222
Width: 764
GlyphClass: 3
Flags: W
LayerCount: 2
Fore
SplineSet
316 925 m 1,0,-1
 415 925 l 1,1,-1
 515 775 l 1,2,-1
 449 775 l 1,3,-1
 365 871 l 1,4,-1
 283 775 l 1,5,-1
 216 775 l 1,6,-1
 316 925 l 1,0,-1
559 729 m 1,7,-1
 656 729 l 1,8,-1
 656 217 l 2,9,10
 656 107 656 107 576.5 42 c 128,-1,11
 497 -23 497 -23 364 -23 c 0,12,13
 229 -23 229 -23 151.5 41.5 c 128,-1,14
 74 106 74 106 74 217 c 2,15,-1
 74 729 l 1,16,-1
 171 729 l 1,17,-1
 171 217 l 2,18,19
 171 138 171 138 223.5 98.5 c 128,-1,20
 276 59 276 59 364 59 c 0,21,22
 455 59 455 59 507 101 c 128,-1,23
 559 143 559 143 559 217 c 2,24,-1
 559 729 l 1,7,-1
EndSplineSet
Validated: 1
EndChar

StartChar: Yacute
Encoding: 221 221 224
Width: 705
GlyphClass: 2
Flags: W
LayerCount: 2
Fore
SplineSet
366 923 m 1,0,-1
 484 923 l 1,1,-1
 329 775 l 1,2,-1
 266 775 l 1,3,-1
 366 923 l 1,0,-1
389 286 m 1,4,-1
 389 0 l 1,5,-1
 292 0 l 1,6,-1
 292 286 l 1,7,-1
 0 729 l 1,8,-1
 120 729 l 1,9,-1
 342 374 l 1,10,-1
 559 729 l 1,11,-1
 674 729 l 1,12,-1
 389 286 l 1,4,-1
EndSplineSet
Validated: 1
EndChar

StartChar: Thorn
Encoding: 222 222 225
Width: 703
GlyphClass: 2
Flags: W
LayerCount: 2
Fore
SplineSet
177 189 m 1,0,-1
 177 0 l 1,1,-1
 80 0 l 1,2,-1
 80 729 l 1,3,-1
 177 729 l 1,4,-1
 177 609 l 1,5,-1
 394 609 l 2,6,7
 502 609 502 609 564 552.5 c 128,-1,8
 626 496 626 496 626 397 c 0,9,10
 626 306 626 306 567 247.5 c 128,-1,11
 508 189 508 189 415 189 c 2,12,-1
 177 189 l 1,0,-1
177 271 m 1,13,-1
 379 271 l 2,14,15
 447 271 447 271 484.5 305 c 128,-1,16
 522 339 522 339 522 399 c 128,-1,17
 522 459 522 459 484.5 493 c 128,-1,18
 447 527 447 527 379 527 c 2,19,-1
 177 527 l 1,20,-1
 177 271 l 1,13,-1
EndSplineSet
Validated: 1
EndChar

StartChar: germandbls
Encoding: 223 223 226
Width: 646
GlyphClass: 2
Flags: W
LayerCount: 2
Fore
SplineSet
293 427 m 1,0,1
 454 427 454 427 454 540 c 0,2,3
 454 591 454 591 413 621.5 c 128,-1,4
 372 652 372 652 296 652 c 0,5,6
 213 652 213 652 180.5 616 c 128,-1,7
 148 580 148 580 148 510 c 2,8,-1
 148 0 l 1,9,-1
 57 0 l 1,10,-1
 57 532 l 2,11,12
 57 621 57 621 120 674.5 c 128,-1,13
 183 728 183 728 297.5 728 c 128,-1,14
 412 728 412 728 479 679 c 128,-1,15
 546 630 546 630 546 548 c 0,16,17
 546 514 546 514 537 487 c 128,-1,18
 528 460 528 460 511 442 c 128,-1,19
 494 424 494 424 485 417 c 128,-1,20
 476 410 476 410 460 400 c 1,21,22
 515 386 515 386 548 335 c 128,-1,23
 581 284 581 284 581 234 c 0,24,25
 581 107 581 107 509.5 46 c 128,-1,26
 438 -15 438 -15 319 -15 c 0,27,28
 298 -15 298 -15 264 -8 c 1,29,-1
 264 67 l 1,30,31
 287 64 287 64 310 64 c 0,32,33
 486 64 486 64 486 214 c 0,34,35
 486 354 486 354 310 354 c 2,36,-1
 293 354 l 1,37,-1
 293 427 l 1,0,1
EndSplineSet
Validated: 1
EndChar

StartChar: agrave
Encoding: 224 224 227
Width: 592
GlyphClass: 2
Flags: W
LayerCount: 2
Fore
SplineSet
247 728 m 1,0,-1
 349 580 l 1,1,-1
 286 580 l 1,2,-1
 128 728 l 1,3,-1
 247 728 l 1,0,-1
51 369 m 1,4,5
 57 539 57 539 274 539 c 0,6,7
 377 539 377 539 430 502.5 c 128,-1,8
 483 466 483 466 483 396 c 2,9,-1
 483 88 l 2,10,11
 483 47 483 47 531 47 c 0,12,13
 541 47 541 47 550 49 c 1,14,-1
 550 -14 l 1,15,16
 512 -23 512 -23 490 -23 c 0,17,18
 447 -23 447 -23 425 -4.5 c 128,-1,19
 403 14 403 14 398 54 c 1,20,21
 309 -23 309 -23 209 -23 c 0,22,23
 126 -23 126 -23 76.5 19 c 128,-1,24
 27 61 27 61 27 132 c 0,25,26
 27 155 27 155 32 174 c 128,-1,27
 37 193 37 193 42.5 207.5 c 128,-1,28
 48 222 48 222 63 234.5 c 128,-1,29
 78 247 78 247 88 255 c 128,-1,30
 98 263 98 263 122 270.5 c 128,-1,31
 146 278 146 278 159 281.5 c 128,-1,32
 172 285 172 285 203.5 290 c 128,-1,33
 235 295 235 295 250 297 c 128,-1,34
 265 299 265 299 303 304 c 0,35,36
 355 310 355 310 375 323 c 128,-1,37
 395 336 395 336 395 362 c 2,38,-1
 395 384 l 2,39,40
 395 422 395 422 363 442 c 128,-1,41
 331 462 331 462 271 462 c 0,42,43
 209 462 209 462 177.5 439.5 c 128,-1,44
 146 417 146 417 140 369 c 1,45,-1
 51 369 l 1,4,5
229 50 m 0,46,47
 302 50 302 50 348.5 86.5 c 128,-1,48
 395 123 395 123 395 165 c 2,49,-1
 395 259 l 1,50,51
 369 247 369 247 315 239 c 128,-1,52
 261 231 261 231 222 225 c 128,-1,53
 183 219 183 219 151.5 196.5 c 128,-1,54
 120 174 120 174 120 134 c 128,-1,55
 120 94 120 94 148.5 72 c 128,-1,56
 177 50 177 50 229 50 c 0,46,47
EndSplineSet
Validated: 1
EndChar

StartChar: aacute
Encoding: 225 225 228
Width: 592
GlyphClass: 2
Flags: W
LayerCount: 2
Fore
SplineSet
304 728 m 1,0,-1
 424 728 l 1,1,-1
 266 580 l 1,2,-1
 202 580 l 1,3,-1
 304 728 l 1,0,-1
51 369 m 1,4,5
 57 539 57 539 274 539 c 0,6,7
 377 539 377 539 430 502.5 c 128,-1,8
 483 466 483 466 483 396 c 2,9,-1
 483 88 l 2,10,11
 483 47 483 47 531 47 c 0,12,13
 541 47 541 47 550 49 c 1,14,-1
 550 -14 l 1,15,16
 512 -23 512 -23 490 -23 c 0,17,18
 447 -23 447 -23 425 -4.5 c 128,-1,19
 403 14 403 14 398 54 c 1,20,21
 309 -23 309 -23 209 -23 c 0,22,23
 126 -23 126 -23 76.5 19 c 128,-1,24
 27 61 27 61 27 132 c 0,25,26
 27 155 27 155 32 174 c 128,-1,27
 37 193 37 193 42.5 207.5 c 128,-1,28
 48 222 48 222 63 234.5 c 128,-1,29
 78 247 78 247 88 255 c 128,-1,30
 98 263 98 263 122 270.5 c 128,-1,31
 146 278 146 278 159 281.5 c 128,-1,32
 172 285 172 285 203.5 290 c 128,-1,33
 235 295 235 295 250 297 c 128,-1,34
 265 299 265 299 303 304 c 0,35,36
 355 310 355 310 375 323 c 128,-1,37
 395 336 395 336 395 362 c 2,38,-1
 395 384 l 2,39,40
 395 422 395 422 363 442 c 128,-1,41
 331 462 331 462 271 462 c 0,42,43
 209 462 209 462 177.5 439.5 c 128,-1,44
 146 417 146 417 140 369 c 1,45,-1
 51 369 l 1,4,5
229 50 m 0,46,47
 302 50 302 50 348.5 86.5 c 128,-1,48
 395 123 395 123 395 165 c 2,49,-1
 395 259 l 1,50,51
 369 247 369 247 315 239 c 128,-1,52
 261 231 261 231 222 225 c 128,-1,53
 183 219 183 219 151.5 196.5 c 128,-1,54
 120 174 120 174 120 134 c 128,-1,55
 120 94 120 94 148.5 72 c 128,-1,56
 177 50 177 50 229 50 c 0,46,47
EndSplineSet
Validated: 1
EndChar

StartChar: acircumflex
Encoding: 226 226 229
Width: 592
GlyphClass: 3
Flags: W
LayerCount: 2
Fore
SplineSet
225 727 m 1,0,-1
 325 727 l 1,1,-1
 427 577 l 1,2,-1
 360 577 l 1,3,-1
 274 673 l 1,4,-1
 190 577 l 1,5,-1
 123 577 l 1,6,-1
 225 727 l 1,0,-1
51 369 m 1,7,8
 57 539 57 539 274 539 c 0,9,10
 377 539 377 539 430 502.5 c 128,-1,11
 483 466 483 466 483 396 c 2,12,-1
 483 88 l 2,13,14
 483 47 483 47 531 47 c 0,15,16
 541 47 541 47 550 49 c 1,17,-1
 550 -14 l 1,18,19
 512 -23 512 -23 490 -23 c 0,20,21
 447 -23 447 -23 425 -4.5 c 128,-1,22
 403 14 403 14 398 54 c 1,23,24
 309 -23 309 -23 209 -23 c 0,25,26
 126 -23 126 -23 76.5 19 c 128,-1,27
 27 61 27 61 27 132 c 0,28,29
 27 155 27 155 32 174 c 128,-1,30
 37 193 37 193 42.5 207.5 c 128,-1,31
 48 222 48 222 63 234.5 c 128,-1,32
 78 247 78 247 88 255 c 128,-1,33
 98 263 98 263 122 270.5 c 128,-1,34
 146 278 146 278 159 281.5 c 128,-1,35
 172 285 172 285 203.5 290 c 128,-1,36
 235 295 235 295 250 297 c 128,-1,37
 265 299 265 299 303 304 c 0,38,39
 355 310 355 310 375 323 c 128,-1,40
 395 336 395 336 395 362 c 2,41,-1
 395 384 l 2,42,43
 395 422 395 422 363 442 c 128,-1,44
 331 462 331 462 271 462 c 0,45,46
 209 462 209 462 177.5 439.5 c 128,-1,47
 146 417 146 417 140 369 c 1,48,-1
 51 369 l 1,7,8
229 50 m 0,49,50
 302 50 302 50 348.5 86.5 c 128,-1,51
 395 123 395 123 395 165 c 2,52,-1
 395 259 l 1,53,54
 369 247 369 247 315 239 c 128,-1,55
 261 231 261 231 222 225 c 128,-1,56
 183 219 183 219 151.5 196.5 c 128,-1,57
 120 174 120 174 120 134 c 128,-1,58
 120 94 120 94 148.5 72 c 128,-1,59
 177 50 177 50 229 50 c 0,49,50
EndSplineSet
Validated: 1
EndChar

StartChar: atilde
Encoding: 227 227 230
Width: 592
GlyphClass: 2
Flags: W
LayerCount: 2
Fore
SplineSet
199 709 m 0,0,1
 226 709 226 709 272.5 690.5 c 128,-1,2
 319 672 319 672 340 672 c 0,3,4
 367 672 367 672 379 709 c 1,5,-1
 441 709 l 1,6,7
 425 605 425 605 346 605 c 0,8,9
 325 605 325 605 272 624 c 128,-1,10
 219 643 219 643 204 643 c 0,11,12
 180 643 180 643 170 606 c 1,13,-1
 107 606 l 1,14,15
 117 655 117 655 140.5 682 c 128,-1,16
 164 709 164 709 199 709 c 0,0,1
51 369 m 1,17,18
 57 539 57 539 274 539 c 0,19,20
 377 539 377 539 430 502.5 c 128,-1,21
 483 466 483 466 483 396 c 2,22,-1
 483 88 l 2,23,24
 483 47 483 47 531 47 c 0,25,26
 541 47 541 47 550 49 c 1,27,-1
 550 -14 l 1,28,29
 512 -23 512 -23 490 -23 c 0,30,31
 447 -23 447 -23 425 -4.5 c 128,-1,32
 403 14 403 14 398 54 c 1,33,34
 309 -23 309 -23 209 -23 c 0,35,36
 126 -23 126 -23 76.5 19 c 128,-1,37
 27 61 27 61 27 132 c 0,38,39
 27 155 27 155 32 174 c 128,-1,40
 37 193 37 193 42.5 207.5 c 128,-1,41
 48 222 48 222 63 234.5 c 128,-1,42
 78 247 78 247 88 255 c 128,-1,43
 98 263 98 263 122 270.5 c 128,-1,44
 146 278 146 278 159 281.5 c 128,-1,45
 172 285 172 285 203.5 290 c 128,-1,46
 235 295 235 295 250 297 c 128,-1,47
 265 299 265 299 303 304 c 0,48,49
 355 310 355 310 375 323 c 128,-1,50
 395 336 395 336 395 362 c 2,51,-1
 395 384 l 2,52,53
 395 422 395 422 363 442 c 128,-1,54
 331 462 331 462 271 462 c 0,55,56
 209 462 209 462 177.5 439.5 c 128,-1,57
 146 417 146 417 140 369 c 1,58,-1
 51 369 l 1,17,18
229 50 m 0,59,60
 302 50 302 50 348.5 86.5 c 128,-1,61
 395 123 395 123 395 165 c 2,62,-1
 395 259 l 1,63,64
 369 247 369 247 315 239 c 128,-1,65
 261 231 261 231 222 225 c 128,-1,66
 183 219 183 219 151.5 196.5 c 128,-1,67
 120 174 120 174 120 134 c 128,-1,68
 120 94 120 94 148.5 72 c 128,-1,69
 177 50 177 50 229 50 c 0,59,60
EndSplineSet
Validated: 1
EndChar

StartChar: aring
Encoding: 229 229 232
Width: 592
GlyphClass: 2
Flags: W
LayerCount: 2
Fore
SplineSet
274 772 m 0,0,1
 321 772 321 772 354 741 c 128,-1,2
 387 710 387 710 387 666 c 0,3,4
 387 623 387 623 353.5 592.5 c 128,-1,5
 320 562 320 562 274.5 562 c 128,-1,6
 229 562 229 562 195.5 593 c 128,-1,7
 162 624 162 624 162 667 c 0,8,9
 162 709 162 709 195.5 740.5 c 128,-1,10
 229 772 229 772 274 772 c 0,0,1
274 710 m 0,11,12
 255 710 255 710 241.5 697 c 128,-1,13
 228 684 228 684 228 667 c 0,14,15
 228 649 228 649 241.5 636 c 128,-1,16
 255 623 255 623 274 623 c 128,-1,17
 293 623 293 623 307 636 c 128,-1,18
 321 649 321 649 321 666 c 0,19,20
 321 685 321 685 307.5 697.5 c 128,-1,21
 294 710 294 710 274 710 c 0,11,12
51 369 m 1,22,23
 57 539 57 539 274 539 c 0,24,25
 377 539 377 539 430 502.5 c 128,-1,26
 483 466 483 466 483 396 c 2,27,-1
 483 88 l 2,28,29
 483 47 483 47 531 47 c 0,30,31
 541 47 541 47 550 49 c 1,32,-1
 550 -14 l 1,33,34
 512 -23 512 -23 490 -23 c 0,35,36
 447 -23 447 -23 425 -4.5 c 128,-1,37
 403 14 403 14 398 54 c 1,38,39
 309 -23 309 -23 209 -23 c 0,40,41
 126 -23 126 -23 76.5 19 c 128,-1,42
 27 61 27 61 27 132 c 0,43,44
 27 155 27 155 32 174 c 128,-1,45
 37 193 37 193 42.5 207.5 c 128,-1,46
 48 222 48 222 63 234.5 c 128,-1,47
 78 247 78 247 88 255 c 128,-1,48
 98 263 98 263 122 270.5 c 128,-1,49
 146 278 146 278 159 281.5 c 128,-1,50
 172 285 172 285 203.5 290 c 128,-1,51
 235 295 235 295 250 297 c 128,-1,52
 265 299 265 299 303 304 c 0,53,54
 355 310 355 310 375 323 c 128,-1,55
 395 336 395 336 395 362 c 2,56,-1
 395 384 l 2,57,58
 395 422 395 422 363 442 c 128,-1,59
 331 462 331 462 271 462 c 0,60,61
 209 462 209 462 177.5 439.5 c 128,-1,62
 146 417 146 417 140 369 c 1,63,-1
 51 369 l 1,22,23
229 50 m 0,64,65
 302 50 302 50 348.5 86.5 c 128,-1,66
 395 123 395 123 395 165 c 2,67,-1
 395 259 l 1,68,69
 369 247 369 247 315 239 c 128,-1,70
 261 231 261 231 222 225 c 128,-1,71
 183 219 183 219 151.5 196.5 c 128,-1,72
 120 174 120 174 120 134 c 128,-1,73
 120 94 120 94 148.5 72 c 128,-1,74
 177 50 177 50 229 50 c 0,64,65
EndSplineSet
Validated: 1
EndChar

StartChar: ae
Encoding: 230 230 233
Width: 958
GlyphClass: 2
Flags: W
LayerCount: 2
Fore
SplineSet
468 234 m 1,0,1
 469 182 469 182 485 144.5 c 128,-1,2
 501 107 501 107 526.5 88.5 c 128,-1,3
 552 70 552 70 578 62 c 128,-1,4
 604 54 604 54 632 54 c 0,5,6
 739 54 739 54 777 159 c 1,7,-1
 867 159 l 1,8,9
 850 74 850 74 787 25.5 c 128,-1,10
 724 -23 724 -23 631 -23 c 0,11,12
 486 -23 486 -23 427 84 c 0,13,14
 425 86 425 86 425 87 c 1,15,16
 365 29 365 29 311.5 3 c 128,-1,17
 258 -23 258 -23 195 -23 c 0,18,19
 114 -23 114 -23 66 19 c 128,-1,20
 18 61 18 61 18 132 c 0,21,22
 18 170 18 170 31.5 198.5 c 128,-1,23
 45 227 45 227 67 245 c 128,-1,24
 89 263 89 263 126 275 c 128,-1,25
 163 287 163 287 201 293 c 128,-1,26
 239 299 239 299 293 303 c 128,-1,27
 347 307 347 307 366.5 320 c 128,-1,28
 386 333 386 333 386 362 c 2,29,-1
 386 384 l 2,30,31
 386 462 386 462 260 462 c 0,32,33
 141 462 141 462 131 369 c 1,34,-1
 42 369 l 1,35,36
 48 539 48 539 262 539 c 0,37,38
 398 539 398 539 448 457 c 1,39,40
 477 495 477 495 525.5 517 c 128,-1,41
 574 539 574 539 632 539 c 0,42,43
 709 539 709 539 768 502 c 128,-1,44
 827 465 827 465 855 401 c 0,45,46
 877 346 877 346 877 234 c 1,47,-1
 468 234 l 1,0,1
215 50 m 0,48,49
 290 50 290 50 338 90.5 c 128,-1,50
 386 131 386 131 386 157 c 2,51,-1
 386 258 l 1,52,53
 353 245 353 245 298.5 236.5 c 128,-1,54
 244 228 244 228 206.5 223 c 128,-1,55
 169 218 169 218 139 196 c 128,-1,56
 109 174 109 174 109 134 c 0,57,58
 109 95 109 95 137.5 72.5 c 128,-1,59
 166 50 166 50 215 50 c 0,48,49
470 302 m 1,60,-1
 783 302 l 1,61,62
 783 373 783 373 740 417.5 c 128,-1,63
 697 462 697 462 630 462 c 0,64,65
 562 462 562 462 519 418.5 c 128,-1,66
 476 375 476 375 470 302 c 1,60,-1
EndSplineSet
Validated: 1
EndChar

StartChar: ccedilla
Encoding: 231 231 234
Width: 534
GlyphClass: 2
Flags: W
LayerCount: 2
Fore
SplineSet
223 -21 m 1,0,1
 167 -11 167 -11 126 17 c 128,-1,2
 85 45 85 45 64.5 75.5 c 128,-1,3
 44 106 44 106 32.5 146 c 128,-1,4
 21 186 21 186 19 208 c 128,-1,5
 17 230 17 230 17 253 c 0,6,7
 17 383 17 383 84.5 461 c 128,-1,8
 152 539 152 539 264 539 c 0,9,10
 361 539 361 539 418.5 490 c 128,-1,11
 476 441 476 441 485 348 c 1,12,-1
 395 348 l 1,13,14
 387 403 387 403 352.5 432.5 c 128,-1,15
 318 462 318 462 263 462 c 0,16,17
 192 462 192 462 151 406.5 c 128,-1,18
 110 351 110 351 110 252 c 0,19,20
 110 159 110 159 151.5 106 c 128,-1,21
 193 53 193 53 265 53 c 0,22,23
 379 53 379 53 402 180 c 1,24,-1
 491 180 l 1,25,26
 486 86 486 86 424 31.5 c 128,-1,27
 362 -23 362 -23 264 -23 c 1,28,-1
 251 -56 l 1,29,30
 265 -54 265 -54 281 -54 c 0,31,32
 319 -54 319 -54 341.5 -71.5 c 128,-1,33
 364 -89 364 -89 364 -121 c 0,34,35
 364 -164 364 -164 329.5 -189 c 128,-1,36
 295 -214 295 -214 234 -214 c 0,37,38
 184 -214 184 -214 101 -181 c 1,39,-1
 123 -140 l 1,40,41
 131 -143 131 -143 147.5 -150.5 c 128,-1,42
 164 -158 164 -158 173 -162 c 128,-1,43
 182 -166 182 -166 197 -169.5 c 128,-1,44
 212 -173 212 -173 227 -173 c 0,45,46
 252 -173 252 -173 268.5 -160 c 128,-1,47
 285 -147 285 -147 285 -128 c 0,48,49
 285 -91 285 -91 236 -91 c 0,50,51
 220 -91 220 -91 203 -99 c 1,52,-1
 191 -92 l 1,53,-1
 223 -21 l 1,0,1
EndSplineSet
Validated: 1
EndChar

StartChar: egrave
Encoding: 232 232 235
Width: 593
GlyphClass: 2
Flags: W
LayerCount: 2
Fore
SplineSet
252 730 m 1,0,-1
 354 582 l 1,1,-1
 290 582 l 1,2,-1
 132 730 l 1,3,-1
 252 730 l 1,0,-1
527 234 m 1,4,-1
 118 234 l 1,5,6
 119 162 119 162 147 122 c 0,7,8
 193 54 193 54 281 54 c 0,9,10
 389 54 389 54 427 159 c 1,11,-1
 516 159 l 1,12,13
 498 73 498 73 436 25 c 128,-1,14
 374 -23 374 -23 278 -23 c 0,15,16
 162 -23 162 -23 94 51.5 c 128,-1,17
 26 126 26 126 26 255 c 128,-1,18
 26 384 26 384 95.5 461.5 c 128,-1,19
 165 539 165 539 280 539 c 0,20,21
 359 539 359 539 419 502 c 128,-1,22
 479 465 479 465 505 401 c 0,23,24
 527 346 527 346 527 234 c 1,4,-1
120 302 m 1,25,-1
 432 302 l 2,26,27
 433 304 433 304 433 308 c 0,28,29
 433 373 433 373 388.5 417.5 c 128,-1,30
 344 462 344 462 279 462 c 0,31,32
 213 462 213 462 169 418.5 c 128,-1,33
 125 375 125 375 120 302 c 1,25,-1
EndSplineSet
Validated: 1
EndChar

StartChar: eacute
Encoding: 233 233 236
Width: 593
GlyphClass: 2
Flags: W
LayerCount: 2
Fore
SplineSet
310 730 m 1,0,-1
 430 730 l 1,1,-1
 272 582 l 1,2,-1
 208 582 l 1,3,-1
 310 730 l 1,0,-1
527 234 m 1,4,-1
 118 234 l 1,5,6
 119 162 119 162 147 122 c 0,7,8
 193 54 193 54 281 54 c 0,9,10
 389 54 389 54 427 159 c 1,11,-1
 516 159 l 1,12,13
 498 73 498 73 436 25 c 128,-1,14
 374 -23 374 -23 278 -23 c 0,15,16
 162 -23 162 -23 94 51.5 c 128,-1,17
 26 126 26 126 26 255 c 128,-1,18
 26 384 26 384 95.5 461.5 c 128,-1,19
 165 539 165 539 280 539 c 0,20,21
 359 539 359 539 419 502 c 128,-1,22
 479 465 479 465 505 401 c 0,23,24
 527 346 527 346 527 234 c 1,4,-1
120 302 m 1,25,-1
 432 302 l 2,26,27
 433 304 433 304 433 308 c 0,28,29
 433 373 433 373 388.5 417.5 c 128,-1,30
 344 462 344 462 279 462 c 0,31,32
 213 462 213 462 169 418.5 c 128,-1,33
 125 375 125 375 120 302 c 1,25,-1
EndSplineSet
Validated: 1
EndChar

StartChar: ecircumflex
Encoding: 234 234 237
Width: 593
GlyphClass: 3
Flags: W
LayerCount: 2
Fore
SplineSet
237 727 m 1,0,-1
 337 727 l 1,1,-1
 439 577 l 1,2,-1
 373 577 l 1,3,-1
 286 673 l 1,4,-1
 203 577 l 1,5,-1
 135 577 l 1,6,-1
 237 727 l 1,0,-1
527 234 m 1,7,-1
 118 234 l 1,8,9
 119 162 119 162 147 122 c 0,10,11
 193 54 193 54 281 54 c 0,12,13
 389 54 389 54 427 159 c 1,14,-1
 516 159 l 1,15,16
 498 73 498 73 436 25 c 128,-1,17
 374 -23 374 -23 278 -23 c 0,18,19
 162 -23 162 -23 94 51.5 c 128,-1,20
 26 126 26 126 26 255 c 128,-1,21
 26 384 26 384 95.5 461.5 c 128,-1,22
 165 539 165 539 280 539 c 0,23,24
 359 539 359 539 419 502 c 128,-1,25
 479 465 479 465 505 401 c 0,26,27
 527 346 527 346 527 234 c 1,7,-1
120 302 m 1,28,-1
 432 302 l 2,29,30
 433 304 433 304 433 308 c 0,31,32
 433 373 433 373 388.5 417.5 c 128,-1,33
 344 462 344 462 279 462 c 0,34,35
 213 462 213 462 169 418.5 c 128,-1,36
 125 375 125 375 120 302 c 1,28,-1
EndSplineSet
Validated: 1
EndChar

StartChar: igrave
Encoding: 236 236 239
Width: 268
GlyphClass: 2
Flags: W
LayerCount: 2
Fore
SplineSet
113 730 m 1,0,-1
 215 582 l 1,1,-1
 152 582 l 1,2,-1
 -6 730 l 1,3,-1
 113 730 l 1,0,-1
171 524 m 1,4,-1
 171 0 l 1,5,-1
 83 0 l 1,6,-1
 83 524 l 1,7,-1
 171 524 l 1,4,-1
EndSplineSet
Validated: 1
EndChar

StartChar: iacute
Encoding: 237 237 240
Width: 266
GlyphClass: 2
Flags: W
LayerCount: 2
Fore
SplineSet
137 730 m 1,0,-1
 256 730 l 1,1,-1
 98 582 l 1,2,-1
 35 582 l 1,3,-1
 137 730 l 1,0,-1
168 524 m 1,4,-1
 168 0 l 1,5,-1
 81 0 l 1,6,-1
 81 524 l 1,7,-1
 168 524 l 1,4,-1
EndSplineSet
Validated: 1
EndChar

StartChar: icircumflex
Encoding: 238 238 241
Width: 266
GlyphClass: 3
Flags: W
LayerCount: 2
Fore
SplineSet
86 729 m 1,0,-1
 187 729 l 1,1,-1
 289 579 l 1,2,-1
 222 579 l 1,3,-1
 136 675 l 1,4,-1
 52 579 l 1,5,-1
 -16 579 l 1,6,-1
 86 729 l 1,0,-1
169 524 m 1,7,-1
 169 0 l 1,8,-1
 81 0 l 1,9,-1
 81 524 l 1,10,-1
 169 524 l 1,7,-1
EndSplineSet
Validated: 1
EndChar

StartChar: idieresis
Encoding: 239 239 242
Width: 267
GlyphClass: 2
Flags: W
LayerCount: 2
Fore
SplineSet
170 524 m 1,0,-1
 170 0 l 1,1,-1
 81 0 l 1,2,-1
 81 524 l 1,3,-1
 170 524 l 1,0,-1
276 728 m 1,4,-1
 276 624 l 1,5,-1
 165 624 l 1,6,-1
 165 728 l 1,7,-1
 276 728 l 1,4,-1
85 728 m 1,8,-1
 85 624 l 1,9,-1
 -25 624 l 1,10,-1
 -25 728 l 1,11,-1
 85 728 l 1,8,-1
EndSplineSet
Validated: 1
EndChar

StartChar: eth
Encoding: 240 240 243
Width: 593
GlyphClass: 2
Flags: W
LayerCount: 2
Fore
SplineSet
22 258 m 0,0,1
 22 322 22 322 37.5 372.5 c 128,-1,2
 53 423 53 423 76.5 453 c 128,-1,3
 100 483 100 483 132 502.5 c 128,-1,4
 164 522 164 522 193.5 529.5 c 128,-1,5
 223 537 223 537 253 537 c 0,6,7
 278 537 278 537 320 524 c 1,8,9
 278 564 278 564 216 613 c 1,10,-1
 113 568 l 1,11,-1
 75 607 l 1,12,-1
 165 647 l 1,13,14
 133 670 133 670 78 699 c 1,15,-1
 124 743 l 1,16,17
 164 727 164 727 242 680 c 1,18,-1
 345 725 l 1,19,-1
 387 688 l 1,20,-1
 292 647 l 1,21,22
 324 624 324 624 346.5 606.5 c 128,-1,23
 369 589 369 589 405.5 550.5 c 128,-1,24
 442 512 442 512 465 474 c 128,-1,25
 488 436 488 436 506 378.5 c 128,-1,26
 524 321 524 321 524 259 c 0,27,28
 524 124 524 124 458.5 50.5 c 128,-1,29
 393 -23 393 -23 273 -23 c 128,-1,30
 153 -23 153 -23 87.5 50.5 c 128,-1,31
 22 124 22 124 22 258 c 0,0,1
273 462 m 0,32,33
 199 462 199 462 156.5 407.5 c 128,-1,34
 114 353 114 353 114 258 c 128,-1,35
 114 163 114 163 156.5 108.5 c 128,-1,36
 199 54 199 54 273 54 c 0,37,38
 346 54 346 54 389 108.5 c 128,-1,39
 432 163 432 163 432 255 c 0,40,41
 432 352 432 352 390 407 c 128,-1,42
 348 462 348 462 273 462 c 0,32,33
EndSplineSet
Validated: 1
EndChar

StartChar: ntilde
Encoding: 241 241 244
Width: 593
GlyphClass: 2
Flags: W
LayerCount: 2
Fore
SplineSet
203 706 m 0,0,1
 229 706 229 706 276 687.5 c 128,-1,2
 323 669 323 669 343 669 c 0,3,4
 370 669 370 669 383 706 c 1,5,-1
 444 706 l 1,6,7
 429 602 429 602 350 602 c 0,8,9
 329 602 329 602 276 621 c 128,-1,10
 223 640 223 640 208 640 c 0,11,12
 183 640 183 640 173 603 c 1,13,-1
 112 603 l 1,14,15
 120 652 120 652 144 679 c 128,-1,16
 168 706 168 706 203 706 c 0,0,1
58 524 m 1,17,-1
 139 524 l 1,18,-1
 139 436 l 1,19,20
 176 491 176 491 219 515 c 128,-1,21
 262 539 262 539 324 539 c 0,22,23
 404 539 404 539 451.5 500 c 128,-1,24
 499 461 499 461 499 396 c 2,25,-1
 499 0 l 1,26,-1
 412 0 l 1,27,-1
 412 363 l 2,28,29
 412 410 412 410 381 438 c 128,-1,30
 350 466 350 466 297 466 c 0,31,32
 229 466 229 466 187.5 417.5 c 128,-1,33
 146 369 146 369 146 289 c 2,34,-1
 146 0 l 1,35,-1
 58 0 l 1,36,-1
 58 524 l 1,17,-1
EndSplineSet
Validated: 1
EndChar

StartChar: ograve
Encoding: 242 242 245
Width: 593
GlyphClass: 2
Flags: W
LayerCount: 2
Fore
SplineSet
242 729 m 1,0,-1
 344 581 l 1,1,-1
 280 581 l 1,2,-1
 122 729 l 1,3,-1
 242 729 l 1,0,-1
272 539 m 0,4,5
 391 539 391 539 457.5 464.5 c 128,-1,6
 524 390 524 390 524 254 c 0,7,8
 524 125 524 125 456.5 51 c 128,-1,9
 389 -23 389 -23 273 -23 c 0,10,11
 155 -23 155 -23 88.5 51.5 c 128,-1,12
 22 126 22 126 22 258 c 128,-1,13
 22 390 22 390 89 464.5 c 128,-1,14
 156 539 156 539 272 539 c 0,4,5
273 462 m 0,15,16
 199 462 199 462 156.5 407.5 c 128,-1,17
 114 353 114 353 114 258 c 128,-1,18
 114 163 114 163 156.5 108.5 c 128,-1,19
 199 54 199 54 273 54 c 0,20,21
 346 54 346 54 389 108.5 c 128,-1,22
 432 163 432 163 432 255 c 0,23,24
 432 352 432 352 390 407 c 128,-1,25
 348 462 348 462 273 462 c 0,15,16
EndSplineSet
Validated: 1
EndChar

StartChar: oacute
Encoding: 243 243 246
Width: 593
GlyphClass: 2
Flags: W
LayerCount: 2
Fore
SplineSet
300 730 m 1,0,-1
 420 730 l 1,1,-1
 262 582 l 1,2,-1
 198 582 l 1,3,-1
 300 730 l 1,0,-1
272 539 m 0,4,5
 391 539 391 539 457.5 464.5 c 128,-1,6
 524 390 524 390 524 254 c 0,7,8
 524 125 524 125 456.5 51 c 128,-1,9
 389 -23 389 -23 273 -23 c 0,10,11
 155 -23 155 -23 88.5 51.5 c 128,-1,12
 22 126 22 126 22 258 c 128,-1,13
 22 390 22 390 89 464.5 c 128,-1,14
 156 539 156 539 272 539 c 0,4,5
273 462 m 0,15,16
 199 462 199 462 156.5 407.5 c 128,-1,17
 114 353 114 353 114 258 c 128,-1,18
 114 163 114 163 156.5 108.5 c 128,-1,19
 199 54 199 54 273 54 c 0,20,21
 346 54 346 54 389 108.5 c 128,-1,22
 432 163 432 163 432 255 c 0,23,24
 432 352 432 352 390 407 c 128,-1,25
 348 462 348 462 273 462 c 0,15,16
EndSplineSet
Validated: 1
EndChar

StartChar: ocircumflex
Encoding: 244 244 247
Width: 593
GlyphClass: 3
Flags: W
LayerCount: 2
Fore
SplineSet
223 730 m 1,0,-1
 324 730 l 1,1,-1
 426 580 l 1,2,-1
 359 580 l 1,3,-1
 273 676 l 1,4,-1
 189 580 l 1,5,-1
 121 580 l 1,6,-1
 223 730 l 1,0,-1
272 539 m 0,7,8
 391 539 391 539 457.5 464.5 c 128,-1,9
 524 390 524 390 524 254 c 0,10,11
 524 125 524 125 456.5 51 c 128,-1,12
 389 -23 389 -23 273 -23 c 0,13,14
 155 -23 155 -23 88.5 51.5 c 128,-1,15
 22 126 22 126 22 258 c 128,-1,16
 22 390 22 390 89 464.5 c 128,-1,17
 156 539 156 539 272 539 c 0,7,8
273 462 m 0,18,19
 199 462 199 462 156.5 407.5 c 128,-1,20
 114 353 114 353 114 258 c 128,-1,21
 114 163 114 163 156.5 108.5 c 128,-1,22
 199 54 199 54 273 54 c 0,23,24
 346 54 346 54 389 108.5 c 128,-1,25
 432 163 432 163 432 255 c 0,26,27
 432 352 432 352 390 407 c 128,-1,28
 348 462 348 462 273 462 c 0,18,19
EndSplineSet
Validated: 1
EndChar

StartChar: otilde
Encoding: 245 245 248
Width: 593
GlyphClass: 2
Flags: W
LayerCount: 2
Fore
SplineSet
196 708 m 0,0,1
 223 708 223 708 270 689.5 c 128,-1,2
 317 671 317 671 337 671 c 0,3,4
 364 671 364 671 377 708 c 1,5,-1
 438 708 l 1,6,7
 423 604 423 604 344 604 c 0,8,9
 323 604 323 604 270 623 c 128,-1,10
 217 642 217 642 202 642 c 0,11,12
 177 642 177 642 167 605 c 1,13,-1
 106 605 l 1,14,15
 114 654 114 654 138 681 c 128,-1,16
 162 708 162 708 196 708 c 0,0,1
272 539 m 0,17,18
 391 539 391 539 457.5 464.5 c 128,-1,19
 524 390 524 390 524 254 c 0,20,21
 524 125 524 125 456.5 51 c 128,-1,22
 389 -23 389 -23 273 -23 c 0,23,24
 155 -23 155 -23 88.5 51.5 c 128,-1,25
 22 126 22 126 22 258 c 128,-1,26
 22 390 22 390 89 464.5 c 128,-1,27
 156 539 156 539 272 539 c 0,17,18
273 462 m 0,28,29
 199 462 199 462 156.5 407.5 c 128,-1,30
 114 353 114 353 114 258 c 128,-1,31
 114 163 114 163 156.5 108.5 c 128,-1,32
 199 54 199 54 273 54 c 0,33,34
 346 54 346 54 389 108.5 c 128,-1,35
 432 163 432 163 432 255 c 0,36,37
 432 352 432 352 390 407 c 128,-1,38
 348 462 348 462 273 462 c 0,28,29
EndSplineSet
Validated: 1
EndChar

StartChar: divide
Encoding: 247 247 250
Width: 618
GlyphClass: 2
Flags: W
LayerCount: 2
Fore
SplineSet
544 271 m 1,0,-1
 544 201 l 1,1,-1
 40 201 l 1,2,-1
 40 271 l 1,3,-1
 544 271 l 1,0,-1
346 104 m 1,4,-1
 346 0 l 1,5,-1
 238 0 l 1,6,-1
 238 104 l 1,7,-1
 346 104 l 1,4,-1
346 472 m 1,8,-1
 346 368 l 1,9,-1
 238 368 l 1,10,-1
 238 472 l 1,11,-1
 346 472 l 1,8,-1
EndSplineSet
Validated: 1
EndChar

StartChar: oslash
Encoding: 248 248 251
Width: 655
GlyphClass: 2
Flags: W
LayerCount: 2
Fore
SplineSet
544 511 m 1,0,-1
 478 440 l 1,1,2
 524 367 524 367 524 258 c 0,3,4
 524 126 524 126 457.5 51.5 c 128,-1,5
 391 -23 391 -23 274 -23 c 0,6,7
 165 -23 165 -23 101 39 c 1,8,-1
 36 -30 l 1,9,-1
 3 -2 l 1,10,-1
 72 72 l 1,11,12
 21 143 21 143 21 258 c 0,13,14
 21 390 21 390 88.5 464.5 c 128,-1,15
 156 539 156 539 273 539 c 0,16,17
 380 539 380 539 449 474 c 1,18,-1
 511 539 l 1,19,-1
 544 511 l 1,0,-1
413 371 m 1,20,-1
 161 102 l 1,21,22
 206 54 206 54 273 54 c 0,23,24
 347 54 347 54 389.5 108.5 c 128,-1,25
 432 163 432 163 432 258 c 0,26,27
 432 324 432 324 413 371 c 1,20,-1
136 141 m 1,28,-1
 389 410 l 1,29,30
 346 462 346 462 273 462 c 0,31,32
 199 462 199 462 156.5 407.5 c 128,-1,33
 114 353 114 353 114 258 c 0,34,35
 114 190 114 190 136 141 c 1,28,-1
EndSplineSet
Validated: 1
EndChar

StartChar: ugrave
Encoding: 249 249 252
Width: 593
GlyphClass: 2
Flags: W
LayerCount: 2
Fore
SplineSet
241 729 m 1,0,-1
 343 581 l 1,1,-1
 279 581 l 1,2,-1
 121 729 l 1,3,-1
 241 729 l 1,0,-1
494 0 m 1,4,-1
 415 0 l 1,5,-1
 415 73 l 1,6,7
 376 21 376 21 333.5 -1 c 128,-1,8
 291 -23 291 -23 229 -23 c 0,9,10
 149 -23 149 -23 101 16 c 128,-1,11
 53 55 53 55 53 120 c 2,12,-1
 53 524 l 1,13,-1
 140 524 l 1,14,-1
 140 153 l 2,15,16
 140 106 140 106 171 78 c 128,-1,17
 202 50 202 50 255 50 c 0,18,19
 324 50 324 50 365.5 98.5 c 128,-1,20
 407 147 407 147 407 227 c 2,21,-1
 407 524 l 1,22,-1
 494 524 l 1,23,-1
 494 0 l 1,4,-1
EndSplineSet
Validated: 1
EndChar

StartChar: uacute
Encoding: 250 250 253
Width: 593
GlyphClass: 2
Flags: W
LayerCount: 2
Fore
SplineSet
297 729 m 1,0,-1
 417 729 l 1,1,-1
 259 581 l 1,2,-1
 195 581 l 1,3,-1
 297 729 l 1,0,-1
494 0 m 1,4,-1
 415 0 l 1,5,-1
 415 73 l 1,6,7
 376 21 376 21 333.5 -1 c 128,-1,8
 291 -23 291 -23 229 -23 c 0,9,10
 149 -23 149 -23 101 16 c 128,-1,11
 53 55 53 55 53 120 c 2,12,-1
 53 524 l 1,13,-1
 140 524 l 1,14,-1
 140 153 l 2,15,16
 140 106 140 106 171 78 c 128,-1,17
 202 50 202 50 255 50 c 0,18,19
 324 50 324 50 365.5 98.5 c 128,-1,20
 407 147 407 147 407 227 c 2,21,-1
 407 524 l 1,22,-1
 494 524 l 1,23,-1
 494 0 l 1,4,-1
EndSplineSet
Validated: 1
EndChar

StartChar: ucircumflex
Encoding: 251 251 254
Width: 593
GlyphClass: 3
Flags: W
LayerCount: 2
Fore
SplineSet
224 729 m 1,0,-1
 325 729 l 1,1,-1
 427 579 l 1,2,-1
 360 579 l 1,3,-1
 274 675 l 1,4,-1
 190 579 l 1,5,-1
 122 579 l 1,6,-1
 224 729 l 1,0,-1
494 0 m 1,7,-1
 415 0 l 1,8,-1
 415 73 l 1,9,10
 376 21 376 21 333.5 -1 c 128,-1,11
 291 -23 291 -23 229 -23 c 0,12,13
 149 -23 149 -23 101 16 c 128,-1,14
 53 55 53 55 53 120 c 2,15,-1
 53 524 l 1,16,-1
 140 524 l 1,17,-1
 140 153 l 2,18,19
 140 106 140 106 171 78 c 128,-1,20
 202 50 202 50 255 50 c 0,21,22
 324 50 324 50 365.5 98.5 c 128,-1,23
 407 147 407 147 407 227 c 2,24,-1
 407 524 l 1,25,-1
 494 524 l 1,26,-1
 494 0 l 1,7,-1
EndSplineSet
Validated: 1
EndChar

StartChar: yacute
Encoding: 253 253 256
Width: 535
GlyphClass: 2
Flags: W
LayerCount: 2
Fore
SplineSet
270 729 m 1,0,-1
 390 729 l 1,1,-1
 232 581 l 1,2,-1
 168 581 l 1,3,-1
 270 729 l 1,0,-1
397 524 m 1,4,-1
 492 524 l 1,5,-1
 245 -110 l 2,6,7
 201 -218 201 -218 101 -218 c 0,8,9
 68 -218 68 -218 42 -205 c 1,10,-1
 42 -130 l 1,11,12
 70 -136 70 -136 89 -136 c 0,13,14
 116 -136 116 -136 132 -124.5 c 128,-1,15
 148 -113 148 -113 160 -85 c 2,16,-1
 194 -2 l 1,17,-1
 6 524 l 1,18,-1
 100 524 l 1,19,-1
 243 116 l 1,20,-1
 397 524 l 1,4,-1
EndSplineSet
Validated: 1
EndChar

StartChar: uniFFFD
Encoding: 65533 65533 260
Width: 918
GlyphClass: 2
Flags: W
LayerCount: 2
Fore
SplineSet
633 493 m 0,0,1
 633 564 633 564 584.5 605.5 c 128,-1,2
 536 647 536 647 455 647 c 0,3,4
 366 647 366 647 319.5 599.5 c 128,-1,5
 273 552 273 552 273 460 c 1,6,-1
 344 460 l 1,7,8
 344 519 344 519 367.5 551.5 c 128,-1,9
 391 584 391 584 451 584 c 0,10,11
 500 584 500 584 529 559 c 128,-1,12
 558 534 558 534 558 493 c 0,13,14
 558 466 558 466 542.5 441.5 c 128,-1,15
 527 417 527 417 505 397.5 c 128,-1,16
 483 378 483 378 461.5 358.5 c 128,-1,17
 440 339 440 339 424.5 313 c 128,-1,18
 409 287 409 287 409 257 c 2,19,-1
 409 213 l 1,20,-1
 484 213 l 1,21,-1
 484 251 l 2,22,23
 484 277 484 277 499 299.5 c 128,-1,24
 514 322 514 322 536 340 c 128,-1,25
 558 358 558 358 580 377.5 c 128,-1,26
 602 397 602 397 617.5 427 c 128,-1,27
 633 457 633 457 633 493 c 0,0,1
484 137 m 1,28,-1
 409 137 l 1,29,-1
 409 54 l 1,30,-1
 484 54 l 1,31,-1
 484 137 l 1,28,-1
450 -63 m 1,32,-1
 1 369 l 1,33,-1
 450 800 l 1,34,-1
 898 369 l 1,35,-1
 450 -63 l 1,32,-1
EndSplineSet
Validated: 1
EndChar
